<svg xmlns="http://www.w3.org/2000/svg" xmlns:xlink="http://www.w3.org/1999/xlink" width="2299.165" height="635.661" viewBox="0 0 2299.165 635.661">
  <defs>
    <clipPath id="clip-path">
      <rect id="Rectangle_6" data-name="Rectangle 6" width="2271.327" height="478.386" fill="#1a1a1a"/>
    </clipPath>
  </defs>
  <g id="Group_4" data-name="Group 4" transform="translate(33.371) rotate(4)" clip-path="url(#clip-path)">
    <path id="Path_4" data-name="Path 4" d="M.444,196.261c35.833-5.664,7.464-10.435,6.911-19.338-.213-3.424,7.145-9.3,12.207-11.41l-8.485-2.9,6.358-5.769-7.23-1.091c-5.912-5.072,7.89-4.422,11.547-6.454,1.957-1.091,1.446-3.273,2.531-3.8,4.742-2.3,13.653-2.542,25.753-9.146,1.276-.7,4.742-.429,7.549-2.229,6.55-4.213,3.339-12.919,8.272-18.7,2.637-3.076,10.186-6.21,12.717-9.3,3.02-3.7,2.169-7.614,4.636-11.375,1.85-2.867,10.441-7.5,10.7-8.09C95.2,83.59,74.81,82.29,74.64,76.3c-.106-3.935,3.955-5.908,9.974-7.44,24.2-6.187,39.214-5.56,64.584-8.821,19.926-2.554,36.364-6.407,46.7-16.238-3.169-2.763-10.463-.8-13.8-2.867-3.743-2.333-4.678-8.137,2.722-9,21.627-2.983,43.51-6.163,64.712-9.9,29.623-5.223,65.647-14.277,95.037-17.7C369.66,1.412,410.618.727,437.03.286,621.744-2.779,805.417,19.89,989.62,16.455l56.312,1.277L1042.381,21,867.449,23.523c-1.51,3.053,4.232,2.774,7.783,2.971,29.049,1.683,67.285-2.565,97.546-.731,49.719,2.995,105.67,2.182,157.005,2.461,64.116.348,128.488-1.184,192.412,1.1-.808,2.113-4.189,2.159-7.379,2.356-15.375.94-33.2-.255-48.868.023-78.3,1.358-157.558,2.252-235.859,3.459-25.221.395-50.506-.894-75.515,1.114l5.3,2.321q-195.762-.261-391.035,3.471l-3.147,2.31,162.47,5.85c44.36,2.716,95.185-4.155,138.1-2.391,12.568.522,19.118,3.946,25.646,4.643,9.867,1.068,24.5-.743,35.025.035l-35.195,2.275-5.168,2.345c26.029.186,51.633,3.668,77.471,4.689,19.033.754,38.661-.952,57.375,1.161,84.425,3.784,185.1-5.293,267.629.058,2.616.174,5,1,7.635,1.068-.362,1.567-2.871,2.02-5.4,2.252-11.228,1.033-35.45.952-48.635,1.207-109.391,2.054-228.011-1.4-335.871,3.494-4.636.209-9.059,1.358-13.823,1.149,3.594,4.063,15.4,1.358,22.648,3.389,145.394,2.646,291.894-1.079,437.5,2.356,25.753.6,51.591,3.505,77.471,3.529V84.96l-89.252,1.161,4.657,2.612,18.714,3.169c-8.358.371-27.476-1.439-29.73,4.643,55.142,1.37,110.858-.1,165.831,2.9l4.147,2.9c-16.587-.221-33.323.313-49.911-.012-21.1-.418-45.615-3.331-65.9-3.54-17.247-.174-39.746,2.275-57.29,2.438-57.737.557-115.558.255-173.273,1.126l1.042,3.482-5.338-3.494-5.317,3.215c-5.019.882-5.487-2-6.614-2.089-19.628-1.486-65.52,1.219-86.573,2.5-3,.174-12.929.615-14.057,2.159,92.272,3.54,184.565,1.161,277.369,2.287,40.533.487,94.08.522,133.464,3.993,4.147.36,7.869,1.532,12.015,1.869,0,1.95-7.082,2.205-9.549,2.31-55.716,2.426-116.472-2.252-170.041,1.126-4.955.313-12.1,1.172-11.632,4.654,109.986,8.81,221.717,5.142,332.214,11.781l2.573.917.936,3.529-223.886.162c-8.464,2.867,6.188,4.26,10.335,4.48l116.494,2.275,3.551,4.678c-25.243-.662-50.272.975-75.323,1.219-88.912.905-189.329-4.283-276.434,1.068-3.169.186-6.55.232-7.358,2.345,22.882,1.393,46.147.487,69.05,1.184,97.589,2.948,195.518,4.654,293.17,6.976,33.664.8,75.558-.7,107.988,2.554,83.936,8.4,156.325,5.966,240.58,9.019,17.566.638,35.28,1.927,52.888,2.449l1.361,2.774c-66.413,1.137-132.507.139-198.814-.557-98.1-1.021-199.217-5.688-297.38-1.184-2.914.128-12.823.546-13.823,2.287,39.7,2.461,80.257,1.265,120.216,2.321,22.52.6,45.232,2.89,67.731,3.517,15.673.429,39.214-1.416,53.207-.023,3.658.36,5.976,1.242,5.317,3.471-21.819-.778-43.233,1.091-64.818,2.31-6.3.348-13.355-.488-19.246-.081-4.062.279-2.02,2.217-6.082,2.5-11.441.789-32.111.882-44.679,1.126-54.674,1.033-109.2-3.064-163.768-.058l-3.126,2.321c10.463-.975,20.925.987,30.708,1.207,17.736.395,35.535-1.277,53.143-1.242,67.37.139,146.458.511,212.573,5.862,3.679.3,3.573-.615,3.168,2.287-57.651-1.184-115.473-2.159-173.252-2.368-36.195-.128-81.554-1.5-116.813.046-2.467.1-9.527.36-9.527,2.31a1134.983,1134.983,0,0,1,114.729,4.666l-22.542,3.343-141.1,1.288,1.063,2.31c-4.508.789-2.339-2.054-4.551-2.333-8.506-1.079-20.926.731-29.432.94-6.21.163-14.567-1.439-22.286.244v1.137l16.97,1.161c-34.3.267-69.071.232-103.139,2.275-3.19.2-6.55.267-7.358,2.356,93.208,2.53,186.564,4.248,279.411,9.309,41.958,2.287,84.042,7.649,126.34,6.953l2.19,5.7c-9.038,3.308-13.972,1.137-22.159,1.184-29.24.151-58.2-.952-87.083-1.138-41.468-.267-83,.255-124.447.046.808,2.1,4.189,2.159,7.358,2.345,97.291,5.827,200.026,2.507,297.338,10.528,4.4.371,26.731,2.31,15.673,4.794-5.1,1.149-17.587,1.695-23.818,1.973-65.18,2.832-131.507-.847-196.666,3.54-3.828,1.439,16.077,3.308,18.076,3.459,18.841,1.358,38.512.371,57.269,2.38l153.2,3.366.957,3.529c-1.339.882-28.836.894-32.983,1.161-3.169.209-6.507.917-3.147,2.321l139.269,1.114,49.847,3.529h-87.126l41.468,2.31,63.712,1.184,20.181,2.287H1629.443l-1.276,3.482c17.119-.383,35.131,1.973,51.995,2.379,68.795,1.66,139.439-.2,208.426,1.056,99.311,1.822,198.58,7.452,297.422,12.8,26.8,1.451,54.015,1.764,80.768,3.471,3.168.209,6.508.929,3.147,2.321-73.558-.046-146.669-1.927-220.015-3.424-19.5-.395-39.81-2-59.331-2.414-54.036-1.172-117.685,1.207-170.147-2.24-9.442-.627-16.247-3.575-19.288-8.229l-9.314,1.254,4.232,8.09c-107.328,7.382-215.869-.116-323.75,2.519-71.453,1.741-143.288,5.8-214.848,7.974-45.742,1.381-91.8.789-137.143,4.6l7.358,2.356,151.051,2.217,9.442,2.971-5.317,2.879-136.207,4.515-2.956,2.438c79.428,2.658,159.578-.1,239.027,2.333,41.319,1.265,86.275,5.618,127.467,5.85,21.542.116,43.744-2.8,66.115-.267,6.061.673,11.228,3.041,17.884,2.53-.4,1.532-2.807,2.112-5.38,2.275-8.422.534-29.347-1.184-40.427-1.161-57.247.139-114.729.035-172.1.081-10.208.012-21.712-1.648-32.834-.035.383,1.613,2.871,2,5.422,2.252,38.193,3.807,80.3.778,119,1.184,110.688,1.161,218.973,6,329.364,10.412,3.806.151,6.868-.313,9.42,1.788-3.679,2.554-8.294,2.693-13.674,2.96-55.419,2.739-120.13-2.287-176.378-2.426-10.569-.023-20.394,1.288-29.751,1.265-18.437-.046-134.527-1.962-141.864-.012-2.913.766-1.978,2.948-6.911,3.459-10.123,1.056-38.682-.174-51.059-.267-97.716-.778-197.687-1.079-295.147,5.014-3.275.209-6.422,1.137-9.8,1.033l3.637,3.482c15.439.116,30.942.592,46.317.778,25.668.313,50.208.743,76.514,1.521,9.506.279,19.139-.186,28.645.023l-37.3,3.4-.936,3.529c35,.093,70.241-.046,105.1.093,44.169.174,89.486-.337,133.932,1.091,7.294.232,39.81,1.532,43.616,2.867,4.4,1.88,1.17,3.784-3.211,4.062l-370.811,8.137v3.459l116.855.012c.6,1.555-.744,2.832-3.509,3.285-.829.128-15.822,1.346-16.651,1.346h-30.814c5,3.366,19.182,1.068,26.37,1.637l20.372,1.834c-25.816.348-51.8-.406-77.641-.046-88.231,1.242-177.42,5.618-265.545,9.413-3.573.151-8.506.348-11.866.685-2.382.232-6.72-.313-6.188,1.544h239.048c1.361,0,11.654,2.147,11.654,2.9a17.745,17.745,0,0,1-7.932,2.6c-21.308,2.8-81.49.778-107.924,1.4-44.254,1.068-104.181.963-146.585,4.666-5.614.488-13.1,1.718-15.885,4.666h144.5c-.872,2.321-4.36,1.973-7.464,2.3-58.566,6.245-130.593,4.306-191.2,6.988-120.088,5.293-238.538,19.036-359.136,12.721-52.356-2.739-161.365-14.231-206.554-27.579-16.672-4.921-13.886-9.564-24.009-17.051-14.588-1.462-57.524-8.845-61.182-17.631-4.04-9.68,11.186-12.489,13.929-19.709.893-2.368,1-19.233-.021-21.485-1.85-4.028-14.376-10.029-17.332-13.58-.255-.313-2.871-6.256-2.913-6.593-.659-3.83,10.442-5.687,7.8-10.063-2.19-3.633-44.658-10.052-39.342-19.326,1.318-2.321,7.762-4.794,7.634-7.545-.106-2.4-13.334-7.846-14.439-11.8-1.042-3.691,5.806-9.843,3.594-13.464-1.7-2.762-26.774-8-30.686-14.637-6.465-11,.17-21.9,1.3-32.906l-12.866-3.111c-1.191-.882,8.294-9.158,8.57-11.1.362-2.577-8.74-15.426-12.653-17.376C34.533,209.644-4.575,199.952.444,196.261M1212.039,95.72c9.293,1.439,11.016-.128,17.991-.174,12.823-.093,27.454.731,40.129-.151,3.87-.267,3.445.395,3.147-2.321h-65.86c-.893,3.041.829,2.066,4.593,2.646m169.637,95.887-15.992-2c-21.457-.453-43.446-.139-64.733-.871l-4.274,2.867Zm40.405,109.026,142.374-.046V296.4l-142.374.046ZM1084.189,156.82c.617-.418-2.786-2.31-3.19-2.31-8.7,0-29.474-.917-36.13,0-.7.1-3.254,1.579-3.19,2.31,14.227-.255,28.624,1.358,42.51,0" transform="translate(0 0)" fill="#1a1a1a"/>
    <path id="Path_5" data-name="Path 5" d="M0,.386,3.551,6.212c32.558.383,64.8,1.625,97.355,2.287,51.867,1.056,105.265,2.24,157.2,2.356,50.846.116,101.225-2.229,152.029-1.207l-.021-3.482c-15.885.754-31.814-.94-47.657-1.149C298.359,4.146,233.5,3.67,168.829,2.753,112.666,1.941,56.5-1.054,0,.386" transform="translate(1575.067 244.556)" fill="#45c444"/>
    <path id="Path_6" data-name="Path 6" d="M0,2.409,20.1,5.9C86.4,4.394,165.32,12.322,230.585,8.213c4.657-.29,8.528-.836,11.59-2.925-2.552-2.113-5.614-1.637-9.421-1.788C179.887,1.353,119.875.3,67.008.03,44.53-.086,22.031.03,0,2.409" transform="translate(1802.462 201.965)" fill="#45c444"/>
    <path id="Path_7" data-name="Path 7" d="M0,2.437,1.234,5.908l148.648.023,45.636-2.937C165.7,1.393,135.144.569,105.181.337,97.5.279,89.4,0,81.767,0,54.7.035,26.922,1.207,0,2.437" transform="translate(1271.201 414.081)" fill="#45c444"/>
    <path id="Path_8" data-name="Path 8" d="M0,2.452,22.2,4.8c47.55.418,94.994-.36,142.544-.093,8.166.035,15.226,2.182,24.371.035C190.648,2,185.289,1.64,181.5,1.4,164.342.294,136.016.212,118,.061,78.641-.24,39.15.572,0,2.452" transform="translate(1334.956 61.661)" fill="#45c444"/>
    <path id="Path_9" data-name="Path 9" d="M0,4.916c15.226-.406,30.538.975,45.615,1.207,21.819.325,56.205,1.265,76.663.012,9.08-.546,10.1-3.923,2.02-4.689C116.749.738,99.247.459,90.422.262,79.194.018,2.509-.562.149,1.538Z" transform="translate(1623.936 136.838)" fill="#45c444"/>
    <path id="Path_10" data-name="Path 10" d="M0,0,7.358,2.356,159.366,4.62V0Z" transform="translate(1521.946 119.746)" fill="#45c444"/>
    <path id="Path_11" data-name="Path 11" d="M0,3.309c29.475,2.043,59.629,5.513,89.231,2.31-2.509-2.763-12.887-3.111-18.1-3.447C52.484.953,32.579,1.3,13.823,1,8.4.907.425-2.309,0,3.309" transform="translate(1445.453 218.43)" fill="#45c444"/>
    <path id="Path_12" data-name="Path 12" d="M7.245,1.774c17.735,1.346,38.533,1.37,56.546.975.255-2.681.744-2.066-3.169-2.31C40.76-.838,20.132,1.147.036.451c-.51,1.962,4.508,1.126,7.209,1.323" transform="translate(1468.787 416.057)" fill="#45c444"/>
    <path id="Path_13" data-name="Path 13" d="M0,1.219c11.568,5.653,32.558.348,46.742,1.126L24.541,0Z" transform="translate(1239.302 390.948)" fill="#45c444"/>
  </g>
</svg>
