<?xml version="1.0" encoding="UTF-8"?>
<svg id="Layer_2" data-name="Layer 2" xmlns="http://www.w3.org/2000/svg" viewBox="0 0 766.81 736.04">
  <defs>
    <style>
      .cls-1 {
        fill: #1a1a1a;
      }
    </style>
  </defs>
  <g id="Layer_1-2" data-name="Layer 1">
    <g>
      <path class="cls-1" d="M764.17,452.62c-1.88-5.97-5.95-11.17-7.74-17.23-3.51-11.81-2.97-17.69-9.37-29.58-10.41-19.34-20.49-16.95-35.14-29.78-1.49-1.31-9.55-9.08-9.97-10.01-.19-.44-.25-1.64.49-1.48l13.99,12.97c.8-2.39-1.27-6.5-2.32-8.66-5.1-10.4-10.68-13.66-17.59-21.37-4.48-5-7.15-12.37-11.12-17.84-7.93-10.91-19.28-18.93-28.4-28.52-6.02-6.33-11.96-17.44-20.95-19.08-3.41-.62-5.53,1.02-8.43.6-2.48-.36-24.59-18.78-28.07-21.94-9.19-8.33-18.73-18.15-25.43-28.56l-6.06,1.11-.97-2.54c-2.35,2.03-3.07,2-5.97.99l1.99-2.98-4.76-.21c-1.45-1.6-.67-4.95-1.76-6.75-.64-1.06-2.53-1.09-3.57-3.42-2.13-4.8-2.08-12.34-2.9-17.59l-2.48,1.98c-2.41-4.45-4.26-9.6-9.48-10.96l-1.02,4.98-1.98-1.99-1.02,6.48,3-3.48.86,3.85-3.83,4.13c-1.24-1.22-1.21-6.74-1.44-7.01-.93-1.07-2.96-.37-3.57-1.71-1.42-3.18-2.35-7.79-2.01-11.25l-2.98,5.99-1.02-7.99-2.81,1.18c-1.27,1.9,1.94,8.55-2.16,7.81l1.03-7.43-2.04-9.54v13.98c-1.59.22-1.26-2.74-1.36-3.88-.44-4.79,2.2-10.63-2.62-13.09l-2,6.98-1.02-6.48,2,.5v-11.99l-1.48,1.99-1.51-3.98,3.74-1.46c-.5-4.21-1.18-7.27-2.38-11.23-.19-.63.65-1.83.45-2.15-.32-.51-5.65-2.86-5.8-5.14l17.49,10.97,1.48-.49-2.99-5.49,3.98,1.99c.01-1.74.26-3.53-.23-5.25-.48-1.68-12.57-16.43-14.74-18.93-2.76-3.16-8.2-10.31-12.57-10.77-4.24-.44-5.67,2.89-7.89,2.96-2.07.06-5.96-3.04-10-3.04-6.45-.01-14.53,3.53-20.22,3.84-2.48.14-4.63-1.01-7.64-.71-7.64.78-13.17,9.48-19.13,9.89-4.05.28-10.91-3.35-15.25-2.29-6.5,1.59-6.33,9.05-8.14,9.81-3.62,1.53-7.3.48-12.31,3.52-.76.46-.66,2.02-1.16,1.96-1.2-.14-3.75-2.22-5.37-2.64-8.76-2.29-16.48-.13-25.39-2.58-4.04-1.11-5.22-5.87-8.73-7.74,1.58,3.1,1.43,8.63,5.98,8l-1.99,1.98,4.99,3-3.01.53.92,2.02-1.82.87.91,7.58-1.83-.82c-1.06,3.57-4.2.7-4.17,5.81l-2.98-1,.99,4-1.91-.96-2.1,5.49,4.01,5.44-3.89-.07-1.11-8.91c-2.22.25-.9,2.58-1.95,3.47-4.15,3.54-8.57-.21-13.03-.48,1.82-2.75-.05-5.06.39-8,.84-5.57,7.91-7.27,1.62-12.47l1.99-.5-3-4.99-3.98,2-1.05-4.97-1.92.98c.03-3.78-4.34-4.89-5.03-8.99,2.73-.41,2.39,2.34,4.48,4,1.4,1.11,3.95,1.66,5.5,2.99,1.73-5.2-.23-3.34-1-4.69-1.68-2.96.08-5.16.02-8.3,2.21.17,2.57,4.51,3.11,4.87.8.53,3.7.58,2.87-1.36-.42-.97-7.62-8.85-6.98-9.5,2.76,1.89,5.6,3.11,8.47,4.28,1.05.43-.5,2.38,3.51.7l-3.99-4.48,2.98-2.98-5.97-4.51,8.97,2-4.98-3.5,1.99-.99-1.49-2.51,7.47,5-3.98-5.5,1.75-.66c-1.24-2.69.16-1.21,1.75-2.82l-.4,3.87,4.89,2.1-2-2.97,2.99-1c-3.54-3.74-10.99-2.32-11.97-7l8.99,2.99-.78-1.83,1.68-.21.08-1.93c-5.99-.82-1.71-5.42-4.96-8.52l1.55-1.4,2.28.65.63-1.73,2.49,2.98,1.96-7.38-3.24-1.59-.69-3,8.97,2.99-5.97-5.01,3.97-1.47c-4.5-3.5-7.77-8.17-11.96-12.01-3.16-2.89-9.65-6.41-12.04-9.02-.95-1.04.1-2.32-.01-2.39-1.69-1-8.23-2.23-10.45-5.05l2.5-1.99c-14.28-9.64-32.38-15.39-48.94-20.48-14-4.29-25.15-6.57-39.29-8.58-10.61-1.5-22.83-5.49-33.28-6.5-6.55-.64-12.59,2.62-19.3,2.6l-.52-3.02c-7.91,4.28-15.25,4.64-23.9,6.07l-1.05-2.05-10.29,6.89-10.19,2.6,3.99-4.49c-1.91-.32-2.86,1.34-4.62,1.72-1.71.37-2.95-2.36-3.87,1.28-2.48,1.45.51-3.84-1.98-2.01-2.52,1.86-2.08,9.1-4,3.99-3.99,2.01-5.8,4.76-8.62,7.42-.58.55-2.3.32-2.69.75-.78.85-.11,8.34-2.69,9.8-1.24-1.79,2.56-6.87-.48-7.98l-4.02,18.97-2.48-6.97-2.48,2.48,1.97,1.5,1-2-1,6.98-3-7.97-.99,3-2.98-1.01c.04,3.87,3.89,4.52,3.85,9.55l-2.86,2.42,3.99,3c-5.03.58-8.59-5.49-12.98-3.98l4,3.49-2.02,1c5.74,2.45-.88,2.18-1.98,4.48l3.99,2c-5.77,1.93-10.84,2.44-16.97,2.02l14.97,2.97c-8.51-.07-16.69-2.04-24.96,1.02l4.98,1-2.98,1.98c6.41-1.78,11.86,1.41,17.96.01.5,3.08-.8,1.59-2.49,1.96-3.75.81-7.63,1.25-11.48,1.04l7.98,1v.98l-9.97,1.02c.87,2.86,8-1.36,6.98,2.98l-10.98,1.01c1.35,2.83,6.17-2.03,6.99,1.98l-5.99,1,7.98,2.99-5.98,1.02,3.99,1c-.54,2.21-3.12,1.97-4.99,2l3.98,1.97-6.01.46-.09,4.08-1.87.48,5.96,2.49-4.97,3.48,6.99-.98-1.99,2.5,3.98.5-4,1c1.14,1.82,1.31,2.22-.98,2l2.99.99-3,2.01,3.01,2.48-3,2.48c3.32-.35,1.8,2.9,2.58,4.02.68.98,4.32,2.93,4.03,5.48-.18,1.6-3.59,2.49.18,2.63l-.89,3.27,2.16,1.19-1,2.97,1.93.91-2,4.51,4.38-1.08c3.34,3.6.23,7.24-.38,11.07l2.49-1.99c1.51.76-2.79,6.72-2.5,6.97l2.99-.99-1.99,2.5,2.99.5c-1.54,3.68.06,5.9,4,6-2.85,3.37-1.27,5.8.04,9.25.2.55,1.53.75,1.62.96.46,1.09.22,5.08,1.37,6.75l1.95-1c-.56,4.02-1.89,8.91,4.01,7.01.27.24-1.9,3.82-1.96,4.53-.02.28,3.36.94,1.96,4.44h4c-1.57,5.36.94,6.54,2,11.01l2.98-1.02v6s2.05-.52,2.05-.52l1.45,4.6c.7,1.02,1.93-.35,2.54.49,2.71,3.72,5.71,10.77,4.96,15.4l1.98-4.99c.62,1.92,1.59,6.62,2.57,7.97.96,1.34,3.38.42,2.43,3.01l-1.99.99,2.86.19.2,2.69,3.94.14-.86,1.88,1.84,1.09c-1.49-.54-3.07.76-1.98,2.02.52.6,1.71-2.64,1.69.28-.02,3.49.62.94,1.67,2.78,1.85,3.23,1.98,6.8,5.62,8.42l-1.99,1.48c3.17-.06,2.88,3.57,2.99,6l2.99-.99c-.61,2.36-.76,6.01.08,8.23,1.4,3.7,2.19,6.89,3.55,10.63,1.09,3,3.47,4.24,3.37,7.1l2-.46c.25,4.13-1.2,9.39-1.45,12.95-.17,2.49.77,10.55.34,11.85-.48,1.41-2.77,1.28-2.97,2.32-.22,1.15.81,2.76.59,3.8-1.68,7.8-6.21,16.28-10.45,23.03l1.95,3.43c-4.01,1.45-5.97-2.05-9.98,0l-1-3.99-2,4.99-.44-5.06c-4.72-4.93-24.58,8.91-26.04,12.07-2.05,4.45,2.79,5.64,4.49,8.94-3.5-.22-.54,4.25-3.8,2.22-4.18,7.4-11.54,11.32-16.67,17.77l-1.98-1.98c-5.54,5.12-12.87,7.48-19.4,11.56-7.87,4.9-25.66,17.84-31.59,24.34-.78.85-3.21,4.1-2.45,5.03l4.98-2.5c-2.94,2.16-4.58,5.58-6.93,8.06C-3.96,463.54-1.48,524.82,1.82,569.75c2.71,36.91,23.85,74.37,39.02,107.58,5.26,11.5,11.41,23.51,17.1,35.05,3.89,7.89,6.34,14.93,7.79,23.66h418.48c2.57-26.34.31-52.95.96-79.44.07-2.87,1.01-5.72,1.12-8.96.15-4.54-3.1-8.52,1.39-12.5,29.24-9.7,58.43-19.2,86.94-30.91,10.64-4.37,26.26-13.75,36.45-16.6,3.25-.91,1.48.21,4.69-1.37,35.28-17.3,68.21-32.06,100.49-55.13,27.22-19.46,60.16-39.65,47.92-78.51ZM325.88,366.54c-3.78-2.41-26-8.11-21.43-14.99,3.98,1.95,5.37-5.64,3.99-8.99l3.98,4-1.98-12.98,5.98.98-2.05-11.45,3.05-.52-1.97-6.5,2.96-.49.02-4.99c2.76.75,1.18,3.91.58,5.68-.12.35-1.43.29-1.44.75-.04,1.37,1.08,6.31,2.35,7.54l.51-9.97,1,6.98.99-4.99,1,3.99,2.99-.99c-4.85,5.77-.23,5.44,1.73,8.83,1.63,2.8-.41,8.14,3.25,8.17-6.57,8.39.05,20.94-5.51,29.94ZM351.37,245.69c-1.49.28-1.45-2.58-1.43-3.49.05-3.68,1.35-7.26,1.52-10.97.12-2.74-1.17-5.55-1.1-6.94.03-.6,1.81-.46,2.01-1.23.39-1.47-.95-4.45,1-4.33l-2,26.96ZM416.31,216.73c8.54,1.8,17.27-2.63,25.45-1.99,3.65.29,14.31,2.77,18.13,3.84,1.35.37,3.05.4,3.35,2.13-5.09,1.13-10.33,1.27-15.53,1.06-9.18-.37-19.75-1.8-28.9-3.07-1.87-.26-2.95,1-2.5-1.97ZM368.36,329.57c-.23-.22,2.87-4.33,2.99-5.53.05-.5-1.65-.38-1.78-.92-.33-1.36.21-6.91-.22-7.52l-2.98,1,.98-14.98-2.98,1c-.84-2.64,1.5-1.57,1.97-2.74.31-.78.96-8.73.83-9.77-.02-.24-.56-.44-1.02-3.73-.32-2.29-3.17-1.46,1.21-5.72l-4.99.97c-.39-1.63,1.5-.39,1.96-1.69.66-1.83.08-6.86.32-7.12.33-.35,1.57-.02,1.7-.18.4-.49-4.23-3.72-2.98-5.98l2.98,3-1.98-5.99,2.98.99c-1.72-3.42,2.53-3.95,1.02-8.98l1.97,4.99,2.48-9.04,2.52.06-.99-3.99,4.98,1.99-1.99-3.99c2.57,1.15,3.25-2.07,3.5-2,2.86.75-.18,3.54-.45,4.55l1.94,1.44,1.02-5.99,1.97,1.99,2-5.99c.61,4.72,1.33,9.72,1.05,14.53-1.02,17.27-8.77,35.1-11.88,53.02-1.27,7.31.52,19.58-8.13,22.32ZM600.07,408.47c-2.21.22-3.85.95-6.19.79-6.27-.43-18.06-6.13-23.21-5.76-2.27.16-13.93,2.67-16.53,3.49-2.45.77-5.17,3.29-7.61,3.5-3.33.28-9.36-4.72-10.86-.01-4.62-3.23-9.47-3.05-12.93-8.08-1.2-1.74-.64-4.35-2.82-5.26-3.82-1.6-6.14,1.58-8.16,1.41-.8-.07-.98-2.28-2.02-3.08-6.53-5.02-9.69-1.09-16.8-2.22-2.52-.4-6.33-2.12-8.78-3.19-4.52-1.98-3.87-5.28-10.46-.71-.89-.08-6.38-11.34-13.01-11.81-3.9-.28-7.62,3.48-11.02,3.94-4.05.55-9.85-1.31-14.93-1-3,.19-7.66,2.01-9.84,1.75-3.4-.41-4.07-4.89-9.79-4.5-8.85.61-13.42,4.91-18.29,11.75-.49-.01-4.56-6.77-6.44-7.44-1.14-.4-2.37.62-3.35.47-.26-.04-2.35-3.13-4.2-2.99l7.35-1.15c3.43-4.85-3.12-10.09-2.84-14.27.18-2.84,4.03-6.25,4.94-9.11.83-2.6-2.93.22-2.95-2.43l4.06-.55,1.92-10.96-.97-8.47c.07,3.8-.39,7.74-1.06,11.46-.31,1.77,1.1,2.99-1.95,2.51.21-4.33.53-10.37.08-14.54-.04-.37-3.21-4.89-3.08-6.41,8.4-.78,16.7-10.37,15.98-18.98l-4.01,4.98c-1.33.25-1.03-.39-1.02-1.51.03-1.46,2.94-15.64,3.53-16.43,1.7-2.24,11.03-8.27,14.14-11.37,1.46-1.46,9.91-11.11,10.33-12.14.17-.44-.03-1.02-.01-1.49l-2.99,1.48c2.79-9.19,6.6-17.38,4.99-27.44l-6.45,14.01-2.51.48,3.96-26.92,3-1.07-2.98-2.47c4.6.5,2.61-.78,2-4l4.05.43c2.08,1.41.09,6.46,1.16,8.34.96,1.68,6.69,3.12,8.29,4.19,9.52,6.35,14.46,12.91,26.05,18.89,15.25,7.85,32.22,12.75,47.04,21.87,2.26,1.39,3.6,3.78,6.29,4.21-.34,1.8-1.49,1.51-2.86,1.16l-.62,1.77c4.41,11.95,15.33,20.12,24.45,28.52l-3.09,1.09c-.48,1.16-.82,2.14-.48,3.42,1.35,5.03,13.91,15.96,18.62,18.41,1.38.72,3.37.29,3.9.6.09.05-.69,1.39-.34,1.94.88,1.36,2.91,2.37,3.22,3.69.31,1.33-.83,2.98-.64,4.57,1.06,8.99,9.17,12.26,11.99,17.99,3.06,6.22,3.71,14.27,7.61,21.35,4.72,8.59,10.82,14.68,17.86,21.02.65.59,1.93-.06,1.28,2.28Z"/>
      <path class="cls-1" d="M520.16,164.8c-.32.32-4.87-2.41-5.01-2.66-1.86-3.3.66-11.66-2.97-15.31,5.51-.42,9.98,15.95,7.98,17.97Z"/>
      <path class="cls-1" d="M503.53,112.21s43.59,39.23,52.31,101.35l64.93-6.82c11.34-1.19,20.87-9.01,24.31-19.88,6.98-22.06,13.43-59.68-11.05-86.13-6.67-7.2-16.63-10.37-26.27-8.52l-104.24,20.01Z"/>
    </g>
  </g>
</svg>