<?xml version="1.0" encoding="UTF-8"?>
<svg id="Layer_2" data-name="Layer 2" xmlns="http://www.w3.org/2000/svg" viewBox="0 0 1919.84 510.01">
  <defs>
    <style>
      .cls-1 {
        fill: #1a1a1a;
      }
    </style>
  </defs>
  <g id="Layer_1-2" data-name="Layer 1">
    <path class="cls-1" d="M1485.26,438.31c109.64,41.09,357.47,60.31,357.47,60.31,0,0-211.96-33.24-444.4-126.36-21.44-8.59-124.9-36.88-151.52-42.7-126.13-27.53-272.84-31.4-276.95-31.4,5.34-.65,236.47-27.83,459.42,52.44,130.9,47.12,230.23,90.58,303.16,113.33,90.96,28.38,187.41,32.37,187.41,32.37V0H0v196.98c146.51-16.05,207.28-14.38,280.17,4.43,252.86,65.24,411.95,135.79,571.34,116.17,0,0-224.88-19.97-397.58-112.96-47.56-25.61-104.97-39-157.85-55.62-81.95-25.76-176.4-39.07-189.26-40.81,390.98,48.62,374.89,111.93,589.2,164.24,34.48,8.42,189.97,25.3,269.53,52.68,126.16,43.41,203.37,74.62,261.91,91.17,65.22,18.44,131.15,42.31,198.58,57.55,137.17,30.97,261.27,43.82,356.99,31.62-122.72-14.24-189.69-6.37-346.51-67.88-85.57-33.57-178.6-57.48-333.94-94.84,2.47.35,190.75,23.64,382.67,95.58ZM706,241.43c5.05,1.15,75.98,16.91,151.46,9.71,0,0-199.88-45.9-310.97-104.54,0,0,177.98,54.43,265.67,74.5,152.27,34.85,249.99,24.11,251.39,23.96-1.48.86-105.32,59.78-357.55-3.63Z"/>
  </g>
</svg>