<?xml version="1.0" encoding="UTF-8"?>
<svg id="Layer_2" data-name="Layer 2" xmlns="http://www.w3.org/2000/svg" viewBox="0 0 1230.18 222.25">
  <defs>
    <style>
      .cls-1, .cls-2 {
        fill: #fff;
      }

      .cls-3, .cls-4 {
        fill: #00ad4d;
      }

      .cls-3, .cls-2 {
        stroke: #231f20;
        stroke-miterlimit: 10;
        stroke-width: .92px;
      }
    </style>
  </defs>
  <g id="Layer_1-2" data-name="Layer 1">
    <g>
      <g>
        <path d="M481.01,92.31s.06-.05.09-.07l-.03.03s-.04.02-.06.04Z"/>
        <path d="M481.01,92.31s.06-.05.09-.07l-.03.03s-.04.02-.06.04Z"/>
        <path d="M284.5,116.29l-26.8-35.74,58.11.61-.08-17.17-59.59-.61c-3.22-.04-6.06.82-8.42,2.56-2.4,1.79-4.19,3.95-5.39,6.6-1.19,2.61-1.69,5.48-1.46,8.57.27,3.08,1.37,5.95,3.37,8.66l26.95,35.77-59.73-.63.07,17.15,61.22.64c3.23.05,6.06-.82,8.43-2.56,2.39-1.74,4.15-3.94,5.31-6.58,1.15-2.61,1.61-5.48,1.38-8.57-.26-3.08-1.36-5.96-3.37-8.7Z"/>
        <path d="M451.7,74.82c.01-2.59-.68-4.85-2.04-6.81-1.37-1.92-3.03-3.29-4.98-4.08-1.94-.78-3.99-1-6.21-.57-2.21.39-4.12,1.6-5.71,3.63l-48.2,59.18-48.81-60.21c-1.66-2.04-3.58-3.31-5.77-3.77-2.2-.42-4.3-.3-6.22.47-1.91.73-3.59,2.06-4.89,3.98-1.34,1.89-2.02,4.15-2,6.74l.34,69.81,16.06.16-.26-54.93,43.49,53.68c1.12,1.35,2.33,2.37,3.75,3.06,1.4.66,2.85,1.02,4.34,1.04,1.48.02,2.92-.29,4.37-.96,1.45-.64,2.71-1.64,3.79-2.98l42.95-52.74.29,54.93,16.05.15-.34-69.78Z"/>
        <path d="M559.88,94.84c.01-3.93-.73-7.63-2.12-11.11-1.43-3.5-3.35-6.55-5.71-9.14-2.44-2.62-5.26-4.72-8.51-6.25-3.23-1.49-6.73-2.29-10.41-2.33l-51.61-.56c-3.71-.03-7.15.68-10.4,2.15-3.24,1.47-6.01,3.45-8.41,6.04-2.38,2.57-4.26,5.59-5.62,9.03-1.4,3.41-2.07,7.12-2.03,11.08l.25,50.9,16.2.17-.11-19.02,72.46.73.06,19.04,16.21.17-.25-50.9ZM471.32,108.32l-.07-14.4c0-3.07,1-5.7,2.99-7.84,2.03-2.16,4.5-3.21,7.36-3.15l51.61.52c2.9.05,5.35,1.15,7.41,3.32,2.02,2.2,3.04,4.82,3.05,7.9l.08,14.43-72.43-.78Z"/>
        <path d="M652.21,129.42l-61.62-.64c-2.89-.05-5.35-1.15-7.37-3.34-2.05-2.18-3.05-4.8-3.09-7.88l-.26-50.63-16.2-.18.25,50.64c.03,3.92.73,7.63,2.15,11.09,1.44,3.52,3.32,6.53,5.72,9.12,2.39,2.54,5.24,4.6,8.49,6.13,3.24,1.54,6.69,2.3,10.4,2.34l61.59.64-.06-17.29Z"/>
        <path d="M745.29,130.4l-61.59-.64c-2.89-.06-5.35-1.15-7.37-3.35-2.05-2.17-3.09-4.8-3.09-7.87l-.26-50.6-16.21-.17.26,50.6c-.01,3.92.73,7.65,2.12,11.13,1.43,3.47,3.35,6.48,5.75,9.07,2.39,2.56,5.2,4.61,8.45,6.14,3.28,1.53,6.73,2.3,10.44,2.33l61.6.68-.1-17.32Z"/>
        <path class="cls-3" d="M861.12,122.12c-.43-4.62-2.13-8.88-5.12-12.76,2.95-3.81,4.6-8.04,4.98-12.64.41-4.59-.28-8.89-2.02-12.84-1.72-3.96-4.35-7.3-7.88-10.06-3.53-2.72-7.71-4.11-12.57-4.16l-88.66-.92.39,79,88.67.94c4.85.06,9.04-1.25,12.53-3.9,3.52-2.64,6.08-5.93,7.8-9.85,1.67-3.93,2.32-8.19,1.88-12.81ZM766.19,86.2l72.42.78c2.04.03,3.6.75,4.65,2.15,1.04,1.41,1.58,2.94,1.58,4.68.01,1.74-.48,3.31-1.52,4.68-1.03,1.37-2.58,2.07-4.66,2.04l-72.42-.79-.05-13.54ZM843.47,129.33c-1.03,1.4-2.59,2.06-4.66,2.07l-72.42-.78-.05-13.55,72.42.74c2.07.03,3.59.75,4.64,2.15,1.04,1.41,1.59,2.98,1.59,4.72.01,1.74-.48,3.27-1.52,4.65Z"/>
        <path class="cls-3" d="M878.48,70.09l-16.2-.17.39,79.03,16.21.18-.4-79.04Z"/>
        <path class="cls-3" d="M991.24,81.67c1.07-.74,1.77-1.74,2.09-2.94.31-1.21.29-2.35-.02-3.47-.34-1.11-.96-2.04-1.82-2.83-.94-.75-2.02-1.16-3.28-1.2l-103.76-1.09.06,17.32,69.49.73c-11.5,8.53-22.94,16.98-34.27,25.39-11.37,8.36-22.77,16.77-34.29,25.22-1.06.75-1.74,1.71-2.05,2.93-.31,1.19-.33,2.38.01,3.44.32,1.12.94,2.09,1.83,2.84.91.8,1.99,1.19,3.26,1.2l104.3,1.11-.1-17.33-69.97-.71c11.47-8.53,22.9-17.01,34.27-25.38,11.34-8.4,22.78-16.81,34.25-25.23Z"/>
        <path class="cls-3" d="M1094,72.36l-16.05-.15.27,57.52-66.5-57.5c-1.72-1.55-3.6-2.42-5.62-2.6-2.02-.15-3.91.17-5.66,1.03-1.76.85-3.21,2.17-4.38,4-1.17,1.8-1.75,3.9-1.71,6.3l.33,69.37,16.1.18-.3-57.7,66.36,57.67c1.69,1.55,3.61,2.42,5.66,2.59,2.09.15,4.01-.22,5.76-1.12,1.77-.89,3.21-2.2,4.35-3.96,1.18-1.79,1.76-3.85,1.75-6.26l-.36-69.37Z"/>
        <path class="cls-3" d="M1114.69,72.59l-16.21-.17.4,79,16.2.17-.39-79Z"/>
        <path class="cls-3" d="M1227.41,84.15c1.1-.76,1.77-1.72,2.08-2.94.31-1.18.31-2.33-.01-3.45-.3-1.11-.93-2.04-1.83-2.82-.9-.8-1.98-1.19-3.24-1.21l-103.79-1.09.1,17.33,69.45.73c-11.5,8.53-22.9,16.97-34.27,25.34-11.34,8.41-22.78,16.81-34.26,25.24-1.1.78-1.77,1.74-2.07,2.96-.32,1.18-.3,2.33,0,3.44.31,1.11.94,2.05,1.84,2.84.9.79,2.02,1.18,3.28,1.19l104.31,1.11-.1-17.32-70.01-.75c11.51-8.53,22.9-16.97,34.27-25.38,11.33-8.36,22.78-16.77,34.25-25.22Z"/>
      </g>
      <g>
        <g>
          <path d="M217.85,178.8c-.63-6.73-1.32-13.45-1.99-20.19-.44-4.44-1.95-8.53-4.73-12.01-2.97-3.7-5.97-7.38-8.98-11.05l-13.63-17.41-.81-57.41-.04-3.64,6.31-.83,3.35-15.3L128.79,4.03,49.28,0,0,64.1l13.11,13,4.56-4.86,12.02,60.03,18.72,7.49,65.47,18.14c3.94,4.82,7.89,9.63,11.83,14.45.29.34.57.69,1.04,1.28-3.41-.34-6.48-.6-9.53-.97-4.67-.54-8.98.4-13.05,2.78-6.48,3.8-8.21,12.64-3.43,18.43,2.95,3.58,6.77,5.97,11.22,7.32,15.79,4.83,31.59,9.63,47.37,14.52,1.25.39,2.6,1.09,3.47,2.03,5.02,5.43,12.2,6.03,17.92,1.34,10.3-8.43,20.62-16.85,30.88-25.31,4.7-3.86,6.8-8.9,6.24-14.98Z"/>
          <path d="M14.7,69.62c-.29.38-.73.62-1.2.68-.48.07-.97-.07-1.34-.37l-5.25-4.56c-.74-.61-.88-1.69-.31-2.45L50.69,5.18c.27-.39.67-.65,1.12-.74.07,0,.12-.01.19-.01h.09c.1,0,.19.02.28.06l74.46,3.7v-.09s.09-.01.09-.01c.06.02.12.05.19.08.32-.02.63.04.93.19l62.98,35.32c.5.3.81.81.85,1.39l-.96,5.09c-.2.81-.36,2.06-1.64,1.97l-75,6.14h-.09s-.09.01-.09.01c-.41.02-.81-.11-1.13-.34l-.19-.08c-.04-.05-.08-.12-.11-.18L53.46,19.77,14.7,69.62Z"/>
          <path d="M77.4,141.97c-1.82-.42-3.17-1.97-3.36-3.82l-5.7-67.13-24.81-1.78,9.66,61.89c.09,1.4-.52,2.73-1.6,3.62-1.09.9-2.5,1.25-3.86.9l-12.16-5.7c-1.8-.46-3.11-1.99-3.27-3.83l-11.48-57.07c-.11-1.11.22-2.22.91-3.1l29.89-38.35c.66-.83,1.58-1.4,2.61-1.61,1.18-.21,2.4.08,3.36.8l56.79,36.38,63.83-6.97c1.18-.13,2.38.23,3.29.99.91.74,1.44,1.8,1.54,2.98l.24,56.46c-2.54-.59-5.25-.36-7.67.82-1.68.82-3.18,2.02-4.68,3.2-.39.31-.78.61-1.18.91-.59.45-.98.51-1.68.19-3.98-1.87-7.97-1.92-11.76.44-1.89,1.17-3.58,2.63-5.41,3.99-6.67-3.51-12.24-1.31-17.31,3.77-.46-.55-.74-.92-1.04-1.28-4.05-4.95-8.09-9.92-12.16-14.85-3.78-4.57-10.59-5.85-15.55-2.69-2.74,1.74-5.2,3.92-7.73,5.97-5.8,4.72-6.56,12.33-1.83,18.1,3.84,4.69,7.68,9.38,11.52,14.07l-29.38-7.29Z"/>
          <path d="M213.05,181.32c-.03.49-.08.89-.13,1.29l-.02.13c-.09.47-.19.93-.32,1.38l-.03.11c-.05.13-.08.27-.13.41-.51,1.43-1.3,2.74-2.34,3.89-.16.17-.31.33-.48.49-.33.34-.66.63-.95.87-5.39,4.42-31.12,25.48-31.12,25.48-1.62,1.33-3.33,2.01-5.09,2.01-2.1,0-4.06-.94-5.83-2.82-.96-1-1.99-1.81-3.07-2.42-.44-.24-.9-.46-1.41-.65-.24-.09-.48-.18-.72-.24-7.97-2.43-15.96-4.87-23.93-7.31l-23.95-7.32c-3-.92-5.56-2.37-7.59-4.32-.11-.1-.28-.27-.43-.42-.13-.12-.24-.26-.35-.39l-.1-.1c-.47-.52-.86-1.07-1.19-1.67-.14-.23-.22-.42-.31-.61l-.07-.16c-.13-.32-.22-.59-.3-.85-1.02-3.41.57-6.99,3.99-8.81,2.39-1.27,4.85-1.9,7.32-1.9.5,0,1.01.02,1.51.08,2.26.22,4.53.46,6.79.68,3.6.35,7.19.71,10.77,1.1.55.07,1.06.21,1.59.44l.14.07c.2.1.46.24.77.45.33.23.65.5.96.81.6.62,1.09,1.23,1.52,1.78.24.3.47.59.71.87.27.31.55.36.71.36.17,0,.33-.05.48-.17.31-.26.33-.79.05-1.18-.11-.14-.24-.3-.37-.46l-.28-.33c-5.31-6.48-10.61-12.96-15.91-19.45-2.84-3.47-5.68-6.94-8.52-10.4l-.47-.56c-5.27-6.44-10.55-12.84-15.83-19.26-1.87-2.24-2.43-5.27-1.48-7.91.09-.21.18-.42.27-.62v-.19l.59-.87c.34-.49.74-.94,1.18-1.35.24-.21.49-.41.76-.6,1.24-.88,2.43-1.87,3.67-2.94.58-.5,1.15-.99,1.74-1.46,1.61-1.31,3.39-1.99,5.14-1.99,1.56,0,3.86.53,5.94,3.06,6.43,7.86,12.85,15.7,19.29,23.55,2.09,2.55,4.16,5.09,6.25,7.64l.17.2s.09.1.16.16c.02.02.05.05.08.08.11.09.21.14.32.2.06.01.2.05.2.05,0,0,.22-.02.22-.02,0,0,.18-.05.19-.05l.1-.09.14-.14s.02-.04.03-.05c.23-.42.02-.81-.19-1.08-1.57-1.94-3.16-3.89-4.76-5.83-.62-.74-1.24-1.51-1.86-2.28l-3.14-3.83,2.6-2.11c.43-.34.83-.71,1.24-1.06.49-.43.96-.84,1.45-1.24.29-.24.62-.48.95-.71l.17-.11.53-.33c1.07-.65,2.25-.98,3.46-.98,2.17,0,4.35,1.06,5.81,2.81.41.5.84,1.02,1.27,1.56l2.03,2.47c2.15,2.63,4.31,5.27,6.48,7.9l.4.5s.08.09.12.14c.13.12.24.22.34.29.06.03.14.08.22.11.07.02.12.05.18.06.03,0,.07,0,.1,0,.07,0,.12,0,.19-.02,0,0,.11-.05.23-.16l.09-.09.06-.05s.02-.05.04-.08c.09-.23.06-.45-.04-.69-.1-.21-.21-.4-.37-.58l-9.6-11.76,2.59-2.11c.36-.3.73-.61,1.09-.92.26-.22.51-.44.77-.65.32-.27.67-.55,1.02-.82.29-.24.61-.47.94-.7.05-.02.58-.41.58-.41l.09-.03.49-.22c.51-.23.99-.36,1.3-.43l.15-.03c.22-.04.46-.08.69-.1.19-.02.41-.03.65-.03.21,0,.43.01.67.03.19.02.42.06.65.09.29.05.57.13.84.21h.13l.65.28c.43.19.85.42,1.24.68.36.22.74.52,1.12.89l.08.08c.18.17.35.35.49.52l.14.14c2.16,2.64,4.33,5.28,6.48,7.92l.72.88c.62.77,1.22,1.5,1.83,2.24l1.01,1.23c.39.47.77.63,1,.63.09,0,.21-.02.4-.17.52-.45.13-1.09-.15-1.44l-1.49-1.81s-2.34-2.88-2.36-2.91c-.6-.72-1.2-1.44-1.79-2.18l-.95-1.15c-.2-.26-.33-.41-.47-.59-.22-.26-.39-.47-.55-.68l-1.99-2.55,2.51-2.06c.38-.31.73-.61,1.09-.91.72-.6,1.4-1.16,2.09-1.7l.39-.3,3.58-1.41h.61c2.34-.01,4.49,1.02,5.97,2.82,1.6,1.94,3.17,3.87,4.75,5.8l6.37,7.77c3.06,3.75,6.14,7.5,9.21,11.23,1.72,2.09,2.98,4.45,3.72,7.02l.2.79c.13.59.23,1.11.31,1.61l.1.83c.69,6.75,1.34,13.48,2,20.22.07.63.08,1.32.05,2.01Z"/>
        </g>
        <path class="cls-2" d="M213,179.31c-.66-6.74-1.31-13.48-2-20.22l-.1-.84c-.03-.18-.06-.37-.1-.57-.06-.33-.13-.67-.21-1.03l-.2-.79c-.11-.38-.23-.76-.37-1.13-.03-.11-.07-.22-.12-.32-.07-.21-.15-.42-.24-.62-.09-.22-.18-.44-.28-.65-.04-.09-.08-.18-.13-.27-.11-.23-.22-.46-.34-.69-.17-.32-.35-.63-.53-.94-.16-.27-.33-.53-.51-.79-.18-.28-.38-.55-.58-.82-.2-.27-.41-.54-.62-.8-1.44-1.75-2.87-3.5-4.32-5.25,0,0,0,0,0,0-.09-.11-.18-.22-.29-.34,0,0,.01,0,0-.01-.77-.93-1.53-1.86-2.29-2.8l-2.31-2.82-6.37-7.76c-1.57-1.94-3.15-3.87-4.75-5.81-1.47-1.8-3.63-2.83-5.97-2.83h-.61s-3.58,1.42-3.58,1.42l-.39.3c-.21.17-.42.33-.63.5-.14.11-.27.21-.4.32h0c-.13.11-.26.22-.39.33-.22.18-.44.36-.67.55-.35.3-.71.6-1.08.91l-2.51,2.06,1.98,2.56c.17.21.34.42.56.67.13.18.27.34.47.59l.95,1.16c.59.73,1.19,1.45,1.79,2.17.02.02,2.36,2.91,2.36,2.91l1.49,1.81c.29.35.67,1,.15,1.44-.19.14-.31.17-.4.17-.23,0-.61-.17-1-.64l-1.01-1.23c-.6-.74-1.2-1.47-1.83-2.24l-.72-.88c-2.15-2.64-4.31-5.28-6.48-7.92l-.13-.14c-.15-.17-.3-.34-.49-.52l-.08-.08c-.37-.37-.76-.67-1.12-.89-.39-.26-.81-.49-1.24-.68l-.64-.28h-.14c-.28-.07-.55-.15-.84-.21-.23-.03-.47-.06-.66-.09-.23-.02-.45-.03-.66-.03-.24,0-.46.01-.65.03-.23.03-.46.06-.68.1l-.16.04c-.06.01-.12.03-.19.05-.07.02-.14.04-.22.06-.05.01-.11.03-.16.04h0s-.04.02-.06.02c-.1.04-.2.07-.3.11-.12.04-.24.09-.37.15l-.49.22-.08.04h-.01v.02c-.05.02-.14.08-.23.14-.01.02-.02.02-.04.03h0s-.07.05-.1.08c-.03.02-.05.03-.07.05,0,0-.02.01-.02.01h0s-.03.02-.04.03c-.01.01-.02.02-.03.02h-.01s-.03.03-.03.03c-.33.23-.66.45-.94.7-.36.26-.7.55-1.03.82-.25.21-.51.43-.76.65-.36.31-.72.62-1.09.92l-2.58,2.11,9.59,11.76c.16.18.27.37.37.58.04.1.08.21.08.31.02.11,0,.21-.03.32,0,.02,0,.04-.01.06-.01.02-.02.04-.03.05-.01.02-.01.03-.01.03l-.05.04h-.01l-.08.09c-.06.05-.12.09-.17.12-.04.03-.07.04-.07.04-.06.01-.12.02-.19.02-.03,0-.06,0-.1-.01-.05-.02-.11-.04-.17-.06-.08-.03-.17-.08-.22-.11-.1-.07-.22-.17-.35-.29-.04-.04-.09-.09-.12-.13l-.4-.5c-2.17-2.63-4.33-5.27-6.48-7.9l-2.03-2.48c-.42-.53-.86-1.05-1.27-1.55-1.46-1.75-3.64-2.81-5.81-2.81-1.21,0-2.4.33-3.46.98l-.54.33-.16.11c-.34.23-.67.48-.96.71-.37.3-.72.6-1.08.92-.12.1-.24.21-.37.32-.41.35-.81.72-1.24,1.06l-2.6,2.11,3.14,3.83c.62.76,1.24,1.53,1.86,2.27,1.6,1.94,3.19,3.89,4.76,5.83.04.04.07.09.11.15.07.1.13.22.16.34.02.09.03.19.01.29.01.03,0,.06-.01.1-.01.06-.04.12-.08.19-.01.01-.02.04-.03.06-.04.04-.09.09-.14.14l-.1.09s-.19.06-.19.06c0,0-.21.01-.22.02,0,0-.15-.04-.2-.06-.06-.02-.12-.05-.17-.08-.05-.04-.11-.07-.16-.11h0s-.05-.06-.07-.08c-.07-.06-.14-.14-.16-.16l-.17-.2c-2.08-2.54-4.16-5.08-6.24-7.63-6.44-7.85-12.86-15.69-19.29-23.55-.39-.47-.79-.88-1.19-1.22-.11-.1-.22-.19-.33-.28-.36-.27-.71-.5-1.06-.69-.11-.06-.21-.11-.32-.17-.74-.36-1.45-.55-2.09-.64-.11,0-.22-.02-.33-.03-.06-.02-.11-.02-.16-.02-.16-.02-.32-.02-.46-.02-.18,0-.35,0-.53.02-.05,0-.09.01-.13.02-.05,0-.1,0-.15.01-.15.02-.31.04-.47.07-.02,0-.04.01-.06.02-.21.03-.42.08-.63.14-.22.07-.43.14-.65.22h0c-.11.05-.22.09-.32.14-.06.02-.11.04-.16.08-.1.04-.2.08-.3.14-.59.29-1.18.67-1.74,1.13-.58.48-1.16.97-1.74,1.47-1.24,1.06-2.43,2.06-3.67,2.94-.27.19-.52.39-.76.6-.44.41-.84.86-1.18,1.35l-.59.87v.19c-.09.2-.18.41-.27.62-.95,2.64-.39,5.67,1.48,7.91,5.28,6.41,10.56,12.82,15.83,19.25l.47.57c2.84,3.46,5.68,6.92,8.52,10.4,5.31,6.49,10.61,12.97,15.92,19.45l.27.33c.14.16.26.31.37.46.29.39.27.92-.04,1.17-.07.06-.15.1-.23.13-.08.02-.16.04-.25.04-.08,0-.19-.01-.32-.06-.06-.03-.13-.06-.19-.11-.03-.02-.07-.05-.1-.08-.03-.03-.07-.06-.1-.1-.25-.29-.48-.58-.71-.88-.43-.55-.92-1.16-1.52-1.78-.31-.31-.63-.57-.97-.81-.3-.2-.56-.34-.76-.44l-.15-.07c-.27-.11-.52-.21-.78-.28-.13-.03-.25-.07-.37-.09h-.03c-.09-.02-.18-.04-.28-.05-.04-.01-.08-.01-.12-.02-3.59-.39-7.18-.75-10.78-1.1-2.26-.22-4.53-.46-6.79-.68-.5-.05-1.01-.08-1.51-.08-1.24,0-2.47.16-3.7.48-1.22.32-2.43.79-3.62,1.42h-.01c-.2.11-.4.23-.59.35-.01,0-.02.01-.02.01-.13.08-.24.16-.36.24-.01,0-.01.02-.01.02-.04.02-.09.05-.13.08-.06.04-.11.08-.16.13-.05.03-.09.06-.13.1h-.01c-.05.04-.09.08-.13.11-.1.08-.19.16-.28.25-.13.12-.26.24-.38.37s-.24.26-.36.4c-.11.13-.22.27-.32.41-.2.28-.38.58-.55.88-.07.13-.14.26-.2.4-.01.02-.02.04-.02.06h-.01s-.03.07-.04.11c-.06.12-.11.24-.15.36-.03.08-.06.17-.08.25,0,.01,0,.02-.01.03-.02.07-.05.13-.07.2-.04.14-.08.28-.11.43-.01.03-.02.06-.03.1-.02.1-.04.2-.05.3-.01.05-.02.1-.02.15-.01.04-.02.08-.02.12-.02.13-.03.25-.04.38,0,.17-.02.33-.02.5,0,.35.03.69.08,1.04s.12.69.23,1.03c.08.27.17.54.3.86l.07.15c.09.19.17.38.31.61.13.22.26.44.4.65.14.21.29.42.45.62.11.14.22.27.34.4l.09.1h.01c.06.07.11.13.17.19.05.07.11.14.18.2.16.15.32.32.43.42.51.48,1.05.94,1.62,1.36.58.43,1.18.82,1.82,1.18.31.18.64.35.97.52.33.16.67.32,1.02.46.69.3,1.41.56,2.16.79l23.95,7.33c7.98,2.44,15.97,4.88,23.94,7.31.24.07.49.16.72.25.26.1.5.2.73.31s.45.22.68.34c1.09.61,2.12,1.42,3.07,2.42,1.77,1.88,3.73,2.82,5.83,2.82,1.76,0,3.47-.68,5.09-2.01,0,0,25.72-21.06,31.12-25.48.29-.23.62-.52.95-.86.17-.16.32-.33.48-.49,1.04-1.16,1.83-2.47,2.34-3.9.06-.14.09-.27.13-.41l.04-.11c.13-.44.23-.91.32-1.37l.02-.14c.06-.4.1-.8.13-1.29.03-.68.02-1.37-.05-2ZM209.73,181.17c-.03.32-.06.64-.1.95-.07.36-.15.72-.25,1.06-.03.1-.05.2-.1.31-.08.23-.16.45-.27.67-.03.07-.06.13-.1.2-.07.17-.16.34-.26.5-.03.05-.06.1-.09.15-.12.22-.27.42-.42.63-.17.22-.35.44-.54.65-.02.03-.05.06-.08.09-.09.09-.17.18-.26.26-.23.24-.49.47-.75.69-10.37,8.48-20.72,16.97-31.1,25.46-.13.11-.25.2-.38.3-.26.18-.51.34-.76.47s-.49.23-.74.31c-.09.03-.18.06-.28.08-.57.13-1.13.13-1.69-.01-.29-.08-.57-.19-.86-.34-.28-.15-.56-.34-.84-.56-.28-.23-.56-.48-.84-.78-.14-.15-.28-.29-.44-.44-.15-.14-.3-.29-.45-.43-.3-.28-.62-.55-.94-.8-.37-.3-.77-.58-1.17-.84-.28-.19-.58-.36-.88-.53-.58-.32-1.18-.6-1.8-.84-.24-.09-.49-.18-.74-.25-.07-.03-.14-.06-.21-.07-4-1.22-7.99-2.44-11.98-3.66-4-1.22-7.99-2.44-11.97-3.66-7.98-2.45-15.96-4.89-23.95-7.33-2.36-.72-4.51-1.85-6.27-3.54-.12-.11-.26-.24-.38-.37-.12-.12-.24-.25-.37-.38-.29-.34-.54-.69-.73-1.05-.06-.12-.12-.24-.17-.36-.07-.17-.14-.33-.18-.49-.58-1.92.28-3.91,2.34-5.01,2.15-1.14,4.45-1.71,6.92-1.45,1.46.15,2.93.3,4.39.44,2.93.29,5.86.58,8.78.88,1.47.14,2.93.29,4.39.45.09.01.19.04.29.07.1.03.2.06.3.11.06.03.13.07.19.11.06.04.13.08.19.12.09.06.18.12.26.19s.16.15.24.22c.74.76,1.36,1.66,2.06,2.47,1.5,1.74,4.02,2.01,5.77.62.14-.11.27-.23.39-.35.06-.07.12-.13.17-.2.05-.05.1-.11.14-.17.06-.07.11-.15.16-.22.07-.11.14-.22.19-.34.02-.02.03-.05.04-.07.08-.16.15-.33.21-.5.05-.14.09-.29.11-.43.03-.13.05-.25.07-.38.09-.73-.01-1.48-.3-2.19-.13-.32-.3-.63-.52-.92-.12-.15-.24-.31-.37-.45-.12-.15-.24-.3-.37-.45-5.31-6.49-10.62-12.97-15.92-19.46-3-3.66-5.99-7.32-8.99-10.97-5.27-6.43-10.55-12.85-15.85-19.26-1.13-1.37-1.45-3.15-.91-4.66.11-.31.27-.61.47-.9h0c.2-.3.43-.57.7-.81.13-.12.28-.23.43-.34,1.95-1.37,3.74-3.02,5.59-4.54,1.02-.82,2.04-1.23,3.03-1.23.15,0,.3.01.44.03.11.01.23.03.34.06.12.03.25.06.37.11.01-.01.02,0,.03.01.08.02.17.06.25.1.07.02.14.06.21.1.08.03.15.07.23.12.03.01.07.03.1.06.1.06.2.13.3.2.24.18.48.39.71.62.07.07.14.14.19.21.06.07.13.14.19.22,6.43,7.85,12.86,15.7,19.29,23.55,2.13,2.61,4.27,5.22,6.42,7.83.12.14.24.28.36.4.14.13.26.24.4.35.3.25.63.44.96.59.11.05.22.09.33.13.08.03.15.05.23.07.07.02.15.04.22.07.15.03.3.05.45.08.12,0,.24.02.36.02.06.01.13.01.18.01.09,0,.18-.03.27-.04.19-.02.38-.04.55-.08.09-.01.18-.04.27-.07.28-.09.55-.19.81-.34.31-.17.59-.39.84-.66.04-.03.07-.08.1-.11.22-.23.42-.5.59-.8.86-1.5.68-3.33-.52-4.79-1.58-1.94-3.16-3.89-4.77-5.84-.74-.89-1.48-1.8-2.23-2.71-.21-.26-.43-.53-.65-.79.23-.19.46-.38.69-.58.34-.29.67-.58,1-.87s.67-.57,1-.84c.25-.21.52-.4.79-.59.17-.12.35-.23.53-.34.26-.16.54-.28.83-.35.14-.04.29-.07.43-.09.07,0,.14-.02.2-.02.08-.01.16-.01.25-.01,1.2,0,2.42.61,3.25,1.61.43.51.85,1.03,1.28,1.55.23.29.46.57.7.86,1.29,1.58,2.59,3.17,3.89,4.75,1.29,1.59,2.59,3.17,3.89,4.76.07.07.13.14.18.21.06.07.12.15.18.22.12.16.26.3.39.43.28.28.55.51.85.71.3.19.6.35.92.47.2.07.4.13.6.18.21.04.41.06.61.09.41.02.81-.03,1.21-.13.13-.03.27-.08.4-.13.13-.05.26-.11.39-.18.13-.06.26-.14.38-.22.12-.08.24-.17.36-.27.06-.05.12-.09.18-.14.06-.05.11-.11.16-.17.22-.21.4-.45.55-.69.16-.26.28-.52.37-.78.33-.94.28-2.01-.18-3.04-.2-.47-.48-.92-.83-1.36-2.13-2.6-4.26-5.21-6.46-7.9-.34-.42-.69-.84-1.03-1.26.65-.53,1.27-1.09,1.9-1.61.31-.27.62-.52.94-.77.25-.21.52-.4.8-.57.03-.03.05-.05.09-.07.01-.01.03-.02.04-.03.01-.01.03-.02.05-.04.13-.09.27-.16.42-.22h.01c.22-.11.45-.18.69-.23.12-.02.24-.05.36-.06.24-.02.47-.02.71,0,.14.01.27.04.4.06.29.05.57.14.85.25h.01c.25.11.5.25.73.4.24.16.46.34.68.53h0c.11.12.23.24.33.36.02.03.04.06.08.09,2.41,2.93,4.8,5.86,7.2,8.79.94,1.16,1.9,2.32,2.84,3.47,1.7,2.08,4.27,2.45,6.11.9h.01c1.02-.86,1.51-2.04,1.44-3.28-.01-.18-.03-.35-.07-.53-.14-.78-.51-1.55-1.09-2.27-.5-.61-1-1.21-1.5-1.82-.74-.92-1.49-1.84-2.25-2.78-.03-.04-.06-.07-.1-.12-.6-.72-1.2-1.45-1.8-2.18-.32-.39-.63-.78-.96-1.18-.16-.2-.31-.39-.48-.59-.08-.09-.16-.19-.24-.29-.08-.1-.16-.2-.25-.3h.01c1.13-.92,2.11-1.77,3.12-2.56.11-.08.21-.17.33-.24.12-.09.24-.18.36-.24.14-.1.29-.16.45-.23.12-.05.24-.1.36-.13.16-.05.3-.08.46-.11.2-.04.41-.06.61-.06,1.23-.01,2.48.54,3.37,1.62,1.59,1.93,3.16,3.86,4.74,5.79.59.73,1.17,1.44,1.76,2.16,4.03,4.91,8.05,9.84,12.1,14.74,0,.01,0,.01,0,.01.58.7,1.15,1.4,1.73,2.1.07.08.13.16.19.25.17.21.33.43.48.64.16.22.31.44.45.66.12.17.23.34.32.52.13.21.25.41.36.62.53,1,.96,2.05,1.28,3.15.06.21.12.43.17.65.1.45.19.89.26,1.33.02.22.05.44.07.66.68,6.74,1.34,13.46,1.99,20.2.04.36.06.73.06,1.08,0,.16,0,.31-.01.46Z"/>
        <path d="M163.28,101.36c.21,2.18-1.38,4.05-3.55,4.25l-12.52,4.32c-2.18.21-4.14-1.36-4.35-3.54l-1.7-18.07c-.21-2.18,1.38-4.14,3.55-4.34l14.12-2.93c2.18-.21,4.05,1.38,4.25,3.55l.2,16.76Z"/>
        <path class="cls-1" d="M191.87,45.07l-.97,5.09c-.2.81-.37,2.06-1.64,1.98l-74.99,6.14h-.09s-.09.01-.09.01c-.41.02-.81-.11-1.13-.34l-.19-.08c-.04-.06-.08-.12-.11-.18L53.46,19.76,14.7,69.62c-.29.38-.73.62-1.2.68-.48.07-.97-.07-1.34-.37l-5.25-4.56c-.74-.61-.88-1.69-.31-2.45L50.69,5.18c.27-.39.67-.65,1.12-.74.07,0,.12-.01.19-.01h.09c.1,0,.19.02.28.06l74.46,3.71v-.09s.09-.01.09-.01c.06.02.12.06.19.08.32-.02.63.04.93.19l62.98,35.32c.5.3.81.81.85,1.39Z"/>
        <path class="cls-2" d="M183.04,60.16c-.1-1.18-.64-2.23-1.55-2.98s-2.12-1.12-3.29-.98l-63.83,6.96L57.58,26.79c-.96-.72-2.17-1.01-3.36-.8-1.03.21-1.95.78-2.61,1.61l-29.89,38.35c-.69.88-1.02,1.99-.91,3.1l11.48,57.07c.17,1.84,1.48,3.37,3.28,3.83l12.16,5.7c1.37.35,2.77,0,3.86-.9,1.08-.89,1.69-2.22,1.6-3.62l-9.67-61.89,24.82,1.78,5.7,67.13c.19,1.85,1.54,3.39,3.36,3.81l29.39,7.3c-3.84-4.7-7.68-9.38-11.52-14.08-4.73-5.77-3.97-13.38,1.83-18.1,2.53-2.05,4.99-4.22,7.73-5.97,4.97-3.15,11.77-1.87,15.55,2.7,4.07,4.93,8.11,9.9,12.17,14.85.29.35.58.72,1.04,1.27,5.07-5.08,10.64-7.27,17.31-3.77,1.83-1.35,3.53-2.82,5.41-3.98,3.8-2.37,7.78-2.31,11.77-.45.7.33,1.08.26,1.67-.19.4-.29.79-.59,1.18-.91,1.5-1.17,3.01-2.37,4.68-3.19,2.42-1.18,5.13-1.41,7.67-.82l-.24-56.46ZM147.21,109.93c-.32.03-.64.02-.95-.03-.09,0-.17-.02-.26-.04-.12-.02-.23-.05-.35-.09-.14-.04-.29-.1-.43-.16-.12-.05-.24-.11-.36-.18-.35-.2-.67-.45-.95-.74-.09-.09-.17-.18-.23-.28-.09-.09-.15-.19-.21-.29-.07-.1-.13-.2-.19-.31-.22-.43-.37-.91-.42-1.42l-1.69-18.07c-.21-2.17,1.37-4.14,3.55-4.34l14.11-2.93c1.15-.11,2.22.28,3,1,.09.07.17.16.25.25.24.26.44.56.6.88.05.1.09.19.13.29.01.02.02.04.03.06.04.11.07.22.1.33s.06.22.08.33c.03.13.05.27.06.41l.2,16.76c.03.32.02.64-.02.94-.01.09-.03.18-.05.26-.03.14-.06.27-.1.39-.21.64-.59,1.21-1.08,1.66-.12.11-.25.21-.38.31-.02.01-.04.02-.06.04-.14.09-.29.18-.44.25-.21.11-.44.19-.68.26s-.48.12-.74.14l-12.52,4.32Z"/>
        <path class="cls-4" d="M180.82,60.27c-.05-.41-.22-.95-.74-1.38-.39-.32-.9-.5-1.4-.5-.08,0-.16,0-.24,0l-64.61,7.06L56.39,28.66l-.14-.09c-.37-.28-.81-.43-1.26-.43-.13,0-.25,0-.32.02-.52.11-.99.4-1.31.8l-29.9,38.36c-.32.41-.48.91-.45,1.42l11.48,57.06v.12c.09.9.74,1.65,1.62,1.88l.21.05,12.13,5.69c.11.02.23.03.34.03.49,0,.97-.18,1.39-.53.52-.44.81-1.04.8-1.68l-10.08-64.53,29.49,2.11,5.86,68.98c.09.92.76,1.67,1.69,1.89l22.9,5.68-7.29-8.9c-2.66-3.26-3.92-7.19-3.52-11.08.39-3.89,2.41-7.5,5.67-10.15.53-.43,1.05-.86,1.57-1.29,2.01-1.66,4.09-3.38,6.37-4.83,2.15-1.36,4.66-2.08,7.27-2.08,4.29,0,8.47,1.96,11.18,5.24,2.87,3.47,5.73,6.97,8.59,10.47l3.13,3.83c3.52-3,7.05-4.47,10.73-4.47,2,0,4.05.45,6.1,1.35.21-.17.44-.34.65-.51,1.22-.95,2.48-1.93,3.85-2.78,2.29-1.42,4.73-2.14,7.26-2.14,2.03,0,4.13.47,6.29,1.42.28-.22.57-.44.87-.68l.11-.09c1.54-1.2,3.12-2.45,4.97-3.36,1.85-.89,3.85-1.35,5.94-1.35.15,0,.31,0,.47.01l-.23-53.83ZM164.13,105.62c-.99,1.19-2.36,1.95-3.9,2.17l-12.54,4.32-.26.03c-.2.02-.41.02-.61.02-3.21,0-5.86-2.39-6.17-5.57l-1.69-18.05c-.16-1.66.33-3.28,1.4-4.57,1.02-1.23,2.44-2,4.02-2.18l14.12-2.94h.12c.2-.03.4-.03.6-.03,3.17,0,5.78,2.4,6.07,5.58v.09s.21,16.76.21,16.76c.13,1.6-.35,3.14-1.37,4.37Z"/>
        <path class="cls-2" d="M191.87,45.07l-.97,5.09c-.2.81-.37,2.06-1.64,1.98l-74.99,6.14h-.09s-.09.01-.09.01c-.41.02-.81-.11-1.13-.34l-.19-.08c-.04-.06-.08-.12-.11-.18L53.46,19.76,14.7,69.62c-.29.38-.73.62-1.2.68-.48.07-.97-.07-1.34-.37l-5.25-4.56c-.74-.61-.88-1.69-.31-2.45L50.69,5.18c.27-.39.67-.65,1.12-.74.07,0,.12-.01.19-.01h.09c.1,0,.19.02.28.06l74.46,3.71v-.09s.09-.01.09-.01c.06.02.12.06.19.08.32-.02.63.04.93.19l62.98,35.32c.5.3.81.81.85,1.39Z"/>
        <path class="cls-4" d="M8.63,63.92L52.32,6.7l74.88,3.73,62.35,34.97-.81,4.3s-.05.23-.06.26l-74.45,6.09L52.95,16.8,13.22,67.92l-4.59-3.99Z"/>
        <path class="cls-2" d="M213.05,181.32c-.03.49-.08.89-.13,1.29l-.02.13c-.09.47-.19.93-.32,1.38l-.03.11c-.04.13-.08.27-.13.41-.51,1.43-1.3,2.74-2.34,3.9-.16.17-.31.33-.48.49-.33.34-.67.63-.95.87-5.39,4.42-31.12,25.48-31.12,25.48-1.62,1.33-3.33,2.01-5.09,2.01-2.1,0-4.06-.94-5.83-2.82-.95-1-1.99-1.81-3.07-2.42-.44-.24-.9-.45-1.41-.65-.23-.09-.48-.18-.72-.24-7.97-2.43-15.96-4.87-23.94-7.31l-23.95-7.32c-3-.92-5.56-2.37-7.59-4.32-.11-.1-.28-.27-.43-.42-.13-.12-.24-.26-.36-.39l-.1-.1c-.47-.52-.85-1.07-1.19-1.66-.13-.23-.22-.42-.31-.61l-.07-.16c-.13-.32-.22-.59-.3-.85-1.02-3.41.57-6.99,3.99-8.81,2.39-1.27,4.85-1.9,7.32-1.9.5,0,1.01.02,1.51.08,2.26.22,4.53.45,6.79.68,3.6.36,7.19.71,10.78,1.1.55.07,1.05.21,1.59.44l.14.07c.2.1.47.24.77.44.33.23.65.5.97.81.6.62,1.09,1.23,1.52,1.78.23.3.47.59.71.88.27.31.55.36.71.36.18,0,.33-.06.48-.17.31-.26.33-.79.04-1.18-.11-.14-.23-.3-.37-.45l-.28-.33c-5.3-6.48-10.61-12.96-15.91-19.45-2.84-3.47-5.68-6.94-8.52-10.4l-.47-.57c-5.27-6.44-10.55-12.84-15.84-19.25-1.86-2.24-2.43-5.27-1.48-7.91.09-.21.18-.42.27-.62v-.19l.59-.87c.34-.49.74-.94,1.19-1.35.23-.21.49-.41.75-.6,1.24-.88,2.43-1.88,3.67-2.94.58-.5,1.15-.99,1.74-1.46,1.61-1.31,3.38-1.99,5.14-1.99,1.56,0,3.86.53,5.94,3.06,6.43,7.86,12.85,15.7,19.29,23.55,2.09,2.55,4.16,5.09,6.25,7.63l.17.2s.09.1.16.16c.02.02.04.06.08.08.11.09.21.14.32.2.06.01.2.06.2.06.01-.01.22-.02.22-.02,0,0,.18-.06.19-.06l.1-.09c.06-.06.1-.1.14-.14.01-.02.02-.04.03-.06.23-.42.02-.81-.19-1.08-1.58-1.94-3.16-3.88-4.76-5.83-.62-.74-1.24-1.51-1.86-2.27l-3.14-3.83,2.6-2.11c.43-.34.83-.71,1.24-1.05.49-.43.97-.84,1.45-1.24.29-.23.62-.48.95-.71l.17-.11.53-.33c1.07-.64,2.25-.98,3.46-.98,2.18,0,4.35,1.05,5.81,2.81.41.5.84,1.02,1.27,1.55l2.03,2.47c2.15,2.63,4.31,5.27,6.48,7.9l.4.5s.08.09.12.13c.13.12.24.22.34.29.06.03.14.08.22.11.07.02.12.04.18.06.03.01.07.01.1.01.07,0,.12-.01.19-.02,0,0,.11-.04.23-.16l.09-.09.06-.04s.02-.04.04-.08c.09-.23.06-.45-.04-.69-.1-.21-.21-.4-.37-.58l-9.6-11.76,2.59-2.11c.37-.3.73-.61,1.09-.92.26-.22.51-.44.77-.65.32-.27.67-.55,1.02-.82.29-.24.61-.47.94-.7.04-.02.58-.41.58-.41l.09-.03.49-.22c.51-.23.99-.36,1.3-.43l.16-.03c.22-.04.45-.08.69-.1.19-.02.41-.03.64-.03.21,0,.43.01.67.03.19.02.42.06.65.09.29.06.57.13.84.21h.13l.64.28c.43.19.85.42,1.24.68.36.22.74.52,1.12.89l.08.08c.18.18.34.36.49.52l.13.14c2.16,2.64,4.33,5.28,6.48,7.92l.72.88c.62.77,1.22,1.5,1.83,2.24l1.01,1.23c.39.47.77.63,1,.63.09,0,.21-.02.4-.17.52-.44.13-1.09-.16-1.44l-1.49-1.81s-2.34-2.89-2.36-2.91c-.6-.72-1.2-1.44-1.79-2.18l-.95-1.15c-.2-.26-.33-.41-.47-.59-.22-.26-.39-.47-.55-.68l-1.99-2.55,2.51-2.06c.38-.31.73-.61,1.09-.91.72-.6,1.4-1.17,2.09-1.7l.39-.3,3.58-1.41h.61c2.34-.01,4.49,1.02,5.97,2.82,1.6,1.94,3.17,3.87,4.75,5.8l6.37,7.77c3.06,3.75,6.14,7.5,9.21,11.23,1.72,2.09,2.97,4.45,3.72,7.02l.2.79c.13.59.23,1.11.31,1.61l.1.83c.69,6.75,1.34,13.48,2,20.22.07.63.08,1.32.06,2.01Z"/>
        <path d="M209.73,181.17c-.02.32-.06.64-.1.95-.07.36-.14.71-.24,1.05-.03.1-.06.2-.1.31-.36,1.02-.91,1.95-1.68,2.8-.11.12-.22.24-.34.36-.23.24-.49.47-.75.69-10.36,8.48-20.72,16.97-31.09,25.46-2.26,1.86-4.36,1.63-6.39-.52-1.15-1.21-2.44-2.24-3.88-3.04-.58-.32-1.18-.6-1.8-.84-.31-.12-.63-.23-.95-.33-7.99-2.43-15.97-4.87-23.95-7.31-7.98-2.44-15.96-4.88-23.95-7.32-2.36-.72-4.51-1.85-6.27-3.54-.12-.11-.26-.24-.38-.37-.12-.12-.23-.26-.36-.39-.3-.33-.54-.69-.74-1.04-.07-.12-.12-.24-.18-.37-.07-.17-.13-.32-.18-.49-.58-1.92.28-3.91,2.34-5,2.15-1.14,4.45-1.71,6.92-1.45,5.85.6,11.71,1.14,17.56,1.78.19.02.39.09.59.18.13.07.26.13.38.22.19.12.36.27.5.41.74.77,1.36,1.66,2.06,2.47,1.5,1.74,4.02,2.01,5.77.62,1.73-1.38,2.02-3.93.65-5.77-.23-.31-.49-.6-.73-.9-5.32-6.49-10.62-12.97-15.92-19.46-3-3.66-5.99-7.31-8.99-10.96-5.27-6.44-10.55-12.85-15.85-19.26-1.13-1.36-1.45-3.15-.91-4.66.12-.31.28-.61.47-.9h0c.2-.3.43-.57.7-.81.13-.12.28-.23.43-.34,1.95-1.36,3.74-3.02,5.59-4.54,2.26-1.83,4.56-1.62,6.39.61,6.43,7.86,12.85,15.7,19.29,23.55,2.13,2.62,4.27,5.23,6.41,7.83.12.14.24.28.37.4.13.13.26.24.4.36.4.32.84.55,1.29.72.16.04.31.09.45.13.14.03.3.06.44.08.12.01.24.02.37.02.06.01.12.01.18.01.09,0,.18-.03.27-.04.19-.01.38-.03.55-.08.09-.01.18-.03.27-.07.28-.09.55-.19.81-.34.31-.17.59-.39.84-.65.03-.03.07-.08.1-.11.22-.23.42-.5.59-.8.85-1.5.68-3.33-.52-4.79-1.58-1.94-3.16-3.88-4.77-5.84-.95-1.15-1.91-2.33-2.87-3.51.93-.75,1.79-1.56,2.69-2.29.26-.21.52-.4.79-.59.18-.11.36-.22.53-.33.53-.32,1.11-.48,1.71-.48,1.2,0,2.42.61,3.25,1.61.43.51.85,1.03,1.28,1.55.23.29.47.58.69.85h.01c2.6,3.17,5.18,6.34,7.79,9.51.12.14.23.29.36.43.12.16.26.3.39.43.28.28.55.51.85.71.3.19.6.34.92.47.2.07.4.13.6.18.21.04.41.07.61.09.41.02.81-.02,1.21-.12.53-.14,1.05-.41,1.53-.8.12-.1.23-.2.33-.31.22-.21.4-.45.55-.7.16-.26.28-.51.37-.78.33-.94.28-2.01-.18-3.04-.2-.47-.48-.92-.83-1.35-2.13-2.61-4.26-5.22-6.46-7.9-.34-.42-.69-.84-1.03-1.27.65-.53,1.28-1.09,1.9-1.61.31-.27.62-.52.94-.77.26-.21.52-.4.8-.58.03-.02.06-.04.09-.07.03-.02.06-.04.09-.06.13-.09.28-.17.42-.23h.01c.22-.11.45-.18.69-.23.12-.02.24-.04.37-.06.23-.02.47-.02.71,0,.13.01.27.03.4.06.29.06.57.14.84.26h.01c.26.11.5.24.73.4.24.16.47.33.68.53.11.11.23.23.33.36.02.03.04.06.08.09,2.41,2.93,4.81,5.86,7.2,8.79.94,1.17,1.9,2.32,2.84,3.47,1.7,2.08,4.27,2.45,6.11.9,1.82-1.52,1.94-4.05.29-6.08-.5-.61-1-1.21-1.5-1.82-.74-.92-1.5-1.84-2.25-2.77-.03-.04-.07-.08-.1-.12-.6-.72-1.2-1.45-1.8-2.19-.32-.39-.63-.78-.97-1.18-.16-.2-.31-.39-.48-.59-.16-.19-.32-.39-.48-.59,1.12-.92,2.11-1.78,3.12-2.56l2.56-1.01c1.23-.01,2.49.54,3.37,1.62,1.59,1.93,3.16,3.86,4.74,5.79.59.72,1.18,1.43,1.76,2.15,4.61,5.62,9.2,11.25,13.83,16.86,1.44,1.75,2.46,3.7,3.08,5.84.06.21.11.43.17.65.1.44.19.89.26,1.32.02.22.06.44.08.67.68,6.74,1.33,13.46,1.99,20.2.06.52.07,1.04.04,1.54Z"/>
      </g>
    </g>
  </g>
</svg>