<svg xmlns="http://www.w3.org/2000/svg" xmlns:xlink="http://www.w3.org/1999/xlink" width="2456.825" height="719.147" viewBox="0 0 2456.825 719.147">
  <defs>
    <clipPath id="clip-path">
      <rect id="Rectangle_6" data-name="Rectangle 6" width="2421.588" height="510.033" transform="translate(0 0)" fill="#1a1a1a"/>
    </clipPath>
  </defs>
  <g id="Group_4" data-name="Group 4" transform="matrix(-0.996, -0.087, 0.087, -0.996, 2412.373, 719.147)" clip-path="url(#clip-path)">
    <path id="Path_4" data-name="Path 4" d="M.473,300.789c38.2,6.039,7.958,11.125,7.369,20.617-.227,3.651,7.618,9.912,13.014,12.165l-9.046,3.094,6.779,6.15-7.709,1.163c-6.3,5.408,8.412,4.715,12.311,6.881,2.086,1.163,1.542,3.49,2.7,4.047,5.056,2.45,14.556,2.71,27.457,9.752,1.36.742,5.056.458,8.049,2.376,6.983,4.492,3.56,13.773,8.82,19.936,2.811,3.279,10.86,6.621,13.558,9.912,3.22,3.948,2.313,8.118,4.943,12.128,1.972,3.057,11.132,7.994,11.4,8.625,1.383,3.279-20.36,4.665-20.541,11.051-.113,4.2,4.217,6.3,10.633,7.932,25.8,6.6,41.808,5.928,68.857,9.405,21.244,2.723,38.77,6.831,49.789,17.313-3.378,2.945-11.155.854-14.715,3.057-3.99,2.487-4.988,8.675,2.9,9.591,23.058,3.18,46.388,6.571,68.993,10.556,31.583,5.569,69.99,15.221,101.324,18.872,26.754,3.118,70.421,3.849,98.58,4.319,196.934,3.267,392.757-20.9,589.147-17.238l60.037-1.361-3.786-3.49-186.505-2.685c-1.61-3.255,4.512-2.958,8.3-3.168,30.971-1.794,71.736,2.735,104,.78,53.009-3.193,112.66-2.327,167.392-2.624,68.358-.371,136.988,1.262,205.142-1.176-.862-2.252-4.466-2.3-7.867-2.512-16.392-1-35.392.272-52.1-.025-83.48-1.448-167.982-2.4-251.462-3.688-26.89-.421-53.848.953-80.51-1.188l5.646-2.475q-208.712.278-416.9-3.7l-3.356-2.463,173.219-6.237c47.295-2.9,101.482,4.43,147.236,2.549,13.4-.557,20.383-4.208,27.343-4.95,10.52-1.139,26.119.792,37.342-.037l-37.523-2.426-5.509-2.5c27.751-.2,55.049-3.911,82.6-5,20.292-.8,41.219,1.015,61.171-1.238,90.01-4.034,197.342,5.643,285.334-.062,2.789-.186,5.328-1.064,8.14-1.139-.386-1.671-3.061-2.153-5.759-2.4-11.971-1.1-37.8-1.015-51.852-1.287-116.628-2.19-243.1,1.5-358.091-3.725-4.942-.223-9.658-1.448-14.737-1.225,3.832-4.331,16.415-1.448,24.146-3.613,155.013-2.822,311.2,1.151,466.443-2.512,27.457-.643,55-3.737,82.6-3.762v-3.7l-95.157-1.237,4.965-2.784,19.952-3.378c-8.91-.4-29.293,1.535-31.7-4.95,58.79-1.46,118.192.111,176.8-3.094l4.421-3.094c-17.684.235-35.528-.334-53.212.012-22.492.446-48.633,3.552-70.262,3.774-18.388.186-42.375-2.426-61.08-2.6-61.556-.594-123.2-.272-184.736-1.2l1.111-3.713-5.691,3.725-5.668-3.428c-5.351-.941-5.85,2.128-7.051,2.228-20.927,1.584-69.854-1.3-92.3-2.661-3.2-.186-13.785-.656-14.986-2.3,98.376-3.774,196.775-1.237,295.719-2.438,43.214-.52,100.3-.557,142.293-4.257,4.422-.384,8.389-1.633,12.81-1.992,0-2.079-7.55-2.351-10.18-2.463-59.4-2.586-124.178,2.4-181.29-1.2-5.283-.334-12.9-1.25-12.4-4.962,117.263-9.393,236.384-5.482,354.191-12.561l2.743-.978,1-3.762-238.7-.173c-9.024-3.057,6.6-4.542,11.019-4.777l124.2-2.426,3.786-4.987c-26.912.705-53.6-1.04-80.306-1.3-94.794-.965-201.854,4.566-294.721-1.138-3.378-.2-6.983-.248-7.845-2.5,24.4-1.485,49.2-.52,73.618-1.262,104.045-3.143,208.452-4.962,312.564-7.437,35.891-.854,80.556.742,115.131-2.723,89.489-8.96,166.667-6.361,256.5-9.616,18.728-.681,37.614-2.054,56.387-2.611l1.451-2.958c-70.807-1.213-141.273-.148-211.967.594-104.589,1.089-212.4,6.064-317.053,1.262-3.106-.136-13.672-.582-14.737-2.438,42.33-2.624,85.566-1.349,128.168-2.475,24.01-.643,48.224-3.081,72.212-3.75,16.709-.458,41.808,1.51,56.727.025,3.9-.384,6.371-1.324,5.668-3.7-23.262.829-46.093-1.163-69.106-2.463-6.711-.371-14.238.52-20.519.087-4.33-.3-2.154-2.364-6.484-2.661-12.2-.842-34.235-.941-47.635-1.2-58.291-1.1-116.424,3.267-174.6.062l-3.333-2.475c11.155,1.039,22.31-1.052,32.739-1.287,18.909-.421,37.886,1.361,56.659,1.324,71.827-.148,156.146-.544,226.635-6.249,3.922-.322,3.809.656,3.378-2.438-61.465,1.262-123.112,2.3-184.713,2.525-38.589.136-86.95,1.6-124.54-.049-2.63-.111-10.158-.384-10.158-2.463a1210.061,1210.061,0,0,0,122.318-4.975l-24.033-3.564-150.433-1.374,1.134-2.463c-4.806-.842-2.494,2.19-4.852,2.487-9.069,1.151-22.31-.78-31.379-1-6.62-.173-15.531,1.534-23.761-.26V276.1l18.093-1.238c-36.571-.285-73.641-.247-109.962-2.426-3.4-.21-6.983-.285-7.845-2.512,99.374-2.7,198.906-4.529,297.9-9.925,44.733-2.438,89.6-8.155,134.7-7.413l2.335-6.076c-9.636-3.527-14.9-1.213-23.625-1.262-31.175-.161-62.055,1.015-92.844,1.213-44.212.285-88.491-.272-132.68-.049.861-2.24,4.466-2.3,7.845-2.5,103.727-6.212,213.258-2.673,317.008-11.224,4.693-.4,28.5-2.463,16.71-5.111-5.442-1.225-18.75-1.807-25.393-2.1-69.492-3.019-140.207.9-209.676-3.774-4.081-1.534,17.14-3.527,19.272-3.688,20.088-1.448,41.06-.4,61.057-2.537l163.333-3.589,1.02-3.762c-1.428-.94-30.744-.953-35.165-1.237-3.378-.223-6.938-.978-3.356-2.475l148.483-1.188,53.145-3.762h-92.89L1886.584,197l67.927-1.262,21.516-2.438H1737.239l-1.36-3.713c18.252.408,37.456-2.1,55.435-2.537,73.346-1.77,148.664.21,222.214-1.126,105.881-1.943,211.717-7.945,317.1-13.65,28.568-1.547,57.589-1.881,86.111-3.7,3.378-.223,6.938-.99,3.356-2.475-78.425.049-156.373,2.054-234.571,3.651-20.791.421-42.443,2.129-63.256,2.574-57.611,1.25-125.47-1.287-181.4,2.388-10.067.668-17.322,3.812-20.564,8.774l-9.93-1.337,4.512-8.625c-114.428-7.871-230.15.124-345.168-2.685-76.18-1.856-152.768-6.188-229.061-8.5-48.769-1.473-97.877-.842-146.216-4.9l7.845-2.512,161.043-2.364,10.067-3.168-5.668-3.069L1222.5,141.51l-3.151-2.6c84.682-2.834,170.135.111,254.84-2.487,44.053-1.349,91.983-5.99,135.9-6.237,22.967-.124,46.638,2.982,70.489.285,6.461-.718,11.971-3.242,19.067-2.7-.431-1.633-2.993-2.252-5.736-2.425-8.979-.569-31.289,1.262-43.1,1.237-61.035-.148-122.319-.037-183.49-.087-10.883-.012-23.148,1.757-35.006.037.408-1.72,3.061-2.128,5.781-2.4,40.72-4.059,85.612-.829,126.876-1.262,118.01-1.238,233.46-6.4,351.153-11.1,4.058-.161,7.323.334,10.044-1.906-3.922-2.723-8.842-2.871-14.578-3.156-59.085-2.921-128.078,2.438-188.047,2.586-11.268.025-21.743-1.374-31.719-1.349-19.657.049-143.427,2.091-151.249.012-3.106-.817-2.108-3.143-7.368-3.688-10.792-1.126-41.241.186-54.437.285-104.181.829-210.765,1.151-314.673-5.346-3.491-.223-6.847-1.213-10.452-1.1l3.877-3.712c16.46-.124,32.989-.631,49.381-.829,27.366-.334,53.53-.792,81.576-1.621,10.135-.3,20.405.2,30.54-.025L1279.253,88.3l-1-3.762c37.319-.1,74.888.049,112.048-.1,47.091-.186,95.406.359,142.792-1.163,7.777-.248,42.443-1.634,46.5-3.057,4.693-2,1.247-4.034-3.424-4.331L1180.831,67.21V63.522l124.586-.012c.635-1.658-.794-3.02-3.741-3.5-.884-.136-16.868-1.436-17.753-1.436h-32.853c5.328-3.589,20.451-1.139,28.114-1.745l21.72-1.955c-27.524-.371-55.231.433-82.778.05-94.068-1.324-189.157-5.99-283.113-10.036-3.809-.161-9.069-.371-12.651-.73-2.539-.248-7.164.334-6.6-1.646h254.863c1.451,0,12.425-2.289,12.425-3.094a18.918,18.918,0,0,0-8.457-2.772c-22.718-2.982-86.881-.829-115.063-1.5-47.182-1.139-111.073-1.027-156.282-4.975-5.986-.52-13.966-1.832-16.937-4.975h154.06c-.93-2.475-4.648-2.1-7.958-2.45-62.44-6.658-139.232-4.591-203.849-7.45C700.535,9.654,574.249-5,445.672,1.734c-55.82,2.921-172.04,15.172-220.219,29.4-17.775,5.247-14.805,10.2-25.6,18.179-15.553,1.559-61.329,9.43-65.229,18.8-4.308,10.321,11.926,13.316,14.851,21.013.952,2.525,1.066,20.505-.023,22.906-1.973,4.294-15.327,10.692-18.478,14.479-.272.334-3.061,6.67-3.106,7.029-.7,4.084,11.132,6.064,8.321,10.729-2.335,3.873-47.612,10.717-41.944,20.6,1.406,2.475,8.276,5.111,8.14,8.044-.113,2.562-14.216,8.365-15.395,12.585-1.111,3.935,6.19,10.494,3.832,14.355-1.814,2.945-28.545,8.526-32.716,15.6-6.893,11.732.181,23.352,1.383,35.083l-13.717,3.317c-1.27.941,8.842,9.764,9.137,11.831.386,2.747-9.318,16.446-13.49,18.525-4.6,2.3-46.3,12.635-40.947,16.57M1292.222,407.982c9.908-1.534,11.744.136,19.181.186,13.672.1,29.27-.78,42.783.161,4.126.285,3.673-.421,3.356,2.475h-70.217c-.952-3.242.884-2.2,4.9-2.822m180.859-102.23-17.05,2.129c-22.877.483-46.32.148-69.015.928l-4.557-3.057Zm43.078-116.239,151.793.05v4.467l-151.793-.049ZM1155.914,342.839c.658.445-2.97,2.463-3.4,2.463-9.273,0-31.424.978-38.521,0-.748-.111-3.469-1.683-3.4-2.463,15.168.272,30.517-1.448,45.322,0" transform="translate(0 0)" fill="#1a1a1a"/>
    <path id="Path_5" data-name="Path 5" d="M0,11.167,3.786,4.954C38.5,4.546,72.87,3.222,107.582,2.517,162.88,1.39,219.811.128,275.177,0,329.388-.119,383.1,2.38,437.264,1.291L437.241,5c-16.936-.8-33.918,1-50.809,1.225C318.1,7.157,248.945,7.665,180,8.642,120.119,9.508,60.241,12.7,0,11.167" transform="translate(1679.266 237.721)" fill="#1a1a1a"/>
    <path id="Path_6" data-name="Path 6" d="M0,7.462,21.426,3.737C92.119,5.346,176.257-3.107,245.839,1.274c4.965.309,9.092.891,12.357,3.118-2.721,2.252-5.986,1.745-10.044,1.906C191.788,8.588,127.805,9.714,71.441,10,47.476,10.122,23.489,10,0,7.462" transform="translate(1921.704 284.677)" fill="#1a1a1a"/>
    <path id="Path_7" data-name="Path 7" d="M0,3.725,1.315.025,159.8,0l48.655,3.131c-31.787,1.708-64.367,2.586-96.313,2.834-8.185.062-16.823.359-24.962.359C58.314,6.286,28.7,5.037,0,3.725" transform="translate(1355.298 62.235)" fill="#1a1a1a"/>
    <path id="Path_8" data-name="Path 8" d="M0,3.454,23.67.954c50.7-.445,101.279.384,151.974.1,8.706-.037,16.234-2.327,25.983-.037,1.632,2.921-4.081,3.3-8.117,3.564-18.3,1.176-48.5,1.262-67.7,1.423C83.843,6.325,41.74,5.459,0,3.454" transform="translate(1423.27 438.224)" fill="#1a1a1a"/>
    <path id="Path_9" data-name="Path 9" d="M0,1.974C16.234,2.407,32.558.935,48.633.687,71.895.341,108.556-.662,130.367.675c9.681.582,10.769,4.183,2.154,5-8.049.755-26.708,1.052-36.117,1.262C84.433,7.2,2.675,7.815.159,5.575Z" transform="translate(1731.368 356.928)" fill="#1a1a1a"/>
    <path id="Path_10" data-name="Path 10" d="M0,4.925,7.845,2.413,169.909,0V4.925Z" transform="translate(1622.631 377.44)" fill="#1a1a1a"/>
    <path id="Path_11" data-name="Path 11" d="M0,3.85C31.424,1.672,63.574-2.029,95.134,1.387,92.459,4.332,81.395,4.7,75.84,5.062c-19.884,1.3-41.106.928-61.1,1.25C8.956,6.411.454,9.839,0,3.85" transform="translate(1541.077 269.776)" fill="#1a1a1a"/>
    <path id="Path_12" data-name="Path 12" d="M7.725,1.276C26.633-.159,48.807-.184,68.011.237c.272,2.859.794,2.2-3.378,2.463C43.457,4.061,21.464,1.944.039,2.687-.506.6,4.845,1.487,7.725,1.276" transform="translate(1565.955 63.285)" fill="#1a1a1a"/>
    <path id="Path_13" data-name="Path 13" d="M0,2.814c12.334-6.027,34.712-.371,49.835-1.2l-23.67,2.5Z" transform="translate(1321.289 89.108)" fill="#1a1a1a"/>
  </g>
</svg>
