<svg xmlns="http://www.w3.org/2000/svg" xmlns:xlink="http://www.w3.org/1999/xlink" width="2220.986" height="756.413" viewBox="0 0 2220.986 756.413">
  <defs>
    <clipPath id="clip-path">
      <rect id="Rectangle_6" data-name="Rectangle 6" width="2178.49" height="457.68" fill="#1a1a1a"/>
    </clipPath>
  </defs>
  <g id="Group_4" data-name="Group 4" transform="translate(2157.29 756.413) rotate(-172)" clip-path="url(#clip-path)">
    <path id="Path_4" data-name="Path 4" d="M.426,187.767c34.368-5.419,7.159-9.983,6.629-18.5-.2-3.276,6.853-8.895,11.708-10.916l-8.138-2.776,6.1-5.519-6.935-1.044c-5.67-4.853,7.567-4.231,11.075-6.174,1.877-1.044,1.387-3.132,2.427-3.631,4.549-2.2,13.095-2.432,24.7-8.751,1.224-.666,4.548-.411,7.241-2.132,6.282-4.031,3.2-12.36,7.934-17.89,2.529-2.943,9.77-5.941,12.2-8.895,2.9-3.542,2.08-7.285,4.447-10.883,1.774-2.743,10.014-7.174,10.259-7.74C91.313,79.972,71.752,78.729,71.589,73c-.1-3.765,3.794-5.652,9.566-7.118,23.211-5.919,37.611-5.319,61.944-8.44,19.112-2.443,34.878-6.13,44.791-15.536-3.039-2.643-10.035-.766-13.237-2.743-3.59-2.232-4.487-7.784,2.611-8.606C198.007,27.7,219,24.66,239.33,21.084c28.412-5,62.964-13.659,91.152-16.935C354.55,1.351,393.834.7,419.167.273c177.164-2.932,353.33,18.756,530,15.469l54.01,1.222L999.775,20.1l-167.782,2.41c-1.448,2.921,4.059,2.654,7.465,2.843,27.862,1.61,64.535-2.454,93.559-.7C980.7,27.513,1034.368,26.736,1083.6,27c61.5.333,123.236-1.133,184.548,1.055-.775,2.021-4.018,2.065-7.078,2.254-14.746.9-31.838-.244-46.871.022-75.1,1.3-151.118,2.154-226.218,3.309-24.19.378-48.442-.855-72.428,1.066l5.079,2.221q-187.76-.25-375.052,3.32l-3.019,2.21,155.83,5.6c42.547,2.6,91.3-3.976,132.455-2.288,12.054.5,18.337,3.776,24.6,4.442,9.464,1.022,23.5-.711,33.593.033l-33.756,2.177-4.956,2.243c24.965.178,49.523,3.509,74.3,4.486,18.255.722,37.081-.911,55.03,1.11,80.974,3.62,177.531-5.064,256.691.055,2.508.167,4.793.955,7.322,1.022-.347,1.5-2.753,1.932-5.181,2.154-10.769.988-34,.911-46.647,1.155C1086.93,66.613,973.158,63.3,869.706,67.99c-4.446.2-8.689,1.3-13.257,1.1,3.447,3.887,14.767,1.3,21.722,3.243,139.451,2.532,279.963-1.033,419.618,2.254,24.7.577,49.482,3.354,74.3,3.376v3.32l-85.6,1.111,4.467,2.5,17.949,3.032c-8.016.355-26.352-1.377-28.515,4.442,52.889,1.31,106.328-.1,159.052,2.776l3.977,2.776c-15.909-.211-31.961.3-47.87-.011-20.233-.4-43.75-3.187-63.209-3.387-16.542-.167-38.121,2.177-54.948,2.332-55.377.533-110.835.244-166.191,1.077l1,3.331-5.119-3.342-5.1,3.076c-4.814.844-5.262-1.91-6.344-2-18.826-1.421-62.842,1.166-83.035,2.388-2.876.167-12.4.589-13.482,2.065,88.5,3.387,177.021,1.11,266.032,2.188,38.876.466,90.234.5,128.008,3.82,3.978.344,7.547,1.466,11.524,1.788,0,1.866-6.792,2.11-9.158,2.21-53.439,2.321-111.712-2.154-163.091,1.077-4.753.3-11.606,1.122-11.157,4.453,105.491,8.429,212.655,4.919,318.635,11.271l2.467.877.9,3.376-214.735.156c-8.118,2.743,5.936,4.075,9.913,4.286l111.732,2.176,3.406,4.475c-24.211-.633-48.217.933-72.244,1.166-85.278.866-181.591-4.1-265.135,1.022-3.039.178-6.282.222-7.057,2.243,21.947,1.333,44.26.466,66.227,1.133,93.6,2.821,187.527,4.453,281.187,6.674,32.288.766,72.469-.666,103.574,2.443,80.506,8.04,149.936,5.708,230.746,8.628,16.847.611,33.838,1.843,50.726,2.343l1.306,2.654c-63.7,1.088-127.091.133-190.687-.533-94.09-.977-191.075-5.441-285.225-1.133-2.795.122-12.3.522-13.258,2.188,38.081,2.354,76.977,1.21,115.3,2.221,21.6.577,43.383,2.765,64.963,3.365,15.033.411,37.612-1.355,51.033-.022,3.508.344,5.731,1.188,5.1,3.32-20.927-.744-41.466,1.044-62.168,2.21-6.038.333-12.809-.466-18.459-.078-3.9.266-1.938,2.121-5.833,2.387-10.974.755-30.8.844-42.854,1.077-52.439.988-104.736-2.932-157.074-.055l-3,2.221c10.035-.933,20.07.944,29.452,1.155,17.011.378,34.083-1.222,50.972-1.188,64.616.133,140.471.489,203.884,5.608,3.528.289,3.426-.589,3.038,2.188-55.294-1.133-110.753-2.065-166.17-2.265-34.715-.122-78.221-1.432-112.038.044-2.366.1-9.138.344-9.138,2.21a1091.324,1091.324,0,0,1,110.039,4.464l-21.62,3.2-135.331,1.233,1.02,2.21c-4.324.755-2.243-1.966-4.365-2.232-8.158-1.033-20.07.7-28.229.9-5.956.156-13.971-1.377-21.375.233v1.088l16.276,1.11c-32.9.255-66.248.222-98.924,2.177-3.059.189-6.282.255-7.057,2.254,89.4,2.421,178.939,4.064,267.99,8.906,40.242,2.188,80.607,7.318,121.176,6.652l2.1,5.452c-8.668,3.165-13.4,1.088-21.253,1.133-28.046.144-55.826-.911-83.524-1.088-39.773-.255-79.608.244-119.361.044.775,2.01,4.018,2.066,7.057,2.243,93.314,5.575,191.85,2.4,285.184,10.072,4.222.355,25.639,2.21,15.033,4.586-4.9,1.1-16.868,1.621-22.844,1.888-62.516,2.71-126.134-.811-188.628,3.387-3.672,1.377,15.419,3.165,17.337,3.309,18.071,1.3,36.938.355,54.928,2.276l146.937,3.22.918,3.376c-1.285.844-27.658.855-31.634,1.111-3.04.2-6.242.877-3.019,2.221l133.577,1.066,47.809,3.376H1657.42l39.774,2.21,61.109,1.133,19.356,2.188H1562.843l-1.224,3.331c16.419-.366,33.7,1.888,49.869,2.276,65.984,1.588,133.741-.189,199.907,1.011,95.252,1.743,190.463,7.129,285.266,12.248,25.7,1.388,51.808,1.688,77.467,3.32,3.038.2,6.24.888,3.018,2.221-70.552-.044-140.675-1.843-211.022-3.276-18.7-.378-38.182-1.91-56.907-2.31-51.827-1.122-112.874,1.155-163.192-2.143-9.057-.6-15.584-3.42-18.5-7.873l-8.933,1.2,4.059,7.74c-102.941,7.063-207.045-.111-310.517,2.41-68.533,1.666-137.432,5.552-206.067,7.629-43.873,1.322-88.052.755-131.537,4.4l7.057,2.254,144.877,2.121,9.057,2.843-5.1,2.754-130.64,4.32-2.835,2.332c76.181,2.543,153.055-.1,229.257,2.232,39.63,1.21,82.749,5.375,122.256,5.6,20.662.111,41.956-2.676,63.413-.255,5.812.644,10.769,2.909,17.153,2.421-.387,1.466-2.692,2.021-5.16,2.177-8.077.511-28.148-1.133-38.774-1.11-54.907.133-110.039.033-165.069.078-9.79.011-20.824-1.577-31.492-.033.367,1.543,2.753,1.91,5.2,2.154,36.632,3.642,77.017.744,114.139,1.133,106.164,1.11,210.023,5.741,315.9,9.961,3.65.144,6.587-.3,9.035,1.71-3.529,2.443-7.955,2.576-13.115,2.832-53.153,2.621-115.22-2.187-169.169-2.321-10.138-.022-19.561,1.233-28.535,1.21-17.683-.044-129.028-1.876-136.065-.011-2.795.733-1.9,2.821-6.629,3.309-9.709,1.011-37.1-.166-48.972-.255-93.722-.744-189.606-1.033-283.084,4.8-3.141.2-6.16,1.088-9.4.988l3.488,3.331c14.808.111,29.677.566,44.424.744,24.619.3,48.156.711,73.387,1.455,9.117.266,18.357-.178,27.474.022l-35.776,3.254-.9,3.376c33.572.089,67.37-.044,100.8.089,42.364.167,85.828-.322,128.457,1.044,7,.222,38.182,1.466,41.833,2.743,4.221,1.8,1.122,3.62-3.08,3.887l-355.654,7.785v3.309l112.079.011c.571,1.488-.714,2.71-3.366,3.143-.8.122-15.175,1.288-15.97,1.288h-29.555c4.793,3.22,18.4,1.022,25.292,1.566l19.54,1.755c-24.761.333-49.686-.389-74.468-.044-84.625,1.188-170.168,5.375-254.692,9.006-3.426.144-8.158.333-11.381.655-2.284.222-6.445-.3-5.935,1.477h229.277c1.306,0,11.177,2.054,11.177,2.776a17.046,17.046,0,0,1-7.608,2.487c-20.437,2.676-78.159.744-103.512,1.344-42.446,1.022-99.923.922-140.594,4.464-5.385.466-12.564,1.644-15.236,4.464H935.934c-.836,2.221-4.182,1.888-7.159,2.2-56.172,5.974-125.255,4.12-183.385,6.685-115.18,5.064-228.788,18.212-344.457,12.171C350.716,453.5,246.163,442.51,202.821,429.74c-15.991-4.708-13.319-9.15-23.028-16.313-13.992-1.4-55.173-8.462-58.681-16.868-3.875-9.261,10.729-11.949,13.36-18.856.857-2.265.959-18.4-.02-20.555-1.775-3.853-13.788-9.594-16.623-12.993-.245-.3-2.754-5.985-2.794-6.307-.632-3.665,10.015-5.441,7.485-9.628-2.1-3.476-42.833-9.617-37.734-18.49,1.265-2.221,7.445-4.586,7.322-7.218-.1-2.3-12.789-7.507-13.849-11.294-1-3.531,5.568-9.417,3.447-12.882-1.632-2.643-25.679-7.651-29.432-14-6.2-10.527.163-20.955,1.244-31.482l-12.34-2.976c-1.142-.844,7.955-8.762,8.22-10.616.347-2.465-8.383-14.758-12.136-16.624C33.121,200.57-4.388,191.3.426,187.767M1162.5,91.577c8.914,1.377,10.566-.122,17.256-.167,12.3-.089,26.332.7,38.489-.144,3.712-.255,3.3.378,3.019-2.221h-63.168c-.857,2.909.8,1.977,4.405,2.532m162.7,91.737-15.338-1.91c-20.58-.433-41.67-.133-62.087-.833l-4.1,2.743Zm38.754,104.307,136.555-.044v-4.009l-136.554.044ZM1039.875,150.032c.592-.4-2.672-2.21-3.06-2.21-8.342,0-28.269-.877-34.654,0-.673.1-3.12,1.51-3.059,2.21,13.645-.244,27.453,1.3,40.773,0" transform="translate(0.001 0)" fill="#1a1a1a"/>
    <path id="Path_5" data-name="Path 5" d="M0,.369,3.406,5.944C34.633,6.31,65.555,7.5,96.782,8.131c49.747,1.01,100.963,2.143,150.771,2.254,48.768.111,97.088-2.132,145.815-1.155L393.348,5.9c-15.236.722-30.513-.9-45.709-1.1-61.475-.833-123.685-1.288-185.711-2.165C108.061,1.857,54.194-1.008,0,.369" transform="translate(1510.689 233.97)" fill="#1a1a1a"/>
    <path id="Path_6" data-name="Path 6" d="M0,2.3,19.275,5.647c63.6-1.444,139.288,6.141,201.885,2.21,4.467-.278,8.179-.8,11.116-2.8-2.448-2.021-5.385-1.566-9.036-1.71C172.535,1.294,114.975.284,64.27.028,42.71-.083,21.131.028,0,2.3" transform="translate(1728.789 193.223)" fill="#1a1a1a"/>
    <path id="Path_7" data-name="Path 7" d="M0,2.332l1.183,3.32,142.572.022,43.771-2.809C158.93,1.333,129.62.544,100.882.322,93.518.267,85.747,0,78.425,0,52.46.033,25.822,1.155,0,2.332" transform="translate(1219.243 396.158)" fill="#1a1a1a"/>
    <path id="Path_8" data-name="Path 8" d="M0,2.346,21.294,4.59c45.607.4,91.111-.344,136.718-.089,7.832.033,14.6,2.088,23.375.033,1.468-2.621-3.671-2.965-7.3-3.2C157.624.281,130.456.2,113.18.059,75.426-.23,37.55.547,0,2.346" transform="translate(1280.391 58.992)" fill="#1a1a1a"/>
    <path id="Path_9" data-name="Path 9" d="M0,4.7c14.6-.389,29.289.933,43.75,1.155,20.927.311,53.908,1.21,73.53.011,8.709-.522,9.688-3.753,1.938-4.486C111.977.706,95.191.439,86.726.25,75.957.017,2.407-.538.143,1.472Z" transform="translate(1557.56 130.914)" fill="#1a1a1a"/>
    <path id="Path_10" data-name="Path 10" d="M0,0,7.057,2.254,152.852,4.42V0Z" transform="translate(1459.739 114.563)" fill="#1a1a1a"/>
    <path id="Path_11" data-name="Path 11" d="M0,3.166C28.27,5.12,57.192,8.441,85.584,5.376c-2.407-2.643-12.36-2.976-17.357-3.3C50.339.912,31.248,1.245,13.258.956,8.057.867.408-2.209,0,3.166" transform="translate(1386.372 208.975)" fill="#1a1a1a"/>
    <path id="Path_12" data-name="Path 12" d="M6.949,1.7c17.011,1.288,36.959,1.31,54.234.933C61.428.065,61.9.653,58.144.42,39.094-.8,19.309,1.1.035.431-.455,2.308,4.359,1.508,6.949,1.7" transform="translate(1408.753 398.048)" fill="#1a1a1a"/>
    <path id="Path_13" data-name="Path 13" d="M0,1.166C11.1,6.574,31.227,1.5,44.832,2.243L23.537,0Z" transform="translate(1188.648 374.026)" fill="#1a1a1a"/>
  </g>
</svg>
