<?xml version="1.0" encoding="UTF-8"?>
<svg id="Layer_2" data-name="Layer 2" xmlns="http://www.w3.org/2000/svg" viewBox="0 0 1732.23 830.43">
  <defs>
    <style>
      .cls-1 {
        fill: #45c443;
      }
    </style>
  </defs>
  <g id="Layer_1-2" data-name="Layer 1">
    <path class="cls-1" d="M1514.39,602.4c-25.59,4.05-62.79,15.72-73.66,38.14-13.28,27.43-26.63,95.98-116.74,95.9,79.27-25.12,76.44-53.4,97.28-94.81,22.97-45.61,64.78-54.72,133.67-51.22.03,0,54.22,3.04,72.27,2.18,34.05-1.63,54.75-8.71,61.15-9.26-60.8-3.23-100.13-9.78-118.13-22.88-28.41-20.68-21.4-46.36,5.56-56.67-26.88,11.87-21.64,36.68,2.08,50.13,33.8,19.15,70.31,23.34,100.97,22.26,16.95-.6,31.75-9.47,36.4-22.27.03-.07.05-.15.08-.22,10.13-28.36-8.77-58.21-43.24-69.93-82.99-28.22-158.64-12.19-200.51,3.15-34.65,12.7-63.93,122.05-145.07,137.2,75.74-25.6,70.76-111.95,120.05-139.38,43.09-23.98,57.94-23.99,88.25-29.43,48.64-8.71,129.93-16.34,129.93-16.34-44.47-4.36-90.12-4.07-129.24-3.27-26.41.54-73.66-9.81-115.35-33.78-55.1-31.69-54.44-66.82-55.18-68.1.74,1,33.31,53.35,97.02,74.39,19.8,6.54,33.17,16.3,134.66,12.23,56.79-2.27,77.06-98.17,77.82-99.17-1.53.55-86.16,70.84-215.71,32.28-43-12.8-98.63-50.81-95.26-82.99,4-38.44,35.44-49.55,65.08-58.61,29.62-9.05,80.42-9.78,100.24-6.96,78.72,11.18,48.23,63.3,47.35,64.76.2-1.3,6.01-40.74-54.81-50.92-48.1-8.05-127.81-.22-138.98,47.95-8.34,35.96,66.54,81.78,123.69,86.09,72.27,5.45,110.38-16.63,138.1-45.38,21.51-22.3,27.34-66.66,14.21-80.7-53.23-56.94-124.25-56.99-196.52-49.36-48.06,5.07-111.18,4.36-191.78-22.89-86.37-29.19-175.89-111.24-299.06-124.23-80.19-8.47-172.94-3.79-309.9,34.87,110.37-38.72,216.38-57.15,304.34-49.04,113.12,10.42,158.47,53.37,202.91,78.46,34.74,19.62,66.71,45.77,170.94,64.3,64.57,11.47,114.53,2.21,144.79,1.09,147.31-5.45,158.43,45.77,202.9,64.3-40.3-76.29-125.08-94.81-264.33-79.37-67.84,7.52-182.82-31.28-182.82-31.28,0,0-139.99-89.6-215.56-102.93-47.33-8.35-169.99-23.27-365.34,9.89-28.2,4.79-53.43,11.69-75.97,19.99-31.1,11.45-119.6,50.18-119.6,50.18,0,0-64.48,42.75-131.97,44.85-28.78.9-53.71.06-93.46,10.47l129.35,2.31c103.63-18.12,178.97-64.06,178.97-64.06C615.26,25.02,842.28,9.22,845.83,8.98c-91.11,19.5-207.55,23.81-275.08,79.05-32.74,26.79-66.38,47.49-190.39,71.93-42.39,8.35-93.11,0-150.09-4.36-30.72-2.35-84.13,21.96-111.97,31.02h-.01c-25,18.37-31.96,39.87-49.56,61.34-29.19,35.61-42.21,52.92-47.45,95.66C20.01,354.06-.3,385.32,0,395.71c.47,16.42,11.12,31.02,27.19,37.01,20.02,7.46,16.06,10.15,52.21,15,46.87,6.28,55.21,49.22,55.45,50.57-.56-1.28-17.93-40.26-77.43-40.4,0,0-20.33-3.35-28.78-2.62-9.19.79-16.4,6.89-13.22,15.13,10.06,26.15,44.43,46.83,63.39,71.61,17.13,22.4,17.94,49.08,41.69,69.83,13.11,11.45,31.42,15.83,48.72,11.81,3.35-.77,6.86-1.58,10.51-2.41,72.89-16.59,92.41-26.86,166.98,19.65,56.74,35.37,41.01,85.25,113.86,114.67,63.69,25.73,189.7,49.25,331.27,47.22,0,0-121.84,21.03-331.58-35.18-63.47-17.01-101.21-95.72-115.78-108.31-9.93-8.57-48.89-38.36-103.35-31.23-29.98,3.91-60.27,10.3-81.43,15.24,8.11,5.99,36.45,12.25,45.08,18.03,29.96,20.03,55,40.69,84.63,59.35,18.22,11.47,52.63,17.22,76.54,26.57,26.18,10.25,47.24,36.97,73.93,45.51,67.68,21.66,143.74,20.35,225.71,29.46,72.63,8.07,143.42,10.04,210.73,6.57,48.82,3.34,83.94-13.34,172.62-3.49,0,0,177.03-15.45,271.95-37.82,94.93-22.37,123.51-67.47,202.53-91.6,79-24.14,145.16-56.3,208.84-49.23,0,0-108.18-61.59-217.84-44.25ZM1629.31,259.95s-17.65,62.65-67.76,67.02c-46.9,4.08-81.3-17.17-102.15-74.38,0,0,87.56,130.77,169.9,7.36ZM317.38,216.24s-140.31-8.18-212.59,77.85c1.36-2.23,41.06-66.07,125.03-77.85,104.56-14.67,163.99,8.72,248.77-49.59,0,0-24.32,53.4-161.21,49.59ZM1221.15,756.05c-98.67,32.6-246.23,43.32-348.16,42.58,0,0,177.34-9.76,309.25-42.58,88.98-22.14,145.89-70.91,157.04-73.01-6.62,1.36-46.56,49.37-118.13,73.01Z"/>
  </g>
</svg>