<?xml version="1.0" encoding="UTF-8"?>
<svg id="Layer_2" data-name="Layer 2" xmlns="http://www.w3.org/2000/svg" viewBox="0 0 1920 492.68">
  <defs>
    <style>
      .cls-1 {
        fill: #f8f9fa;
      }
    </style>
  </defs>
  <g id="Layer_1-2" data-name="Layer 1">
    <path class="cls-1" d="M428.86,107.72C310.58,105.12,70.59,30.81,70.59,30.81c0,0,211.49,47.94,464.49,47.89,23.33,0,131.06,12.19,158.23,16.68,128.73,21.33,268.01,72.28,271.88,73.82-4.77-2.59-211.83-113.77-451.13-122.12-140.5-4.91-249.97-1.48-326.94-7.47C91.1,32.15,0,0,0,0l.41,492.68h1919.59v-56.84c-131.68-69.38-195.39-90.43-270.88-100.06-261.82-33.43-437.51-27.05-579.97-104.54,0,0,126.04,36.7,324.07,39.35,58.94.79,199.42,17.44,255,29.42,84.87,18.3,217.07,81.51,226.67,90.45-158.01-147.12-403.39-140.4-617.89-149.3-95.27-3.95-229.03-41.99-297.8-45.34-134.67-6.56-218.8-6.31-279.95-12.71-68.13-7.13-138.94-9.47-207.96-20.39-140.39-22.23-261.76-56.44-347.16-103.37,120.59,32.41,180.59,64.62,350.78,65.8,92.87.64,189.16,13.02,349,36.08-2.45-.59-188.01-48.97-395.06-53.52ZM1234.4,214.61c-5.13-1.07-79.01-26.28-148.48-51.91,0,0,207.48,36.31,333.74,23.14,0,0-188.26-11.86-277.52-29.59-152.66-30.33-257.65-44.38-258.91-45.04,1.08,1.35,78.46,46.59,351.17,103.4Z"/>
  </g>
</svg>