<?xml version="1.0" encoding="UTF-8"?>
<svg id="Layer_2" data-name="Layer 2" xmlns="http://www.w3.org/2000/svg" viewBox="0 0 1920 302.41">
  <defs>
    <style>
      .cls-1 {
        fill: #fff;
      }
    </style>
  </defs>
  <g id="Layer_1-2" data-name="Layer 1">
    <path class="cls-1" d="M1920,0v302.41s-381.76-131.86-819.3-158.56c0,0,144.03-29.13,221.22-34.87,65.93-4.9,152,2.57,219.59-5.99,119.2-15.11,195.87-46.88,231.03-83.37-78.46,44.68-146.74,62.31-211.96,71.38-112.14,15.59-218.76-4.25-329.11,7.08-119.33,12.26-209.78,41.96-323.11,39.78-134.34-2.58-171.93-13.87-302.95-16.89,0,0,204.33-29.42,263.18-39.23,43.4-7.23,151.19-24.5,188.63-27.15,101.51-7.18,150.55-8.81,301.76,10.8,0,0-124.78-44.13-305.67-34.33C814.41,44.01,304.64,178.18,0,94.54V0h1920Z"/>
  </g>
</svg>