<?xml version="1.0" encoding="UTF-8"?>
<svg id="Layer_2" data-name="Layer 2" xmlns="http://www.w3.org/2000/svg" viewBox="0 0 590.57 603.26">
  <defs>
    <style>
      .cls-1 {
        fill: #fff;
      }
    </style>
  </defs>
  <g id="Layer_1-2" data-name="Layer 1">
    <g>
      <path d="M586.13,434.34c-7.06-47.32-49.42-75.72-74.53-113.28l-2.15-158.83,2.94-4.19,14.63-2.37c-1-11.73,12.73-37.77,4.88-46.27L353.06,12.8C289.17,6.49,224.11,3.8,159.72,2.26c-8.1-.18-17.32-4.31-25.79-.93L0,176.33l38.27,36.87h2.58c.68-4.98,3.88-7.92,8.97-7.13l30.81,155.2c17.58,5.09,34.83,14.89,51.87,20.59,55.92,18.72,117.4,29.34,173.75,47.99,7.46,7.86,15.92,17.26,22.52,25.76,1.22,1.57,6.82,8.53,5.38,9.79-10.4,1.58-20.48-2.94-30.84-1.36-48.28,7.42-54.2,58.82-10.23,79.12,40.25,18.62,96.89,24.21,136.88,41.93,6.56,2.94,13.56,11.37,21.05,14.75,14.1,6.38,26.22,3.33,38.6-4.92,31.13-20.77,62.09-54.59,92.15-77.76,14.13-19.3,7.85-59.44,4.37-82.82ZM87.37,355.42l-34-165.42-16.71,12.37-27.66-27.58L134.79,9.36l5.24-1.94,208.51,11.7,177.05,94.83c4.55,4.88-6.24,28.7-5.49,36.59l-17.94,2.91,1.04,161.69-8.1-6.2-1.29-148.93-8.61-5.7-174.76,17.5-153.8-98.5c-5.31-2.87-11.66-1.36-15.61,3.09l-82.24,107.36,31.78,163.09c.71,2.4,2.69,3.19,4.48,4.49,3.23,2.33,33.54,16.67,36.59,17.18,6.92,1.18,12.48-3.66,14.45-9.98l-24.75-168.58,64.42,3.59,16.5,184.69c2.12,4.37,4.67,5.52,8.86,7.21,20.63,8.25,49.93,10.51,71.6,17.39l12.12,16.04c-69.26-20.59-141.22-34.08-207.47-63.46ZM440.68,279.49c-.15.46-.31.88-.48,1.26-.05.12-.11.24-.17.35-.05.11-.11.22-.17.32-.13.23-.26.44-.4.63-.06.08-.12.16-.18.24-.2.26-.42.5-.66.73-.12.12-.25.24-.38.35-1.04.88-2.33,1.51-3.88,2.32-.42.22-.98.48-1.64.76-.4.18-.83.36-1.3.54h-.01c-.48.2-.98.39-1.52.6h-.01c-.36.14-.73.28-1.12.42h-.01c-.58.22-1.18.44-1.82.66-.64.22-1.3.45-1.99.69-.45.15-.92.31-1.39.47-1.03.35-2.11.7-3.2,1.05-.41.13-.82.27-1.23.4-1.02.32-2.06.64-3.1.96-.52.16-1.03.31-1.55.47-.01-.01-.02-.01-.02,0-4.01,1.18-8.06,2.28-11.6,3.09-.24.05-.49.1-.73.16-.06.01-.12.03-.17.03-.39.09-.77.17-1.14.24-.14.04-.28.06-.42.09-.32.06-.63.12-.94.18-2.34.44-4.28.68-5.61.63-.28-.01-.53-.03-.75-.07-.07-.01-.13-.02-.19-.04-.09-.02-.17-.04-.24-.06-.17-.05-.33-.11-.49-.17-.15-.06-.29-.13-.42-.2-.08-.04-.16-.09-.24-.14-.13-.07-.25-.15-.36-.23-.15-.1-.29-.21-.43-.33-.01,0-.01-.01-.01-.01-.11-.1-.22-.2-.33-.3-.12-.12-.23-.24-.34-.36-.07-.08-.14-.16-.21-.25-.09-.11-.17-.21-.26-.33-.11-.16-.23-.33-.34-.5-1.45-2.29-2.15-5.47-2.62-8.19-.06-.39-.13-.76-.18-1.12-.07-.41-.13-.79-.19-1.16-.03-.19-.06-.4-.1-.63-.01-.11-.03-.23-.05-.35-.03-.26-.07-.53-.11-.82-.05-.35-.1-.74-.15-1.14-.01-.07-.02-.14-.03-.21-.04-.33-.09-.67-.13-1.03-.05-.45-.11-.92-.17-1.41-.05-.47-.11-.96-.17-1.46-.08-.71-.16-1.46-.25-2.23-.04-.38-.08-.75-.12-1.15-.17-1.49-.33-3.07-.49-4.71-.07-.7-.14-1.41-.21-2.13-.09-.88-.17-1.76-.25-2.65-.05-.47-.09-.94-.13-1.42-.21-2.26-.4-4.54-.57-6.76-.08-1-.15-1.99-.22-2.96-.06-.83-.12-1.64-.17-2.44-.03-.49-.06-.97-.09-1.45-.23-3.96-.35-7.43-.28-9.82,0-.23,0-.44.02-.65.02-.42.05-.79.08-1.12.02-.25.05-.47.09-.67.02-.15.05-.26.08-.37.01-.05.02-.11.04-.15.45-1.53,2.05-2.95,4.37-4.24.26-.15.54-.29.82-.43.72-.38,1.51-.74,2.34-1.09.38-.16.78-.32,1.18-.48.86-.34,1.77-.66,2.71-.97.31-.11.63-.22.95-.32.25-.08.51-.16.77-.24.26-.09.52-.17.78-.24,1.05-.32,2.13-.62,3.23-.91.41-.11.82-.22,1.24-.32.32-.09.64-.17.96-.24.09-.03.18-.05.28-.07.5-.13.99-.24,1.49-.36,3.15-.73,6.3-1.36,9.16-1.87.48-.08.94-.16,1.4-.24,1.76-.3,3.39-.56,4.82-.76.36-.05.7-.1,1.02-.14,1.11-.15,2.05-.27,2.81-.35,2.27-.24,5.18-.71,7.92-.64.18,0,.36,0,.54.02.38.01.74.04,1.1.09.34.03.67.09,1,.16.17.03.34.07.5.11.17.03.33.07.49.13.21.06.42.13.63.21.2.08.4.16.6.25h.01c.38.19.74.41,1.08.66.13.08.26.18.38.3.12.11.24.22.35.34.45.46.83,1.01,1.14,1.66.07.16.14.33.21.5.06.18.13.36.18.55-.06.44-.11.88-.14,1.33-.04.46-.07.92-.1,1.38-.03.46-.05.92-.06,1.39-.11,3.85.22,8.08.7,12.46.14,1.24.29,2.48.44,3.74.21,1.71.43,3.43.64,5.16.21,1.68.41,3.36.59,5.02.08.77.16,1.54.23,2.3.07.67.13,1.33.18,1.99,0,.1.02.19.02.28.05.6.09,1.2.13,1.8.02.24.03.48.04.72.04.74.07,1.47.09,2.19.02.63.03,1.25.03,1.87,0,1.99-.1,3.91-.32,5.74-.24,1.81-.59,3.52-1.11,5.11ZM582.65,498.36c-2.08,13.38-20.3,27.3-30.27,35.91-18.29,15.89-48.71,42.75-68.15,55.27-9.4,6.06-16.43,8.83-27.98,5.06-8.25-2.73-13.88-11.44-20.95-14.81-36.73-17.65-94.3-25.54-134.29-41-20.34-7.86-39.35-27.23-26.22-49.61,16.28-27.73,52.23-12.52,77.26-15.71l-91.61-112.27c-10-17.22-5.92-28.77,7.54-41.57,45.58-43.37,60.76,3.98,89.49,34.04,1.07,1.11,1.65,2.87,1.79,4.41l2.58-.04c7.79-8.82,21.42-17.5,33.58-15.67,4.55.72,9.86,5.41,13.91,4.3,6.14-1.72,14.14-13.2,22.71-14.99,11.16-2.33,19.37,4.09,26.01,2.87,5.12-.93,13.12-9.51,18.75-11.77,15.46-6.17,25.9-.03,36.16,11.23,12.77,13.99,57,66.61,61.66,81.39,4.81,15.21,10.4,67.75,8.03,82.96Z"/>
      <path class="cls-1" d="M24.82,182.83c.62.75,1.3,1.47,2.01,2.17-.7-.7-1.37-1.42-2.01-2.17ZM39.85,191.55c.2-.02.4-.04.59-.07.19-.04.38-.08.56-.13-.37.1-.75.16-1.15.2ZM43.3,190.14c.08-.06.16-.13.24-.21h0c-.08.07-.16.14-.24.21ZM42.09,190.95s.1-.05.15-.07c.04-.02.08-.04.11-.06.08-.04.16-.1.25-.15.08-.05.16-.11.24-.17-.12.08-.24.16-.37.24-.12.08-.25.14-.38.21ZM20.76,170.8c-.18.35-.31.72-.39,1.11.09-.38.22-.75.4-1.1L137.4,17.33,20.76,170.8ZM144.84,57.85L43.54,189.92,144.85,57.87l2.99.41-3-.43ZM343.61,24.05c-20.48-.92-40.92-1.88-61.35-2.83,20.43.97,40.88,1.93,61.36,2.85.83.48,1.66.96,2.49,1.43-.84-.48-1.67-.97-2.5-1.45ZM306.82,159.18h.01s111.39-8.95,111.39-8.95l-111.4,8.95ZM518.47,126.29s0-.05-.01-.08c-.01-.05-.02-.09-.03-.14.03.14.05.27.06.41,0-.06-.01-.13-.02-.19ZM517.69,132.35c.04-.1.07-.2.11-.3.08-.26.15-.52.22-.77.02-.07.04-.14.05-.21-.11.42-.24.84-.38,1.28Z"/>
      <path class="cls-1" d="M487.13,333.03c3.44-.28,6.95.77,10.41,3.89.54.73,1.08,1.45,1.64,2.17-.55-.73-1.1-1.46-1.64-2.19-3.46-3.11-6.98-4.16-10.41-3.87ZM437.46,397.59c.36-.05.73-.15,1.11-.27.31-.1.6-.22.86-.35-.26.12-.55.23-.85.33-.39.13-.76.22-1.12.29ZM421.74,353.79c.51-.53,1.07-1.06,1.67-1.59-.6.52-1.17,1.06-1.67,1.59ZM393.34,405.64h0c-.13.11-.26.22-.38.34.13-.11.25-.22.38-.34ZM385.78,407.91c-.68-.3-1.34-.72-1.99-1.23.65.51,1.31.94,1.99,1.23ZM383.77,498.14c-.13.38-.31.75-.52,1.12.22-.36.39-.74.52-1.12ZM382.99,357.8c-.6.38-1.21.81-1.85,1.27.64-.46,1.25-.88,1.85-1.27ZM379.76,402.83c-2.97-3-5.89-6.16-8.77-9.44,2.87,3.29,5.78,6.45,8.75,9.45.71.72,1.4,1.42,2.07,2.07-.66-.66-1.34-1.37-2.05-2.08ZM378.26,502.35c.48.07.96.04,1.43-.09-.48.13-.96.15-1.43.09ZM376.45,362.69c.83-.66,1.61-1.28,2.36-1.87-.75.58-1.54,1.2-2.36,1.87ZM375.73,501.28c-.34-.23-.68-.49-1.02-.77.34.29.68.55,1.02.77ZM370.95,367.14c1.02-.82,2-1.61,2.93-2.37-.93.74-1.9,1.53-2.93,2.37ZM369.91,367.98c.31-.25.62-.5.92-.75-.31.24-.62.49-.93.74h.01ZM358.64,488.45c1.08.2,2.05.4,2.88.59.13.03.26.06.38.1-.13-.05-.25-.08-.38-.11-.83-.19-1.8-.39-2.88-.58ZM318.6,326.65c-1.43-1.66-2.87-3.3-4.32-4.89,1.44,1.6,2.88,3.23,4.32,4.89ZM299.72,485.48c-.92.19-1.81.42-2.66.71.85-.28,1.74-.51,2.66-.7.5-.1,1.06-.19,1.67-.28-.61.08-1.17.17-1.67.27ZM268.15,342.47c.07-.45.18-.92.33-1.4-.16.48-.27.95-.33,1.4ZM268.15,342.47c-.04.22-.07.44-.08.65-.09,1.36.03,2.69.31,4-.27-1.3-.39-2.64-.3-4,.01-.21.04-.43.07-.65Z"/>
      <path class="cls-1" d="M382.57,238.25c.02-.41.04-.79.08-1.12-.03.33-.06.7-.08,1.12Z"/>
      <path class="cls-1" d="M382.86,235.94s-.03.1-.04.15c.01-.04.02-.1.03-.14h.01Z"/>
      <path class="cls-1" d="M382.74,236.46c.03-.14.05-.26.08-.37-.03.11-.06.23-.08.37Z"/>
      <path class="cls-1" d="M392.66,296.96c.07.02.15.04.24.06-.08-.01-.16-.03-.23-.05h-.01Z"/>
      <path class="cls-1" d="M393.09,297.06c.22.04.47.06.75.07-.27-.01-.53-.03-.75-.07Z"/>
      <path class="cls-1" d="M435.98,223c.38.19.74.4,1.08.66-.34-.25-.7-.47-1.08-.66Z"/>
      <path class="cls-1" d="M437.79,224.3c.46.46.85,1.01,1.14,1.66-.31-.65-.69-1.2-1.14-1.66Z"/>
      <path class="cls-1" d="M439.18,228.34c.03-.45.08-.89.14-1.33-.05-.19-.12-.37-.18-.55.08.17.14.35.19.54-.06.44-.11.89-.15,1.34Z"/>
      <path class="cls-1" d="M440.68,279.49c.52-1.59.87-3.3,1.11-5.11-.22,1.81-.58,3.53-1.1,5.12-.15.46-.31.87-.49,1.25.17-.38.33-.8.48-1.26Z"/>
      <path d="M518.53,128.6v.05c-.02.16-.04.32-.06.49h0c-.02.18-.05.35-.08.52,0,0,.01,0,0,0-.05.26-.1.52-.16.79-.06.27-.13.54-.21.82-.07.25-.14.51-.22.77-.11.31-.22.63-.34.96-.42,1.2-.98,2.49-1.63,3.9,0,0-.01,0-.01,0-.47,1.03-1,2.11-1.57,3.26-.38.78-.79,1.58-1.21,2.42h-.01l-94.81,7.63-111.39,8.96h-.01s-21.31-13.67-21.31-13.67L149.91,58.56l-2.07-.28-2.99-.41L43.54,189.92h0c-.3.3-.61.54-.94.75-.66.42-1.39.68-2.16.81-.19.03-.39.05-.59.07-.04,0-.07,0-.11,0-.12,0-.24,0-.36.01-.05,0-.09,0-.14,0-.03,0-.07,0-.1,0-.28,0-.57-.02-.86-.05-.08,0-.16-.02-.24-.03-.35-.05-.7-.11-1.06-.19-.52-.12-1.05-.28-1.58-.48h-.01c-.53-.2-1.06-.44-1.59-.7,0,0,0-.01,0-.01-2.42-1.19-4.85-3-6.97-5.1-.71-.7-1.39-1.42-2.01-2.17-.42-.5-.82-1.01-1.19-1.52-2.12-2.89-3.46-5.91-3.38-8.37.01-.35.05-.69.12-1.02h0c.08-.4.21-.77.39-1.12L137.4,17.33c.34-.3.72-.57,1.12-.82.41-.25.84-.47,1.3-.67.01,0,.01-.01.01-.01,6.09-2.63,17.12-1.54,26.37-.44.07,0,.14.01.21.02.52.06,1.04.13,1.54.19.36.04.72.08,1.07.12.5.07.98.13,1.46.18,2.76.33,5.22.59,7.14.67,6.91.27,13.82.55,20.73.84,17.35.73,34.7,1.51,52.06,2.32,9.98.45,19.96.92,29.94,1.4.64.02,1.28.05,1.91.09,20.43.95,40.87,1.91,61.35,2.83.83.48,1.66.97,2.5,1.45,2.5,1.45,5.02,2.9,7.56,4.33h0c2.77,1.58,5.55,3.14,8.35,4.69,31.26,17.39,64.05,33.88,95.75,51.25,2.96,1.62,5.91,3.25,8.84,4.89,2.67,1.49,5.34,2.98,7.99,4.49,2.48,1.41,4.95,2.82,7.41,4.25,4.46,2.58,8.89,5.19,13.27,7.84,2.06,1.24,4.1,2.49,6.14,3.75,2.27,1.39,4.52,2.8,6.76,4.22.23.15.46.29.68.44.45.29.88.57,1.29.85.5.34.97.67,1.42.99.29.21.58.42.85.63h.01c.34.27.67.53.98.78.23.19.45.38.67.57.16.14.31.27.45.4.34.31.65.62.95.93.12.12.23.25.34.37.82.9,1.44,1.8,1.89,2.71.1.21.19.42.27.63.05.12.1.25.14.38.08.22.14.45.2.67.04.17.07.34.1.51.01.05.02.09.03.14.01.03.01.05.01.08.02.1.03.21.04.31.02.1.03.2.03.3.02.17.02.35.02.53,0,.06,0,.12,0,.18,0,.32,0,.65-.04.99Z"/>
      <path d="M570.36,487.71c-.02.71-.04,1.41-.09,2.1-.02.25-.03.49-.05.74-.02.28-.04.56-.07.83-.03.31-.06.62-.1.93-.06.51-.14,1.02-.22,1.53-.05.31-.11.61-.17.91-.22,1.14-.5,2.26-.86,3.37-.09.29-.19.58-.3.87,0,.05-.03.09-.05.14-.07.21-.15.43-.24.64-.01.03-.02.06-.03.08-.08.22-.17.43-.27.65-.01.03-.02.07-.04.1-.12.28-.24.55-.37.82-.17.37-.35.73-.54,1.09-.39.72-.81,1.44-1.27,2.15-4,3.31-7.98,6.67-11.95,10.07-3.97,3.38-7.93,6.79-11.89,10.23-4.75,4.1-9.51,8.22-14.27,12.33-12.71,10.93-25.51,21.73-38.76,31.79-.56.42-1.24.96-2.02,1.58-.34.26-.69.54-1.06.84-3.67,2.88-8.83,6.93-12.98,9.48-.29.18-.58.36-.86.52-.63.37-1.22.69-1.78.96-.22.11-.44.21-.65.3-.07.03-.14.06-.21.1-.18.07-.34.13-.5.19-.55.19-1.03.31-1.44.34-1.3.09-2.61-.09-3.92-.49-.27-.08-.54-.17-.81-.27-.28-.09-.55-.2-.82-.32-.27-.11-.54-.23-.81-.35-.27-.14-.55-.28-.83-.42-.54-.29-1.08-.6-1.63-.93-.82-.51-1.65-1.06-2.48-1.66-.54-.39-1.09-.8-1.65-1.21-.54-.42-1.09-.84-1.64-1.27-.83-.65-1.67-1.31-2.5-1.98-.42-.33-.83-.66-1.25-.98-.42-.33-.83-.65-1.25-.97-.63-.48-1.25-.94-1.88-1.39-.31-.23-.63-.45-.94-.66-.31-.22-.63-.43-.94-.63-.32-.21-.63-.41-.95-.6-.63-.39-1.26-.74-1.89-1.06-.12-.07-.24-.13-.36-.18-.19-.1-.39-.19-.58-.28-.27-.12-.54-.24-.81-.36-.28-.13-.56-.25-.84-.37-1.12-.48-2.3-.97-3.53-1.45-.61-.25-1.24-.49-1.88-.72-.63-.24-1.29-.48-1.95-.72-.66-.25-1.34-.49-2.02-.72-1.84-.65-3.76-1.29-5.75-1.93-.5-.16-1-.32-1.51-.48-2.74-.87-5.6-1.74-8.57-2.61-.81-.24-1.64-.48-2.47-.71-1.46-.42-2.93-.84-4.43-1.26-1.06-.29-2.14-.59-3.23-.89-1.96-.54-3.95-1.08-5.96-1.62-.67-.18-1.34-.35-2.01-.53-1.25-.34-2.51-.67-3.77-1-.56-.15-1.12-.3-1.68-.45-7.33-1.92-14.88-3.87-22.4-5.84-.94-.25-1.88-.49-2.82-.74s-1.88-.5-2.82-.75c-.94-.25-1.88-.5-2.81-.75-.23-.06-.46-.12-.7-.19-.7-.19-1.39-.38-2.09-.56-6.51-1.76-12.91-3.55-19.04-5.38-.87-.27-1.74-.53-2.6-.79-2.59-.79-5.13-1.58-7.6-2.39-.82-.27-1.63-.54-2.44-.81-.81-.27-1.61-.54-2.4-.81-2.37-.82-4.66-1.64-6.87-2.48-.37-.14-.74-.28-1.1-.42-.93-.36-1.84-.72-2.74-1.08-.37-.15-.74-.3-1.1-.45-.66-.27-1.31-.55-1.96-.82-.27-.12-.54-.24-.8-.35-.84-.37-1.67-.74-2.48-1.12-.17-.07-.34-.15-.5-.23-.68-.32-1.34-.64-1.99-.96-.38-.19-.76-.38-1.13-.57-.76-.39-1.5-.78-2.21-1.18-.38-.21-.75-.42-1.11-.62-.09-.05-.18-.11-.27-.16-.34-.2-.67-.4-1-.6-.35-.21-.7-.43-1.04-.65-.33-.21-.65-.42-.96-.64-1.25-.83-2.39-1.69-3.4-2.56-.32-.27-.62-.55-.92-.83-1.78-1.68-3.17-3.49-4.19-5.36-.17-.31-.33-.63-.48-.94-.16-.32-.3-.63-.43-.95-.02-.04-.03-.08-.05-.12-.24-.6-.45-1.2-.62-1.8-.09-.32-.18-.64-.25-.96-.36-1.55-.5-3.1-.42-4.62.01-.26.03-.51.05-.76.04-.51.11-1.01.2-1.5.05-.25.1-.5.15-.74.11-.49.25-.98.4-1.46.08-.24.16-.47.25-.71.83-2.24,2.14-4.32,3.88-6.1.16-.16.31-.31.48-.47.21-.21.43-.41.66-.6.31-.27.62-.53.95-.79.17-.12.34-.25.51-.37.17-.12.34-.24.52-.35.28-.19.58-.38.88-.55.13-.08.25-.15.38-.22.2-.12.41-.23.62-.34.17-.09.34-.17.51-.25.51-.25,1.05-.48,1.6-.69.32-.12.65-.24.98-.35.85-.29,1.74-.52,2.66-.71.5-.1,1.06-.19,1.67-.27.31-.04.63-.08.96-.11.55-.06,1.14-.12,1.76-.16.42-.03.86-.06,1.32-.08.39-.02.78-.04,1.19-.06.5-.01,1.01-.03,1.53-.05.92-.02,1.88-.04,2.87-.04,1.04-.01,2.11,0,3.21.01.39,0,.79.02,1.2.02s.81.01,1.22.03c.28,0,.55.01.83.02.42,0,.84.02,1.26.03.7.03,1.41.05,2.13.08,2.35.08,4.78.2,7.22.35.53.03,1.07.07,1.6.1.6.04,1.2.08,1.8.12.29.02.59.04.89.06,3.65.26,7.27.56,10.7.9.45.05.89.09,1.33.14.36.03.72.07,1.07.11.51.05,1.02.11,1.52.16.82.09,1.62.18,2.4.28.75.09,1.48.18,2.19.27.48.06.96.12,1.43.19,1.31.17,2.54.36,3.68.54.22.04.45.08.67.11.44.07.86.14,1.27.22,1.08.19,2.05.39,2.88.58.13.03.25.06.38.11.13.04.25.08.38.12.28.09.56.21.84.35.09.05.2.1.29.15.11.05.22.11.33.18.11.06.22.13.33.2.88.54,1.73,1.23,2.57,2.01.24.21.47.43.7.66.28.27.55.55.82.84,2.27,2.36,4.43,5.09,6.55,6.86.34.28.68.54,1.02.77.84.57,1.68.96,2.53,1.07.47.06.95.04,1.43-.09.42-.11.86-.3,1.29-.59.05-.03.1-.06.15-.1.05-.03.11-.07.16-.12.1-.07.2-.15.3-.24.01,0,.03-.02.05-.04.12-.1.24-.21.36-.34.16-.15.31-.32.47-.5.3-.35.56-.71.78-1.07.21-.37.39-.74.52-1.12.36-.98.46-1.99.37-3.02-.02-.17-.04-.35-.07-.52-.01-.09-.02-.19-.05-.29,0-.09-.02-.18-.05-.27-.03-.18-.08-.36-.13-.54-.06-.26-.14-.52-.24-.79-.1-.3-.21-.61-.34-.91-.06-.15-.13-.31-.2-.46-.13-.29-.27-.59-.43-.88-.07-.15-.15-.31-.24-.46-.16-.29-.32-.58-.5-.87h0c-.35-.59-.72-1.16-1.11-1.72.01-.01,0-.01,0-.01-.38-.56-.77-1.11-1.18-1.64t0-.01c-.89-1.21-1.78-2.33-2.54-3.32-.95-1.24-1.9-2.48-2.87-3.72,0,0,.01-.01,0-.01-2.88-3.72-5.8-7.41-8.76-11.08-1.96-2.45-3.95-4.89-5.96-7.32-2-2.43-4.01-4.85-6.03-7.27-2.02-2.41-4.05-4.82-6.1-7.22,0,0,.01,0,0-.01-2.03-2.4-4.08-4.79-6.14-7.18t0-.01c-2.04-2.4-4.1-4.79-6.17-7.17t0-.01c-7.21-8.36-14.45-16.71-21.63-25.1-1.53-1.8-3.06-3.6-4.59-5.41-.76-.9-1.53-1.8-2.29-2.71-1.78-2.11-3.55-4.23-5.32-6.35-1.51-1.82-3.01-3.64-4.51-5.46-.75-.91-1.5-1.82-2.24-2.74-.75-.92-1.49-1.83-2.23-2.75-.99-1.22-1.97-2.45-2.95-3.68-2.94-3.68-5.84-7.39-8.7-11.13-.31-.4-.63-.81-.95-1.22-.33-.4-.66-.82-1-1.23-.51-.62-1.03-1.25-1.56-1.89-.96-1.17-1.93-2.37-2.87-3.59-.17-.22-.35-.45-.52-.68-1.25-1.68-2.41-3.41-3.35-5.2-.13-.24-.25-.48-.36-.72-.24-.48-.46-.97-.65-1.46-.28-.68-.51-1.37-.7-2.07-.09-.31-.17-.62-.23-.92-.28-1.31-.4-2.64-.31-4,.01-.21.04-.43.08-.65.06-.45.17-.92.33-1.4.03-.12.07-.24.12-.37.04-.12.08-.25.13-.37.07-.18.14-.36.22-.54.15-.36.31-.72.51-1.1.09-.19.19-.38.3-.57.11-.23.24-.46.39-.7.09-.17.2-.35.31-.53.17-.27.35-.55.53-.84.25-.37.51-.75.79-1.13.41-.57.85-1.15,1.31-1.72.31-.39.64-.78.97-1.16.33-.39.68-.78,1.03-1.16.35-.39.72-.78,1.09-1.16,1.12-1.16,2.33-2.3,3.6-3.41.25-.21.5-.43.76-.65.85-.72,1.72-1.41,2.6-2.08.2-.15.4-.3.61-.45.54-.41,1.1-.8,1.65-1.17.33-.23.67-.46,1.01-.68,1.02-.67,2.05-1.3,3.09-1.87.35-.19.7-.38,1.04-.56.35-.18.7-.36,1.05-.53.24-.12.48-.24.73-.35.72-.35,1.45-.66,2.18-.94.23-.09.46-.18.69-.26.37-.14.74-.27,1.11-.38.28-.09.56-.18.85-.26.17-.05.35-.1.52-.14.48-.14.95-.25,1.43-.34.29-.06.58-.12.87-.16.17-.04.34-.06.51-.08.27-.04.55-.07.82-.09.27-.03.53-.05.8-.06.23-.01.46-.02.69-.02.49-.01.97.01,1.44.06.2.02.39.04.58.06.06.01.12.01.18.03.16.02.33.05.49.08.17.03.34.06.52.11.22.05.44.11.65.17.03,0,.07.01.11.03.07.02.14.04.21.07,1.53.49,2.94,1.31,4.18,2.51.17.15.32.31.48.48.16.17.31.35.46.53.73.79,1.47,1.58,2.19,2.39,1.45,1.59,2.89,3.23,4.32,4.89,3.58,4.16,7.1,8.51,10.59,12.97,1.4,1.78,2.79,3.58,4.18,5.39.17.22.35.45.52.68.78,1.02,1.55,2.04,2.33,3.07.78,1.03,1.55,2.06,2.33,3.09.35.46.7.92,1.04,1.38,1.38,1.83,2.76,3.67,4.13,5.52,8.96,11.97,17.91,23.96,27.27,34.64,2.88,3.28,5.8,6.44,8.77,9.44.71.71,1.39,1.42,2.05,2.08.67.65,1.32,1.25,1.98,1.77.65.51,1.31.93,1.99,1.23.33.15.68.26,1.03.34.38.09.76.13,1.15.12.13,0,.25-.01.38-.03.13,0,.25-.02.38-.04.08-.01.16-.03.24-.05.16-.03.31-.07.47-.12.03-.01.06-.02.09-.03.19-.06.38-.13.57-.21.18-.08.37-.17.57-.27.15-.08.3-.17.45-.26.35-.22.72-.47,1.09-.75.24-.19.49-.4.75-.62h.01c.12-.13.25-.24.38-.36h.01s1.42-5.14,1.42-5.14l-24.86-32.51h-.01c.31-.26.62-.51.93-.75.04-.04.08-.07.12-.09,1.03-.84,2-1.63,2.93-2.37.66-.54,1.29-1.05,1.9-1.54.23-.19.45-.37.67-.54.82-.67,1.61-1.29,2.36-1.87.06-.05.11-.09.17-.13.4-.31.79-.61,1.18-.9.34-.25.66-.49.98-.72.64-.46,1.25-.89,1.85-1.27.3-.2.6-.39.89-.56.29-.18.57-.34.86-.5.28-.16.56-.31.84-.45.37-.19.73-.35,1.1-.5.36-.15.71-.29,1.07-.4.13-.04.26-.08.4-.12.13-.04.26-.07.39-.1.06-.02.13-.04.19-.05.07-.02.14-.03.2-.04.22-.04.43-.08.64-.11.21-.03.42-.05.63-.07.23-.02.46-.03.69-.03.19,0,.39.01.58.02.14.01.29.02.43.04.1.01.21.02.32.04.09,0,.19.02.28.04.05.01.09.02.14.03.16.03.32.06.48.1.26.06.53.14.8.23.12.04.23.08.35.12.23.08.46.17.69.27.16.06.32.14.48.21.63.3,1.29.66,1.96,1.09.17.1.34.21.51.33.17.11.35.23.52.35.35.25.71.51,1.07.79.36.28.73.58,1.11.89.39.32.77.66,1.17,1,.39.35.79.72,1.2,1.1.62.58,1.26,1.19,1.92,1.85.22.22.45.44.67.67.23.23.46.46.69.7.69.72,1.41,1.47,2.16,2.27,1.18,1.26,2.42,2.77,3.71,4.43.08.11.16.22.25.33.68.9,1.38,1.83,2.09,2.8,1.64,2.24,3.33,4.64,5.02,6.99.48.67.97,1.34,1.45,2,.74,1.02,1.48,2.02,2.22,2.99.45.6.91,1.2,1.36,1.77,1.21,1.52,2.38,2.92,3.53,4.14.2.22.41.43.61.63.22.23.44.44.66.65.22.21.43.41.65.6.22.19.43.38.64.55.24.19.47.38.7.56.12.09.23.18.35.27.23.17.46.34.69.5.23.16.47.31.7.44.7.43,1.42.74,2.19.89.37.09.76.13,1.16.13.34,0,.7-.03,1.06-.09.36-.07.73-.16,1.12-.29.3-.1.59-.21.85-.33.13-.06.25-.13.37-.2.12-.06.23-.13.33-.19l.02-.02c.11-.07.21-.14.3-.22.1-.07.2-.15.29-.24.17-.16.33-.33.47-.52.05-.06.1-.13.15-.2.04-.07.09-.15.13-.23.2-.34.33-.7.41-1.1.6-2.71-1.21-6.59-4.05-10.79-.05-.08-.1-.16-.17-.25-.21-.33-.44-.65-.68-.99-.44-.61-.89-1.23-1.37-1.86h0c-.31-.42-.63-.84-.96-1.25h0c-.49-.64-.99-1.27-1.5-1.89-.17-.21-.34-.42-.51-.63-.34-.42-.69-.83-1.03-1.25-.02-.01-.03-.03-.05-.05-.5-.6-1.01-1.2-1.51-1.79-.03-.04-.07-.08-.1-.11-.53-.63-1.07-1.25-1.61-1.86-.11-.14-.24-.28-.36-.42-.34-.39-.68-.78-1.01-1.16-.33-.38-.66-.75-.98-1.12-.65-.74-1.27-1.45-1.86-2.13-1-1.15-1.91-2.21-2.67-3.15-.13-.15-.25-.31-.37-.46-.27-.34-.52-.66-.74-.96-.23-.3-.43-.58-.6-.84-.22-.32-.39-.6-.52-.86-.04-.08-.08-.16-.11-.23-.04-.08-.07-.15-.09-.22-.04-.11-.07-.23-.09-.35-.01-.02-.01-.05-.01-.08-.01-.05-.02-.11-.02-.17,0-.01-.02-.03,0-.05-.01-.01-.01-.02,0-.04-.01-.15-.01-.3,0-.46-.01-.08,0-.15.02-.23.03-.15.06-.31.1-.48.01-.05.03-.11.04-.16.03-.11.07-.22.12-.33.03-.08.06-.16.1-.25.03-.08.07-.16.12-.25.08-.17.17-.34.27-.51.05-.08.1-.17.15-.26.05-.09.11-.17.17-.26.11-.17.24-.34.37-.52s.27-.36.43-.55c.14-.17.29-.34.44-.51.16-.17.32-.35.49-.53.5-.53,1.07-1.07,1.67-1.59.6-.53,1.23-1.05,1.89-1.55.47-.36.94-.71,1.42-1.05,1.69-1.2,3.44-2.28,5.01-3.14.45-.24.89-.47,1.31-.68.26-.13.51-.25.76-.36.73-.34,1.38-.61,1.92-.77.14-.05.27-.09.4-.12.19-.05.39-.09.59-.13.82-.14,1.67-.18,2.54-.13.11,0,.23.01.34.03.24.01.48.04.72.07.24.04.49.08.73.12.14.03.28.06.42.09.4.08.8.18,1.19.3.19.05.38.1.57.17.22.07.44.14.65.22.59.21,1.17.45,1.74.71.23.1.46.21.68.32.83.4,1.64.86,2.4,1.34.15.1.31.2.46.3.9.58,1.73,1.21,2.45,1.83.13.11.26.22.39.34.13.12.26.24.39.37.13.12.26.25.39.38.14.13.27.27.41.41.26.27.54.56.81.86.56.61,1.13,1.28,1.71,1.98.24.29.49.6.74.91,1.41,1.76,2.87,3.73,4.36,5.81.43.6.86,1.21,1.3,1.82.06.1.13.19.2.28.24.36.49.71.74,1.07,2.22,3.17,4.46,6.45,6.65,9.47.3.43.61.86.91,1.27.08.11.16.22.24.32.38.52.76,1.03,1.14,1.53.3.4.6.8.91,1.19.59.77,1.17,1.49,1.75,2.18.29.35.57.68.85,1,.18.2.35.4.53.59.24.27.48.53.72.78.21.22.41.43.61.62.6.6,1.17,1.12,1.73,1.55.09.08.19.15.28.22.15.11.3.22.45.32,2.27,1.54,4.39,2.03,6.27,1.61.15-.03.29-.06.42-.11.14-.04.28-.09.41-.14.14-.05.27-.11.4-.17.07-.03.13-.06.2-.1.07-.03.13-.07.2-.11.26-.14.51-.31.76-.5.12-.08.23-.17.34-.28.09-.06.19-.15.28-.24.13-.11.26-.24.38-.37.19-.2.38-.42.56-.65.25-.3.48-.64.7-.99.23-.35.44-.72.64-1.11v-.02c.08-.34.08-.74,0-1.18,0-.07-.02-.15-.04-.22-.03-.15-.07-.3-.12-.46-.05-.16-.1-.33-.17-.5-.59-1.63-1.86-3.67-3.51-5.96-.28-.38-.56-.76-.86-1.15-.89-1.18-1.86-2.41-2.89-3.67-.34-.42-.69-.84-1.04-1.26-.52-.64-1.06-1.28-1.61-1.93-.36-.43-.73-.86-1.09-1.29-.19-.22-.37-.43-.55-.65-.37-.43-.74-.86-1.11-1.29-3.12-3.66-6.2-7.25-8.46-10.27-.26-.35-.52-.7-.76-1.03-.36-.51-.69-.99-.99-1.46-.1-.15-.2-.3-.29-.45-.28-.45-.53-.87-.73-1.27-.14-.27-.26-.52-.36-.76-.05-.12-.1-.24-.14-.35,1.53-1.6,3.2-3.32,4.98-4.98.53-.49,1.06-.97,1.6-1.45.32-.28.65-.57.98-.84.33-.28.66-.55,1-.82.45-.35.9-.7,1.36-1.04,2.28-1.67,4.68-3.05,7.14-3.84.17-.06.35-.11.52-.16.17-.05.35-.1.52-.14.35-.09.7-.16,1.05-.23.26-.06.53-.1.8-.12.18-.02.35-.04.53-.06,3.43-.29,6.95.76,10.41,3.87.54.73,1.09,1.46,1.64,2.19,11.59,15.32,25.86,30.27,38.73,45.48,1.22,1.45,2.43,2.9,3.63,4.35.6.73,1.19,1.46,1.78,2.19,1.18,1.45,2.33,2.91,3.48,4.37h0c1.14,1.47,2.25,2.94,3.35,4.41.54.74,1.08,1.47,1.62,2.21,1.06,1.48,2.1,2.96,3.11,4.44,12.6,18.54,14.78,54.8,15.45,77.58.04,1.22.05,2.41.03,3.59Z"/>
    </g>
  </g>
</svg>