<?xml version="1.0" encoding="UTF-8"?>
<svg id="Layer_2" data-name="Layer 2" xmlns="http://www.w3.org/2000/svg" viewBox="0 0 1239.93 222.25">
  <defs>
    <style>
      .cls-1, .cls-2, .cls-3 {
        fill: #fff;
      }

      .cls-2 {
        stroke: #000;
        stroke-width: 2px;
      }

      .cls-2, .cls-4, .cls-3 {
        stroke-miterlimit: 10;
      }

      .cls-4, .cls-5 {
        fill: #00ad4d;
      }

      .cls-4, .cls-3 {
        stroke: #231f20;
        stroke-width: .92px;
      }
    </style>
  </defs>
  <g id="Layer_1-2" data-name="Layer 1">
    <g>
      <g>
        <path d="M1238.36,75.3c-.79-2.84-2.36-5.29-4.65-7.3-2.55-2.23-5.75-3.44-9.21-3.46l-100.68-1.06-12.45-.14-8.24-.1-13.9-.12-20.55-.22.23,46.65-51.07-44.18c-3.2-2.87-6.87-4.53-11.1-4.92-3.7-.26-7.18.39-10.38,1.96-.67.34-1.29.7-1.92,1.1-1.84-.9-3.89-1.42-6.16-1.46l-100.68-1.06-12.42-.15-22.18-.22.03,3.55c-4.31-2.41-9.12-3.66-14.45-3.7l-98.01-1.03.34,61.71-57.1-.58c-.33,0-.42-.03-.8-.47-.42-.41-.6-.75-.58-1.61l-.33-59.66-34.6-.36.32,59.89c0,.59,0,1.22.06,1.8l-57.18-.57c-.33,0-.42-.03-.8-.48-.32-.3-.59-.67-.58-1.6l-.34-59.7-34.6-.36.03,6.96c-2.12-1.73-4.47-3.21-7.05-4.41-4.45-2.06-9.23-3.13-14.16-3.17l-51.62-.56c-5.03-.04-9.82.93-14.26,2.94-3.28,1.48-6.25,3.4-8.82,5.71-.37-.73-.83-1.46-1.31-2.15l-.04-.07c-2.42-3.41-5.46-5.85-9.03-7.3-3.65-1.48-7.51-1.84-11.28-1.12-4.46.82-8.38,3.22-11.23,6.9l-41.07,50.38-41.68-51.43c-3.05-3.71-6.75-6.08-11.19-6.99-4.05-.77-7.86-.43-11.23.91-.57.21-1.11.45-1.66.74l-62.55-.61c-5.19-.09-10.03,1.4-14.04,4.37-3.7,2.74-6.47,6.2-8.28,10.17-1.85,4.06-2.59,8.44-2.25,13.18.42,4.8,2.14,9.32,5.19,13.43l15.71,20.81-50.39-.54.19,35.57,70.22.72c1.04.04,2.11-.05,3.13-.16,3.99-.44,7.72-1.85,10.84-4.16,3.71-2.7,6.5-6.16,8.31-10.29,1.78-4.01,2.48-8.34,2.15-13.08-.42-4.8-2.14-9.28-5.19-13.43l-15.6-20.83,31.49.35.33,62.04,34.44.3-.17-38.09,27.02,33.39c1.97,2.38,4.25,4.24,6.98,5.57,2.58,1.23,5.32,1.89,8.11,1.92,2.89.04,5.74-.56,8.25-1.77,2.79-1.23,5.21-3.13,7.16-5.57l26.75-32.84.23,38.35,19.32.2,15.13.14,19.47.22-.1-19.02,54.02.55.07,19.03,34.63.36-.02-7.33c2.15,1.72,4.49,3.14,7,4.34,4.41,2.07,9.19,3.17,14.24,3.21l70.94.76-.05-8.07c2.41,2.04,5.08,3.73,7.97,5.13,4.45,2.06,9.24,3.12,14.24,3.17l57.41.62,13.53.14,84.18.88c1.37.04,2.74-.04,4.05-.19,3.85-.42,7.43-1.52,10.67-3.32v3.7s34.6.36,34.6.36v-.04c.08,0,.19.02.26.01l113.66,1.22,17.98.2-.23-46.75,50.84,44.17c3.14,2.91,6.99,4.63,11.26,5.01,1.31.08,2.56.05,3.77-.08,2.08-.23,4.06-.74,5.93-1.62l32.75.35c.07,0,.18.02.25.01l113.66,1.22-.21-35.75-51.65-.55c4.07-3.01,8.14-6.05,12.22-9.06l33.98-25.01c2.96-2,4.97-4.89,5.8-8.2.73-2.75.73-5.52-.03-8.26ZM1124,99.23l38.68.4c-4.11,3.01-8.19,6.02-12.26,9.02-8.7,6.44-17.47,12.93-26.24,19.34l-.18-28.75ZM985.37,123.69l-35.19-.33c4.11-3.05,8.22-6.06,12.3-9.07,7.56-5.61,15.17-11.23,22.74-16.77l.15,26.16ZM887.8,96.73l38.71.39-38.53,28.4-.17-28.8Z"/>
        <path d="M1238.36,75.3c-.79-2.84-2.36-5.29-4.65-7.3-2.55-2.23-5.75-3.44-9.21-3.46l-100.68-1.06-12.45-.14-8.24-.1-13.9-.12-20.55-.22.23,46.65-51.07-44.18c-3.2-2.87-6.87-4.53-11.1-4.92-3.7-.26-7.18.39-10.38,1.96-.67.34-1.29.7-1.92,1.1-1.84-.9-3.89-1.42-6.16-1.46l-100.68-1.06-12.42-.15-22.18-.22.03,3.55c-4.31-2.41-9.12-3.66-14.45-3.7l-98.01-1.03.34,61.71-57.1-.58c-.33,0-.42-.03-.8-.47-.42-.41-.6-.75-.58-1.61l-.33-59.66-34.6-.36.32,59.89c0,.59,0,1.22.06,1.8l-57.18-.57c-.33,0-.42-.03-.8-.48-.32-.3-.59-.67-.58-1.6l-.34-59.7-34.6-.36.03,6.96c-2.12-1.73-4.47-3.21-7.05-4.41-4.45-2.06-9.23-3.13-14.16-3.17l-51.62-.56c-5.03-.04-9.82.93-14.26,2.94-3.28,1.48-6.25,3.4-8.82,5.71-.37-.73-.83-1.46-1.31-2.15l-.04-.07c-2.42-3.41-5.46-5.85-9.03-7.3-3.65-1.48-7.51-1.84-11.28-1.12-4.46.82-8.38,3.22-11.23,6.9l-41.07,50.38-41.68-51.43c-3.05-3.71-6.75-6.08-11.19-6.99-4.05-.77-7.86-.43-11.23.91-.57.21-1.11.45-1.66.74l-62.55-.61c-5.19-.09-10.03,1.4-14.04,4.37-3.7,2.74-6.47,6.2-8.28,10.17-1.85,4.06-2.59,8.44-2.25,13.18.42,4.8,2.14,9.32,5.19,13.43l15.71,20.81-50.39-.54.19,35.57,70.22.72c1.04.04,2.11-.05,3.13-.16,3.99-.44,7.72-1.85,10.84-4.16,3.71-2.7,6.5-6.16,8.31-10.29,1.78-4.01,2.48-8.34,2.15-13.08-.42-4.8-2.14-9.28-5.19-13.43l-15.6-20.83,31.49.35.33,62.04,34.44.3-.17-38.09,27.02,33.39c1.97,2.38,4.25,4.24,6.98,5.57,2.58,1.23,5.32,1.89,8.11,1.92,2.89.04,5.74-.56,8.25-1.77,2.79-1.23,5.21-3.13,7.16-5.57l26.75-32.84.23,38.35,19.32.2,15.13.14,19.47.22-.1-19.02,54.02.55.07,19.03,34.63.36-.02-7.33c2.15,1.72,4.49,3.14,7,4.34,4.41,2.07,9.19,3.17,14.24,3.21l70.94.76-.05-8.07c2.41,2.04,5.08,3.73,7.97,5.13,4.45,2.06,9.24,3.12,14.24,3.17l57.41.62,13.53.14,84.18.88c1.37.04,2.74-.04,4.05-.19,3.85-.42,7.43-1.52,10.67-3.32v3.7s34.6.36,34.6.36v-.04c.08,0,.19.02.26.01l113.66,1.22,17.98.2-.23-46.75,50.84,44.17c3.14,2.91,6.99,4.63,11.26,5.01,1.31.08,2.56.05,3.77-.08,2.08-.23,4.06-.74,5.93-1.62l32.75.35c.07,0,.18.02.25.01l113.66,1.22-.21-35.75-51.65-.55c4.07-3.01,8.14-6.05,12.22-9.06l33.98-25.01c2.96-2,4.97-4.89,5.8-8.2.73-2.75.73-5.52-.03-8.26ZM1124,99.23l38.68.4c-4.11,3.01-8.19,6.02-12.26,9.02-8.7,6.44-17.47,12.93-26.24,19.34l-.18-28.75ZM985.37,123.69l-35.19-.33c4.11-3.05,8.22-6.06,12.3-9.07,7.56-5.61,15.17-11.23,22.74-16.77l.15,26.16ZM887.8,96.73l38.71.39-38.53,28.4-.17-28.8Z"/>
        <path class="cls-2" d="M1238.36,75.3c-.79-2.84-2.36-5.29-4.65-7.3-2.55-2.23-5.75-3.44-9.21-3.46l-100.68-1.06-12.45-.14-8.24-.1-13.9-.12-20.55-.22.23,46.65-51.07-44.18c-3.2-2.87-6.87-4.53-11.1-4.92-3.7-.26-7.18.39-10.38,1.96-.67.34-1.29.7-1.92,1.1-1.84-.9-3.89-1.42-6.16-1.46l-100.68-1.06-12.42-.15-22.18-.22.03,3.55c-4.31-2.41-9.12-3.66-14.45-3.7l-98.01-1.03.34,61.71-57.1-.58c-.33,0-.42-.03-.8-.47-.42-.41-.6-.75-.58-1.61l-.33-59.66-34.6-.36.32,59.89c0,.59,0,1.22.06,1.8l-57.18-.57c-.33,0-.42-.03-.8-.48-.32-.3-.59-.67-.58-1.6l-.34-59.7-34.6-.36.03,6.96c-2.12-1.73-4.47-3.21-7.05-4.41-4.45-2.06-9.23-3.13-14.16-3.17l-51.62-.56c-5.03-.04-9.82.93-14.26,2.94-3.28,1.48-6.25,3.4-8.82,5.71-.37-.73-.83-1.46-1.31-2.15l-.04-.07c-2.42-3.41-5.46-5.85-9.03-7.3-3.65-1.48-7.51-1.84-11.28-1.12-4.46.82-8.38,3.22-11.23,6.9l-41.07,50.38-41.68-51.43c-3.05-3.71-6.75-6.08-11.19-6.99-4.05-.77-7.86-.43-11.23.91-.57.21-1.11.45-1.66.74l-62.55-.61c-5.19-.09-10.03,1.4-14.04,4.37-3.7,2.74-6.47,6.2-8.28,10.17-1.85,4.06-2.59,8.44-2.25,13.18.42,4.8,2.14,9.32,5.19,13.43l15.71,20.81-50.39-.54.19,35.57,70.22.72c1.04.04,2.11-.05,3.13-.16,3.99-.44,7.72-1.85,10.84-4.16,3.71-2.7,6.5-6.16,8.31-10.29,1.78-4.01,2.48-8.34,2.15-13.08-.42-4.8-2.14-9.28-5.19-13.43l-15.6-20.83,31.49.35.33,62.04,34.44.3-.17-38.09,27.02,33.39c1.97,2.38,4.25,4.24,6.98,5.57,2.58,1.23,5.32,1.89,8.11,1.92,2.89.04,5.74-.56,8.25-1.77,2.79-1.23,5.21-3.13,7.16-5.57l26.75-32.84.23,38.35,19.32.2,15.13.14,19.47.22-.1-19.02,54.02.55.07,19.03,34.63.36-.02-7.33c2.15,1.72,4.49,3.14,7,4.34,4.41,2.07,9.19,3.17,14.24,3.21l70.94.76-.05-8.07c2.41,2.04,5.08,3.73,7.97,5.13,4.45,2.06,9.24,3.12,14.24,3.17l57.41.62,13.53.14,84.18.88c1.37.04,2.74-.04,4.05-.19,3.85-.42,7.43-1.52,10.67-3.32v3.7s34.6.36,34.6.36v-.04c.08,0,.19.02.26.01l113.66,1.22,17.98.2-.23-46.75,50.84,44.17c3.14,2.91,6.99,4.63,11.26,5.01,1.31.08,2.56.05,3.77-.08,2.08-.23,4.06-.74,5.93-1.62l32.75.35c.07,0,.18.02.25.01l113.66,1.22-.21-35.75-51.65-.55c4.07-3.01,8.14-6.05,12.22-9.06l33.98-25.01c2.96-2,4.97-4.89,5.8-8.2.73-2.75.73-5.52-.03-8.26ZM533.54,92.75s.06.03.1.06c.07.04.14.1.22.2.23.27.4.51.5.84.03.11.06.24.07.37s.02.29.02.46l.05,5.11-54.03-.58h0s0-5.3,0-5.3c-.03-.92.23-1.25.46-1.53.06-.05.09-.08.13-.1.04-.03.07-.06.11-.07.08-.03.18-.05.31-.06l51.55.52c.08,0,.15,0,.22,0,.09.01.19.04.27.09ZM1124,99.23l38.68.4c-4.11,3.01-8.19,6.02-12.26,9.02-8.7,6.44-17.47,12.93-26.24,19.34l-.18-28.75ZM985.37,123.69l-35.19-.33c4.11-3.05,8.22-6.06,12.3-9.07,7.56-5.61,15.17-11.23,22.74-16.77l.15,26.16ZM887.8,96.73l38.71.39-38.53,28.4-.17-28.8Z"/>
        <path d="M534.45,94.68l.05,5.11-54.03-.59v-5.3c-.02-.92.24-1.25.47-1.53.2-.17.27-.22.57-.25l51.54.53c.33,0,.48.02.82.35.38.44.61.82.59,1.68Z"/>
        <path d="M534.45,94.68l.05,5.11-54.03-.59v-5.3c-.02-.92.24-1.25.47-1.53.2-.17.27-.22.57-.25l51.54.53c.33,0,.48.02.82.35.38.44.61.82.59,1.68Z"/>
        <path d="M315.73,63.99l-59.59-.6c-3.22-.05-6.06.82-8.42,2.56-2.4,1.78-4.19,3.94-5.39,6.59-1.19,2.62-1.69,5.49-1.46,8.57.27,3.08,1.36,5.96,3.36,8.66l26.96,35.77-59.74-.63.07,17.15,61.22.64c3.23.05,6.06-.82,8.43-2.56,2.39-1.74,4.15-3.94,5.31-6.58,1.15-2.61,1.61-5.48,1.38-8.56-.26-3.08-1.35-5.97-3.37-8.7l-26.8-35.74,58.11.61-.09-17.17Z"/>
        <path d="M449.66,68.01c-1.37-1.92-3.03-3.29-4.98-4.08-1.94-.78-3.99-1-6.21-.57-2.21.39-4.12,1.6-5.71,3.63l-48.2,59.18-48.8-60.21c-1.66-2.04-3.58-3.31-5.78-3.77-2.2-.42-4.3-.3-6.22.47-1.91.73-3.58,2.07-4.89,3.98-1.34,1.89-2.02,4.16-1.99,6.74l.34,69.82,16.05.16-.25-54.93,43.49,53.68c1.12,1.36,2.33,2.37,3.75,3.07,1.4.66,2.85,1.01,4.34,1.04,1.48.02,2.93-.29,4.37-.97,1.45-.64,2.71-1.64,3.79-2.97l42.95-52.74.29,54.93,16.05.15-.34-69.77c.01-2.6-.68-4.85-2.04-6.82Z"/>
        <path d="M557.76,83.74c-1.42-3.5-3.35-6.55-5.71-9.15-2.44-2.62-5.26-4.71-8.51-6.24-3.23-1.49-6.73-2.29-10.41-2.33l-51.61-.56c-3.71-.03-7.15.68-10.4,2.14-3.24,1.47-6.02,3.45-8.41,6.04-2.38,2.57-4.26,5.59-5.62,9.03-1.4,3.41-2.07,7.12-2.04,11.08l.25,50.9,16.21.17-.11-19.02,72.46.73.06,19.04,16.21.17-.25-50.9c0-3.92-.73-7.63-2.12-11.1ZM543.67,94.67l.07,14.43-72.42-.77-.07-14.4c0-3.08,1-5.7,2.99-7.85,2.03-2.16,4.5-3.2,7.36-3.15l51.61.52c2.9.05,5.35,1.15,7.41,3.33,2.02,2.19,3.05,4.81,3.05,7.89Z"/>
        <path d="M590.59,128.78c-2.89-.05-5.35-1.15-7.37-3.34-2.05-2.18-3.05-4.8-3.09-7.88l-.26-50.64-16.2-.17.25,50.64c.03,3.92.73,7.63,2.15,11.09,1.43,3.51,3.32,6.53,5.72,9.12,2.39,2.54,5.25,4.6,8.49,6.13,3.24,1.53,6.69,2.3,10.4,2.33l61.59.64-.06-17.29-61.62-.64Z"/>
        <path d="M683.7,129.76c-2.89-.05-5.35-1.15-7.37-3.34-2.05-2.18-3.09-4.8-3.09-7.88l-.26-50.6-16.21-.17.26,50.6c0,3.92.73,7.66,2.13,11.13,1.42,3.48,3.34,6.48,5.74,9.07,2.39,2.55,5.21,4.61,8.46,6.14,3.28,1.53,6.73,2.29,10.44,2.33l61.6.68-.09-17.32-61.59-.64Z"/>
        <path class="cls-4" d="M858.96,83.88c-1.72-3.95-4.36-7.3-7.88-10.06-3.53-2.72-7.72-4.11-12.57-4.16l-88.66-.91.38,79,88.67.94c4.86.06,9.05-1.25,12.53-3.9,3.52-2.64,6.09-5.93,7.8-9.86,1.67-3.93,2.32-8.18,1.88-12.8-.43-4.62-2.13-8.88-5.11-12.77,2.95-3.81,4.6-8.03,4.97-12.63.42-4.59-.28-8.89-2.01-12.85ZM844.99,124.68c.01,1.74-.48,3.27-1.52,4.65-1.03,1.4-2.59,2.06-4.66,2.06l-72.42-.77-.05-13.56,72.42.74c2.08.03,3.59.75,4.64,2.15,1.04,1.4,1.59,2.97,1.59,4.71ZM844.84,93.81c.01,1.74-.48,3.31-1.51,4.68-1.04,1.37-2.59,2.07-4.66,2.03l-72.42-.78-.05-13.55,72.42.78c2.04.03,3.59.75,4.64,2.15,1.04,1.4,1.58,2.93,1.58,4.67Z"/>
        <path class="cls-4" d="M862.28,69.92l.39,79.03,16.21.17-.4-79.03-16.2-.17Z"/>
        <path class="cls-4" d="M993.31,75.26c-.34-1.11-.96-2.04-1.82-2.83-.94-.75-2.02-1.16-3.28-1.2l-103.76-1.1.06,17.33,69.49.73c-11.5,8.53-22.94,16.98-34.27,25.39-11.37,8.37-22.78,16.77-34.29,25.23-1.06.75-1.74,1.71-2.05,2.93-.31,1.18-.33,2.37,0,3.44.31,1.11.94,2.09,1.83,2.84.9.8,1.98,1.19,3.25,1.2l104.3,1.11-.09-17.32-69.97-.71c11.46-8.53,22.9-17.01,34.27-25.38,11.34-8.41,22.77-16.81,34.25-25.23,1.07-.74,1.77-1.74,2.09-2.94.31-1.21.29-2.36-.02-3.48Z"/>
        <path class="cls-4" d="M1077.95,72.21l.28,57.53-66.51-57.51c-1.72-1.55-3.6-2.42-5.62-2.6-2.02-.15-3.91.17-5.66,1.03-1.76.86-3.21,2.18-4.38,4-1.17,1.8-1.75,3.9-1.71,6.3l.33,69.37,16.1.18-.3-57.71,66.36,57.67c1.69,1.55,3.61,2.42,5.66,2.59,2.09.14,4.01-.22,5.76-1.12,1.76-.9,3.21-2.21,4.34-3.96,1.18-1.79,1.77-3.86,1.75-6.26l-.36-69.37-16.05-.16Z"/>
        <path class="cls-4" d="M1098.48,72.42l.39,78.99,16.2.17-.39-79-16.21-.17Z"/>
        <path class="cls-4" d="M1229.48,77.76c-.3-1.11-.93-2.04-1.83-2.83-.9-.8-1.98-1.19-3.24-1.2l-103.79-1.09.09,17.32,69.46.73c-11.5,8.53-22.9,16.98-34.27,25.35-11.34,8.41-22.78,16.81-34.26,25.23-1.1.79-1.77,1.74-2.08,2.97-.31,1.18-.3,2.33,0,3.44.3,1.11.93,2.05,1.83,2.84.9.8,2.02,1.19,3.28,1.2l104.31,1.1-.1-17.32-70.01-.75c11.5-8.52,22.9-16.97,34.27-25.38,11.33-8.36,22.78-16.77,34.25-25.22,1.1-.76,1.77-1.71,2.08-2.94.31-1.18.31-2.33,0-3.45Z"/>
      </g>
      <g>
        <g>
          <path d="M217.85,178.8c-.63-6.73-1.32-13.45-1.99-20.19-.44-4.44-1.95-8.53-4.73-12.01-2.97-3.7-5.97-7.38-8.98-11.05l-13.63-17.41-.81-57.41-.04-3.64,6.31-.83,3.35-15.3L128.79,4.03,49.28,0,0,64.1l13.11,13,4.56-4.86,12.02,60.03,18.72,7.49,65.47,18.14c3.94,4.82,7.89,9.63,11.83,14.45.29.34.57.69,1.04,1.28-3.41-.34-6.48-.6-9.53-.97-4.67-.54-8.98.4-13.05,2.78-6.48,3.8-8.21,12.64-3.43,18.43,2.95,3.58,6.77,5.97,11.22,7.32,15.79,4.83,31.59,9.63,47.37,14.52,1.25.39,2.6,1.09,3.47,2.03,5.02,5.43,12.2,6.03,17.92,1.34,10.3-8.43,20.62-16.85,30.88-25.31,4.7-3.86,6.8-8.9,6.24-14.98Z"/>
          <path d="M14.7,69.62c-.29.38-.73.62-1.2.68-.48.07-.97-.07-1.34-.37l-5.25-4.56c-.74-.61-.88-1.69-.31-2.45L50.69,5.18c.27-.39.67-.65,1.12-.74.07,0,.12-.01.19-.01h.09c.1,0,.19.02.28.06l74.46,3.7v-.09s.09-.01.09-.01c.06.02.12.05.19.08.32-.02.63.04.93.19l62.98,35.32c.5.3.81.81.85,1.39l-.96,5.09c-.2.81-.36,2.06-1.64,1.97l-75,6.14h-.09s-.09.01-.09.01c-.41.02-.81-.11-1.13-.34l-.19-.08c-.04-.05-.08-.12-.11-.18L53.46,19.77,14.7,69.62Z"/>
          <path d="M77.4,141.97c-1.82-.42-3.17-1.97-3.36-3.82l-5.7-67.13-24.81-1.78,9.66,61.89c.09,1.4-.52,2.73-1.6,3.62-1.09.9-2.5,1.25-3.86.9l-12.16-5.7c-1.8-.46-3.11-1.99-3.27-3.83l-11.48-57.07c-.11-1.11.22-2.22.91-3.1l29.89-38.35c.66-.83,1.58-1.4,2.61-1.61,1.18-.21,2.4.08,3.36.8l56.79,36.38,63.83-6.97c1.18-.13,2.38.23,3.29.99.91.74,1.44,1.8,1.54,2.98l.24,56.46c-2.54-.59-5.25-.36-7.67.82-1.68.82-3.18,2.02-4.68,3.2-.39.31-.78.61-1.18.91-.59.45-.98.51-1.68.19-3.98-1.87-7.97-1.92-11.76.44-1.89,1.17-3.58,2.63-5.41,3.99-6.67-3.51-12.24-1.31-17.31,3.77-.46-.55-.74-.92-1.04-1.28-4.05-4.95-8.09-9.92-12.16-14.85-3.78-4.57-10.59-5.85-15.55-2.69-2.74,1.74-5.2,3.92-7.73,5.97-5.8,4.72-6.56,12.33-1.83,18.1,3.84,4.69,7.68,9.38,11.52,14.07l-29.38-7.29Z"/>
          <path d="M213.05,181.32c-.03.49-.08.89-.13,1.29l-.02.13c-.09.47-.19.93-.32,1.38l-.03.11c-.05.13-.08.27-.13.41-.51,1.43-1.3,2.74-2.34,3.89-.16.17-.31.33-.48.49-.33.34-.66.63-.95.87-5.39,4.42-31.12,25.48-31.12,25.48-1.62,1.33-3.33,2.01-5.09,2.01-2.1,0-4.06-.94-5.83-2.82-.96-1-1.99-1.81-3.07-2.42-.44-.24-.9-.46-1.41-.65-.24-.09-.48-.18-.72-.24-7.97-2.43-15.96-4.87-23.93-7.31l-23.95-7.32c-3-.92-5.56-2.37-7.59-4.32-.11-.1-.28-.27-.43-.42-.13-.12-.24-.26-.35-.39l-.1-.1c-.47-.52-.86-1.07-1.19-1.67-.14-.23-.22-.42-.31-.61l-.07-.16c-.13-.32-.22-.59-.3-.85-1.02-3.41.57-6.99,3.99-8.81,2.39-1.27,4.85-1.9,7.32-1.9.5,0,1.01.02,1.51.08,2.26.22,4.53.46,6.79.68,3.6.35,7.19.71,10.77,1.1.55.07,1.06.21,1.59.44l.14.07c.2.1.46.24.77.45.33.23.65.5.96.81.6.62,1.09,1.23,1.52,1.78.24.3.47.59.71.87.27.31.55.36.71.36.17,0,.33-.05.48-.17.31-.26.33-.79.05-1.18-.11-.14-.24-.3-.37-.46l-.28-.33c-5.31-6.48-10.61-12.96-15.91-19.45-2.84-3.47-5.68-6.94-8.52-10.4l-.47-.56c-5.27-6.44-10.55-12.84-15.83-19.26-1.87-2.24-2.43-5.27-1.48-7.91.09-.21.18-.42.27-.62v-.19l.59-.87c.34-.49.74-.94,1.18-1.35.24-.21.49-.41.76-.6,1.24-.88,2.43-1.87,3.67-2.94.58-.5,1.15-.99,1.74-1.46,1.61-1.31,3.39-1.99,5.14-1.99,1.56,0,3.86.53,5.94,3.06,6.43,7.86,12.85,15.7,19.29,23.55,2.09,2.55,4.16,5.09,6.25,7.64l.17.2s.09.1.16.16c.02.02.05.05.08.08.11.09.21.14.32.2.06.01.2.05.2.05,0,0,.22-.02.22-.02,0,0,.18-.05.19-.05l.1-.09.14-.14s.02-.04.03-.05c.23-.42.02-.81-.19-1.08-1.57-1.94-3.16-3.89-4.76-5.83-.62-.74-1.24-1.51-1.86-2.28l-3.14-3.83,2.6-2.11c.43-.34.83-.71,1.24-1.06.49-.43.96-.84,1.45-1.24.29-.24.62-.48.95-.71l.17-.11.53-.33c1.07-.65,2.25-.98,3.46-.98,2.17,0,4.35,1.06,5.81,2.81.41.5.84,1.02,1.27,1.56l2.03,2.47c2.15,2.63,4.31,5.27,6.48,7.9l.4.5s.08.09.12.14c.13.12.24.22.34.29.06.03.14.08.22.11.07.02.12.05.18.06.03,0,.07,0,.1,0,.07,0,.12,0,.19-.02,0,0,.11-.05.23-.16l.09-.09.06-.05s.02-.05.04-.08c.09-.23.06-.45-.04-.69-.1-.21-.21-.4-.37-.58l-9.6-11.76,2.59-2.11c.36-.3.73-.61,1.09-.92.26-.22.51-.44.77-.65.32-.27.67-.55,1.02-.82.29-.24.61-.47.94-.7.05-.02.58-.41.58-.41l.09-.03.49-.22c.51-.23.99-.36,1.3-.43l.15-.03c.22-.04.46-.08.69-.1.19-.02.41-.03.65-.03.21,0,.43.01.67.03.19.02.42.06.65.09.29.05.57.13.84.21h.13l.65.28c.43.19.85.42,1.24.68.36.22.74.52,1.12.89l.08.08c.18.17.35.35.49.52l.14.14c2.16,2.64,4.33,5.28,6.48,7.92l.72.88c.62.77,1.22,1.5,1.83,2.24l1.01,1.23c.39.47.77.63,1,.63.09,0,.21-.02.4-.17.52-.45.13-1.09-.15-1.44l-1.49-1.81s-2.34-2.88-2.36-2.91c-.6-.72-1.2-1.44-1.79-2.18l-.95-1.15c-.2-.26-.33-.41-.47-.59-.22-.26-.39-.47-.55-.68l-1.99-2.55,2.51-2.06c.38-.31.73-.61,1.09-.91.72-.6,1.4-1.16,2.09-1.7l.39-.3,3.58-1.41h.61c2.34-.01,4.49,1.02,5.97,2.82,1.6,1.94,3.17,3.87,4.75,5.8l6.37,7.77c3.06,3.75,6.14,7.5,9.21,11.23,1.72,2.09,2.98,4.45,3.72,7.02l.2.79c.13.59.23,1.11.31,1.61l.1.83c.69,6.75,1.34,13.48,2,20.22.07.63.08,1.32.05,2.01Z"/>
        </g>
        <path class="cls-3" d="M213,179.31c-.66-6.74-1.31-13.47-2-20.22l-.1-.83c-.08-.5-.18-1.02-.31-1.61l-.2-.79c-.74-2.57-2-4.94-3.72-7.02-3.07-3.73-6.15-7.48-9.21-11.23l-6.37-7.77c-1.58-1.93-3.15-3.86-4.75-5.8-1.48-1.8-3.63-2.83-5.97-2.83h-.61s-3.58,1.42-3.58,1.42l-.39.3c-.69.53-1.37,1.1-2.09,1.7-.36.3-.71.6-1.09.91l-2.51,2.06,1.99,2.55c.17.21.33.42.55.68.13.18.27.33.47.59l.95,1.15c.59.73,1.19,1.45,1.79,2.18.02.02,2.36,2.91,2.36,2.91l1.49,1.81c.29.36.68,1,.15,1.44-.19.14-.31.17-.4.17-.24,0-.61-.17-1-.63l-1.01-1.23c-.61-.74-1.21-1.47-1.83-2.24l-.72-.88c-2.15-2.64-4.32-5.28-6.48-7.92l-.14-.14c-.14-.17-.31-.35-.49-.52l-.08-.08c-.38-.37-.77-.67-1.12-.89-.39-.25-.81-.49-1.24-.68l-.65-.28h-.13c-.28-.08-.55-.16-.84-.21-.23-.03-.47-.07-.65-.09-.23-.02-.46-.03-.67-.03-.23,0-.46.01-.65.03-.23.02-.46.06-.69.1l-.15.03c-.31.08-.79.2-1.3.43l-.49.22-.09.03s-.53.39-.58.41c-.33.23-.65.46-.94.7-.36.27-.7.55-1.02.82-.25.21-.51.43-.77.65-.35.31-.72.62-1.09.92l-2.59,2.11,9.6,11.76c.16.18.27.36.37.58.1.24.13.46.04.69-.02.03-.04.08-.04.08l-.06.05-.09.09c-.12.11-.23.16-.23.16-.07.01-.12.02-.19.02-.03,0-.07,0-.1,0-.06-.01-.11-.03-.18-.06-.08-.03-.17-.08-.22-.11-.1-.07-.21-.17-.34-.29-.04-.05-.09-.09-.12-.14l-.4-.5c-2.17-2.63-4.33-5.27-6.48-7.9l-2.03-2.47c-.42-.53-.86-1.06-1.27-1.56-1.47-1.75-3.64-2.81-5.81-2.81-1.21,0-2.4.33-3.46.98l-.53.33-.17.11c-.33.23-.67.48-.95.71-.49.4-.97.81-1.45,1.24-.41.34-.81.71-1.24,1.06l-2.6,2.11,3.14,3.83c.62.77,1.24,1.53,1.86,2.28,1.6,1.94,3.19,3.89,4.76,5.83.21.27.42.65.19,1.08-.01.01-.02.03-.03.05l-.14.14-.1.09s-.19.05-.19.05c0,0-.21.01-.22.02,0,0-.14-.04-.2-.05-.11-.05-.21-.11-.32-.2-.03-.02-.06-.06-.08-.08-.07-.05-.13-.13-.16-.16l-.17-.2c-2.09-2.54-4.16-5.08-6.25-7.64-6.44-7.84-12.86-15.69-19.29-23.55-2.07-2.53-4.37-3.06-5.94-3.06-1.75,0-3.53.68-5.14,1.99-.59.48-1.16.97-1.74,1.46-1.24,1.07-2.43,2.06-3.67,2.94-.27.19-.52.39-.76.6-.44.41-.84.87-1.18,1.35l-.59.87v.19c-.09.2-.17.41-.27.62-.96,2.64-.39,5.67,1.48,7.91,5.28,6.41,10.56,12.82,15.83,19.26l.47.56c2.84,3.46,5.68,6.93,8.52,10.4,5.31,6.49,10.61,12.97,15.91,19.45l.28.33c.13.15.26.31.37.46.29.39.27.92-.05,1.18-.14.11-.3.17-.48.17-.16,0-.45-.05-.71-.36-.24-.29-.48-.58-.71-.87-.43-.55-.92-1.15-1.52-1.78-.31-.31-.63-.58-.96-.81-.3-.2-.57-.34-.77-.45l-.14-.07c-.53-.23-1.03-.38-1.59-.44-3.58-.39-7.18-.74-10.77-1.1-2.26-.22-4.53-.46-6.79-.68-.5-.05-1.01-.08-1.51-.08-2.47,0-4.94.63-7.32,1.9-3.43,1.82-5.02,5.4-3.99,8.81.08.27.17.53.3.85l.07.16c.09.19.17.38.31.61.33.6.72,1.15,1.19,1.67l.1.1c.11.13.22.27.35.39.16.15.32.32.43.42,2.03,1.94,4.59,3.4,7.59,4.32l23.95,7.32c7.98,2.44,15.97,4.88,23.93,7.31.24.07.49.16.72.24.51.2.96.41,1.41.65,1.09.61,2.12,1.42,3.07,2.42,1.76,1.88,3.73,2.82,5.83,2.82,1.76,0,3.47-.68,5.09-2.01,0,0,25.72-21.06,31.12-25.48.29-.23.62-.52.95-.87.17-.15.32-.32.48-.49,1.04-1.15,1.83-2.46,2.34-3.89.05-.14.09-.28.13-.41l.03-.11c.13-.44.23-.91.32-1.38l.02-.13c.05-.4.1-.8.13-1.29.02-.69.01-1.37-.05-2.01ZM209.73,181.17c-.02.32-.06.65-.1.96-.07.36-.14.71-.24,1.06-.04.1-.06.2-.1.31-.35,1.02-.91,1.95-1.68,2.8-.11.12-.22.24-.34.35-.23.24-.49.47-.75.69-10.36,8.48-20.72,16.97-31.09,25.46-2.26,1.86-4.36,1.63-6.39-.52-1.15-1.21-2.44-2.24-3.88-3.04-.58-.32-1.18-.6-1.8-.84-.31-.11-.63-.22-.95-.32-4-1.22-7.99-2.44-11.98-3.66-3.99-1.22-7.98-2.44-11.97-3.66-7.98-2.44-15.96-4.88-23.95-7.32-2.36-.72-4.51-1.85-6.27-3.54-.12-.11-.26-.24-.38-.37-.12-.12-.24-.26-.37-.39-.3-.33-.54-.69-.73-1.04-.07-.12-.12-.24-.17-.36-.07-.17-.14-.32-.18-.49-.58-1.92.28-3.91,2.34-5.01,2.16-1.14,4.45-1.71,6.93-1.45,5.85.6,11.7,1.14,17.56,1.78.19.02.39.09.59.18.13.07.25.13.38.22.19.12.36.27.5.41.74.77,1.36,1.66,2.06,2.47,1.5,1.74,4.02,2.01,5.77.62,1.73-1.37,2.02-3.93.65-5.77-.24-.31-.49-.6-.73-.9-5.32-6.49-10.62-12.97-15.92-19.47-3-3.66-5.99-7.31-8.99-10.96-5.27-6.44-10.55-12.85-15.85-19.26-1.13-1.36-1.45-3.15-.91-4.66.11-.31.27-.61.47-.9h0c.2-.3.43-.57.7-.81.13-.12.28-.23.43-.34,1.95-1.37,3.74-3.02,5.59-4.54,2.26-1.83,4.56-1.62,6.39.61,6.43,7.86,12.85,15.7,19.29,23.55,2.13,2.62,4.27,5.23,6.41,7.83.12.14.24.28.37.4.13.14.25.24.4.36.4.32.84.55,1.29.72.16.05.31.09.46.14.14.03.3.05.45.08.12.01.24.02.36.02.05,0,.12,0,.18,0,.09,0,.18-.03.27-.04.19-.01.38-.03.55-.08.09-.01.18-.03.27-.07.28-.09.55-.19.81-.34.31-.17.59-.39.84-.65.03-.04.07-.08.1-.11.22-.24.42-.5.59-.8.86-1.5.68-3.33-.52-4.8-1.57-1.94-3.16-3.88-4.77-5.84-.95-1.15-1.91-2.33-2.87-3.51.93-.76,1.79-1.56,2.69-2.29.26-.21.52-.4.79-.59.18-.12.36-.23.53-.34.27-.16.54-.28.83-.35.07-.02.14-.04.22-.05.07-.02.14-.03.22-.04.07,0,.13-.02.2-.02.08,0,.16,0,.25,0,1.2,0,2.42.61,3.25,1.61.43.51.85,1.03,1.28,1.56.23.29.47.56.7.85,2.6,3.17,5.18,6.34,7.79,9.51.12.14.23.29.36.43.12.15.26.3.39.43.28.28.55.51.85.71.3.19.6.34.92.46.2.07.4.14.6.18.21.05.41.07.61.09.41.02.81-.02,1.21-.12.53-.14,1.06-.41,1.53-.8.12-.1.24-.2.33-.31.22-.21.4-.46.55-.7.15-.26.28-.51.36-.78.33-.94.28-2.01-.18-3.04-.2-.47-.48-.92-.83-1.35-2.13-2.61-4.26-5.22-6.46-7.9-.34-.42-.69-.84-1.03-1.26.66-.53,1.28-1.09,1.9-1.61.14-.12.29-.24.43-.36.06-.05.13-.11.2-.16.1-.08.21-.17.31-.25.26-.21.52-.4.8-.58.03-.02.05-.05.09-.07.03-.02.06-.04.09-.07.13-.09.28-.17.42-.22h0c.22-.11.46-.18.69-.24.12-.02.24-.04.36-.05.23-.02.47-.02.71,0,.13.01.27.03.4.05.29.06.57.14.84.26h.01c.25.11.5.24.73.4.24.15.46.33.68.53.11.11.24.24.33.36.02.03.04.06.08.09,2.41,2.93,4.81,5.86,7.2,8.79.94,1.17,1.9,2.32,2.84,3.48,1.7,2.07,4.27,2.45,6.12.9,1.82-1.52,1.94-4.05.29-6.08-.5-.61-1-1.21-1.5-1.82-.74-.92-1.5-1.84-2.25-2.78-.03-.04-.07-.08-.1-.12-.6-.72-1.2-1.46-1.8-2.19-.32-.39-.63-.78-.96-1.18-.15-.2-.31-.39-.48-.59-.17-.19-.32-.39-.49-.59h.01c1.12-.92,2.11-1.78,3.12-2.56.11-.08.21-.17.32-.24.12-.09.24-.18.36-.24.14-.1.29-.17.45-.23.12-.05.24-.1.36-.13.16-.05.3-.08.46-.11.2-.03.41-.05.61-.05,1.23-.01,2.49.54,3.38,1.62,1.59,1.93,3.16,3.86,4.74,5.79.59.72,1.18,1.43,1.76,2.15,4.61,5.62,9.2,11.25,13.83,16.86,1.44,1.75,2.46,3.7,3.08,5.84.06.21.11.43.17.66.1.44.19.89.25,1.32.02.22.06.44.08.67.68,6.73,1.33,13.46,1.99,20.2.05.52.07,1.04.05,1.54Z"/>
        <path d="M163.28,101.36c.21,2.18-1.38,4.05-3.55,4.25l-12.52,4.32c-2.18.21-4.14-1.36-4.35-3.54l-1.7-18.07c-.21-2.18,1.38-4.14,3.55-4.34l14.12-2.93c2.18-.21,4.05,1.38,4.25,3.55l.2,16.76Z"/>
        <path class="cls-1" d="M191.87,45.07l-.97,5.09c-.2.81-.37,2.06-1.64,1.98l-74.99,6.14h-.09s-.09.01-.09.01c-.41.02-.81-.11-1.13-.34l-.19-.08c-.04-.06-.08-.12-.11-.18L53.46,19.76,14.7,69.62c-.29.38-.73.62-1.2.68-.48.07-.97-.07-1.34-.37l-5.25-4.56c-.74-.61-.88-1.69-.31-2.45L50.69,5.18c.27-.39.67-.65,1.12-.74.07,0,.12-.01.19-.01h.09c.1,0,.19.02.28.06l74.46,3.71v-.09s.09-.01.09-.01c.06.02.12.06.19.08.32-.02.63.04.93.19l62.98,35.32c.5.3.81.81.85,1.39Z"/>
        <path class="cls-3" d="M183.04,60.16c-.1-1.18-.63-2.23-1.54-2.98-.91-.75-2.12-1.12-3.29-.99l-63.83,6.97L57.58,26.79c-.96-.72-2.18-1.01-3.36-.8-1.03.21-1.95.78-2.61,1.61l-29.89,38.35c-.69.88-1.02,1.99-.91,3.1l11.48,57.07c.17,1.84,1.48,3.37,3.27,3.83l12.16,5.7c1.37.36,2.77,0,3.86-.9,1.08-.89,1.69-2.22,1.6-3.62l-9.66-61.89,24.81,1.78,5.7,67.13c.19,1.85,1.54,3.39,3.36,3.82l29.38,7.29c-3.84-4.69-7.68-9.38-11.52-14.07-4.73-5.77-3.97-13.38,1.83-18.1,2.53-2.05,4.99-4.23,7.73-5.97,4.96-3.15,11.77-1.87,15.55,2.69,4.07,4.93,8.11,9.9,12.16,14.85.3.36.59.72,1.04,1.28,5.07-5.08,10.64-7.28,17.31-3.77,1.83-1.35,3.53-2.82,5.41-3.99,3.8-2.36,7.78-2.31,11.76-.44.7.32,1.09.26,1.68-.19.4-.3.79-.6,1.18-.91,1.5-1.18,3.01-2.37,4.68-3.2,2.42-1.18,5.13-1.41,7.67-.82l-.24-56.46ZM147.21,109.93c-2.17.21-4.14-1.37-4.35-3.54l-1.7-18.07c-.21-2.17,1.38-4.14,3.55-4.34l14.12-2.93c2.17-.21,4.05,1.38,4.25,3.55l.2,16.76c.21,2.17-1.37,4.05-3.55,4.25l-12.52,4.32Z"/>
        <path class="cls-5" d="M180.82,60.27c-.05-.41-.22-.95-.74-1.38-.39-.32-.9-.5-1.4-.5-.08,0-.15,0-.24.02l-64.61,7.05L56.39,28.66l-.13-.09c-.37-.28-.81-.43-1.27-.43-.13,0-.25.01-.32.02-.52.11-.98.39-1.3.8l-29.9,38.36c-.32.41-.48.91-.46,1.42l11.48,57.06v.12c.09.9.74,1.65,1.62,1.88l.21.05,12.14,5.69c.11.02.22.03.33.03.49,0,.97-.18,1.39-.53.52-.43.81-1.04.8-1.68l-10.08-64.52,29.49,2.11,5.86,68.98c.09.92.76,1.67,1.69,1.89l22.9,5.68-7.29-8.9c-2.66-3.26-3.92-7.19-3.52-11.08.39-3.89,2.41-7.49,5.67-10.14.53-.43,1.05-.86,1.57-1.29,2.01-1.66,4.09-3.38,6.37-4.83,2.15-1.37,4.66-2.09,7.27-2.09,4.28,0,8.46,1.96,11.18,5.24,2.87,3.48,5.73,6.98,8.58,10.47l3.14,3.83c3.52-3,7.05-4.47,10.73-4.47,2,0,4.05.45,6.1,1.34.22-.17.44-.34.65-.51,1.22-.95,2.48-1.93,3.85-2.78,2.29-1.42,4.73-2.15,7.26-2.15,2.04,0,4.13.47,6.29,1.42.29-.22.58-.44.87-.68l.11-.09c1.53-1.21,3.12-2.45,4.97-3.36,1.85-.9,3.85-1.35,5.94-1.35.16,0,.32,0,.47,0l-.23-53.82ZM164.13,105.62c-.99,1.19-2.36,1.95-3.9,2.17l-12.54,4.32-.26.03c-.2.02-.4.03-.6.03-3.21,0-5.86-2.39-6.17-5.57l-1.7-18.06c-.16-1.66.34-3.28,1.4-4.56,1.02-1.23,2.44-2.01,4.02-2.19l14.12-2.93h.12c.2-.03.4-.04.6-.04,3.17,0,5.78,2.4,6.07,5.59v.09s.21,16.76.21,16.76c.13,1.6-.36,3.14-1.37,4.37Z"/>
        <path class="cls-3" d="M191.87,45.07l-.97,5.09c-.2.81-.37,2.06-1.64,1.98l-74.99,6.14h-.09s-.09.01-.09.01c-.41.02-.81-.11-1.13-.34l-.19-.08c-.04-.06-.08-.12-.11-.18L53.46,19.76,14.7,69.62c-.29.38-.73.62-1.2.68-.48.07-.97-.07-1.34-.37l-5.25-4.56c-.74-.61-.88-1.69-.31-2.45L50.69,5.18c.27-.39.67-.65,1.12-.74.07,0,.12-.01.19-.01h.09c.1,0,.19.02.28.06l74.46,3.71v-.09s.09-.01.09-.01c.06.02.12.06.19.08.32-.02.63.04.93.19l62.98,35.32c.5.3.81.81.85,1.39Z"/>
        <path class="cls-5" d="M8.63,63.92L52.32,6.7l74.88,3.73,62.35,34.97-.81,4.3s-.05.23-.06.26l-74.45,6.09L52.95,16.8,13.22,67.92l-4.59-3.99Z"/>
        <path class="cls-3" d="M213.05,181.32c-.03.49-.08.89-.13,1.29l-.02.13c-.09.47-.19.93-.32,1.38l-.03.11c-.04.13-.08.27-.13.41-.51,1.43-1.3,2.74-2.34,3.9-.16.17-.31.33-.48.49-.33.34-.67.63-.95.87-5.39,4.42-31.12,25.48-31.12,25.48-1.62,1.33-3.33,2.01-5.09,2.01-2.1,0-4.06-.94-5.83-2.82-.95-1-1.99-1.81-3.07-2.42-.44-.24-.9-.45-1.41-.65-.23-.09-.48-.18-.72-.24-7.97-2.43-15.96-4.87-23.94-7.31l-23.95-7.32c-3-.92-5.56-2.37-7.59-4.32-.11-.1-.28-.27-.43-.42-.13-.12-.24-.26-.36-.39l-.1-.1c-.47-.52-.85-1.07-1.19-1.66-.13-.23-.22-.42-.31-.61l-.07-.16c-.13-.32-.22-.59-.3-.85-1.02-3.41.57-6.99,3.99-8.81,2.39-1.27,4.85-1.9,7.32-1.9.5,0,1.01.02,1.51.08,2.26.22,4.53.45,6.79.68,3.6.36,7.19.71,10.78,1.1.55.07,1.05.21,1.59.44l.14.07c.2.1.47.24.77.44.33.23.65.5.97.81.6.62,1.09,1.23,1.52,1.78.23.3.47.59.71.88.27.31.55.36.71.36.18,0,.33-.06.48-.17.31-.26.33-.79.04-1.18-.11-.14-.23-.3-.37-.45l-.28-.33c-5.3-6.48-10.61-12.96-15.91-19.45-2.84-3.47-5.68-6.94-8.52-10.4l-.47-.57c-5.27-6.44-10.55-12.84-15.84-19.25-1.86-2.24-2.43-5.27-1.48-7.91.09-.21.18-.42.27-.62v-.19l.59-.87c.34-.49.74-.94,1.19-1.35.23-.21.49-.41.75-.6,1.24-.88,2.43-1.88,3.67-2.94.58-.5,1.15-.99,1.74-1.46,1.61-1.31,3.38-1.99,5.14-1.99,1.56,0,3.86.53,5.94,3.06,6.43,7.86,12.85,15.7,19.29,23.55,2.09,2.55,4.16,5.09,6.25,7.63l.17.2s.09.1.16.16c.02.02.04.06.08.08.11.09.21.14.32.2.06.01.2.06.2.06.01-.01.22-.02.22-.02,0,0,.18-.06.19-.06l.1-.09c.06-.06.1-.1.14-.14.01-.02.02-.04.03-.06.23-.42.02-.81-.19-1.08-1.58-1.94-3.16-3.88-4.76-5.83-.62-.74-1.24-1.51-1.86-2.27l-3.14-3.83,2.6-2.11c.43-.34.83-.71,1.24-1.05.49-.43.97-.84,1.45-1.24.29-.23.62-.48.95-.71l.17-.11.53-.33c1.07-.64,2.25-.98,3.46-.98,2.18,0,4.35,1.05,5.81,2.81.41.5.84,1.02,1.27,1.55l2.03,2.47c2.15,2.63,4.31,5.27,6.48,7.9l.4.5s.08.09.12.13c.13.12.24.22.34.29.06.03.14.08.22.11.07.02.12.04.18.06.03.01.07.01.1.01.07,0,.12-.01.19-.02,0,0,.11-.04.23-.16l.09-.09.06-.04s.02-.04.04-.08c.09-.23.06-.45-.04-.69-.1-.21-.21-.4-.37-.58l-9.6-11.76,2.59-2.11c.37-.3.73-.61,1.09-.92.26-.22.51-.44.77-.65.32-.27.67-.55,1.02-.82.29-.24.61-.47.94-.7.04-.02.58-.41.58-.41l.09-.03.49-.22c.51-.23.99-.36,1.3-.43l.16-.03c.22-.04.45-.08.69-.1.19-.02.41-.03.64-.03.21,0,.43.01.67.03.19.02.42.06.65.09.29.06.57.13.84.21h.13l.64.28c.43.19.85.42,1.24.68.36.22.74.52,1.12.89l.08.08c.18.18.34.36.49.52l.13.14c2.16,2.64,4.33,5.28,6.48,7.92l.72.88c.62.77,1.22,1.5,1.83,2.24l1.01,1.23c.39.47.77.63,1,.63.09,0,.21-.02.4-.17.52-.44.13-1.09-.16-1.44l-1.49-1.81s-2.34-2.89-2.36-2.91c-.6-.72-1.2-1.44-1.79-2.18l-.95-1.15c-.2-.26-.33-.41-.47-.59-.22-.26-.39-.47-.55-.68l-1.99-2.55,2.51-2.06c.38-.31.73-.61,1.09-.91.72-.6,1.4-1.17,2.09-1.7l.39-.3,3.58-1.41h.61c2.34-.01,4.49,1.02,5.97,2.82,1.6,1.94,3.17,3.87,4.75,5.8l6.37,7.77c3.06,3.75,6.14,7.5,9.21,11.23,1.72,2.09,2.97,4.45,3.72,7.02l.2.79c.13.59.23,1.11.31,1.61l.1.83c.69,6.75,1.34,13.48,2,20.22.07.63.08,1.32.06,2.01Z"/>
        <path d="M209.73,181.17c-.02.32-.06.64-.1.95-.07.36-.14.71-.24,1.05-.03.1-.06.2-.1.31-.36,1.02-.91,1.95-1.68,2.8-.11.12-.22.24-.34.36-.23.24-.49.47-.75.69-10.36,8.48-20.72,16.97-31.09,25.46-2.26,1.86-4.36,1.63-6.39-.52-1.15-1.21-2.44-2.24-3.88-3.04-.58-.32-1.18-.6-1.8-.84-.31-.12-.63-.23-.95-.33-7.99-2.43-15.97-4.87-23.95-7.31-7.98-2.44-15.96-4.88-23.95-7.32-2.36-.72-4.51-1.85-6.27-3.54-.12-.11-.26-.24-.38-.37-.12-.12-.23-.26-.36-.39-.3-.33-.54-.69-.74-1.04-.07-.12-.12-.24-.18-.37-.07-.17-.13-.32-.18-.49-.58-1.92.28-3.91,2.34-5,2.15-1.14,4.45-1.71,6.92-1.45,5.85.6,11.71,1.14,17.56,1.78.19.02.39.09.59.18.13.07.26.13.38.22.19.12.36.27.5.41.74.77,1.36,1.66,2.06,2.47,1.5,1.74,4.02,2.01,5.77.62,1.73-1.38,2.02-3.93.65-5.77-.23-.31-.49-.6-.73-.9-5.32-6.49-10.62-12.97-15.92-19.46-3-3.66-5.99-7.31-8.99-10.96-5.27-6.44-10.55-12.85-15.85-19.26-1.13-1.36-1.45-3.15-.91-4.66.12-.31.28-.61.47-.9h0c.2-.3.43-.57.7-.81.13-.12.28-.23.43-.34,1.95-1.36,3.74-3.02,5.59-4.54,2.26-1.83,4.56-1.62,6.39.61,6.43,7.86,12.85,15.7,19.29,23.55,2.13,2.62,4.27,5.23,6.41,7.83.12.14.24.28.37.4.13.13.26.24.4.36.4.32.84.55,1.29.72.16.04.31.09.45.13.14.03.3.06.44.08.12.01.24.02.37.02.06.01.12.01.18.01.09,0,.18-.03.27-.04.19-.01.38-.03.55-.08.09-.01.18-.03.27-.07.28-.09.55-.19.81-.34.31-.17.59-.39.84-.65.03-.03.07-.08.1-.11.22-.23.42-.5.59-.8.85-1.5.68-3.33-.52-4.79-1.58-1.94-3.16-3.88-4.77-5.84-.95-1.15-1.91-2.33-2.87-3.51.93-.75,1.79-1.56,2.69-2.29.26-.21.52-.4.79-.59.18-.11.36-.22.53-.33.53-.32,1.11-.48,1.71-.48,1.2,0,2.42.61,3.25,1.61.43.51.85,1.03,1.28,1.55.23.29.47.58.69.85h.01c2.6,3.17,5.18,6.34,7.79,9.51.12.14.23.29.36.43.12.16.26.3.39.43.28.28.55.51.85.71.3.19.6.34.92.47.2.07.4.13.6.18.21.04.41.07.61.09.41.02.81-.02,1.21-.12.53-.14,1.05-.41,1.53-.8.12-.1.23-.2.33-.31.22-.21.4-.45.55-.7.16-.26.28-.51.37-.78.33-.94.28-2.01-.18-3.04-.2-.47-.48-.92-.83-1.35-2.13-2.61-4.26-5.22-6.46-7.9-.34-.42-.69-.84-1.03-1.27.65-.53,1.28-1.09,1.9-1.61.31-.27.62-.52.94-.77.26-.21.52-.4.8-.58.03-.02.06-.04.09-.07.03-.02.06-.04.09-.06.13-.09.28-.17.42-.23h.01c.22-.11.45-.18.69-.23.12-.02.24-.04.37-.06.23-.02.47-.02.71,0,.13.01.27.03.4.06.29.06.57.14.84.26h.01c.26.11.5.24.73.4.24.16.47.33.68.53.11.11.23.23.33.36.02.03.04.06.08.09,2.41,2.93,4.81,5.86,7.2,8.79.94,1.17,1.9,2.32,2.84,3.47,1.7,2.08,4.27,2.45,6.11.9,1.82-1.52,1.94-4.05.29-6.08-.5-.61-1-1.21-1.5-1.82-.74-.92-1.5-1.84-2.25-2.77-.03-.04-.07-.08-.1-.12-.6-.72-1.2-1.45-1.8-2.19-.32-.39-.63-.78-.97-1.18-.16-.2-.31-.39-.48-.59-.16-.19-.32-.39-.48-.59,1.12-.92,2.11-1.78,3.12-2.56l2.56-1.01c1.23-.01,2.49.54,3.37,1.62,1.59,1.93,3.16,3.86,4.74,5.79.59.72,1.18,1.43,1.76,2.15,4.61,5.62,9.2,11.25,13.83,16.86,1.44,1.75,2.46,3.7,3.08,5.84.06.21.11.43.17.65.1.44.19.89.26,1.32.02.22.06.44.08.67.68,6.74,1.33,13.46,1.99,20.2.06.52.07,1.04.04,1.54Z"/>
      </g>
    </g>
  </g>
</svg>